<svg xmlns="http://www.w3.org/2000/svg" width="32" height="32" viewBox="0 0 32 32"><g fill="none" fill-rule="evenodd"><rect width="32" height="32" fill="#000"/><g fill="#FE0" transform="translate(16 14)"><circle cx="11" cy="13" r="1"/><circle cx="9" cy="11" r="1"/><circle cx="9" cy="9" r="1"/><circle cx="9" cy="7" r="1"/><circle cx="7" cy="13" r="1"/><circle cx="7" cy="7" r="1"/><circle cx="5" cy="13" r="1"/><circle cx="5" cy="7" r="1"/><circle cx="3" cy="13" r="1"/><circle cx="3" cy="11" r="1"/><circle cx="3" cy="9" r="1"/><circle cx="3" cy="7" r="1"/><circle cx="1" cy="11" r="1"/><circle cx="1" cy="9" r="1"/><circle cx="11" cy="11" r="1"/><circle cx="11" cy="9" r="1"/><circle cx="11" cy="7" r="1"/><circle cx="9" cy="5" r="1"/><circle cx="9" cy="3" r="1"/><circle cx="9" cy="1" r="1"/><circle cx="7" cy="1" r="1"/><circle cx="5" cy="1" r="1"/><circle cx="3" cy="3" r="1"/><circle cx="3" cy="1" r="1"/><circle cx="1" cy="3" r="1"/><circle cx="11" cy="5" r="1"/><circle cx="11" cy="3" r="1"/></g></g></svg>