<?xml version="1.0" encoding="UTF-8"?><svg id="Ebene_1" xmlns="http://www.w3.org/2000/svg" viewBox="0 0 100 50"><defs><style>.cls-1{fill:#fe0;}.cls-2{fill:#fff;}</style></defs><path class="cls-1" d="M.003,7.437c0-.528.432-.96.96-.96s.96.432.96.96-.432.96-.96.96S.003,7.965.003,7.437Z"/><path class="cls-1" d="M2.403,5.037c0-.528.432-.96.96-.96s.96.432.96.96-.432.96-.96.96-.96-.432-.96-.96Z"/><path class="cls-1" d="M2.403,7.437c0-.528.432-.96.96-.96s.96.432.96.96-.432.96-.96.96-.96-.432-.96-.96Z"/><circle class="cls-1" cx="5.764" cy="2.637" r=".96"/><circle class="cls-1" cx="5.764" cy="5.037" r=".96"/><path class="cls-1" d="M7.204,2.637c0-.528.432-.96.96-.96s.96.432.96.96-.432.96-.96.96-.96-.432-.96-.96Z"/><path class="cls-2" d="M.003,12.238c0-.528.432-.96.96-.96s.96.432.96.96-.432.96-.96.96S.003,12.766.003,12.238Z"/><path class="cls-2" d="M.003,14.638c0-.528.432-.96.96-.96s.96.432.96.96-.432.96-.96.96S.003,15.166.003,14.638Z"/><circle class="cls-2" cx=".963" cy="17.038" r=".96"/><path class="cls-2" d="M.003,19.438c0-.528.432-.96.96-.96s.96.432.96.96-.432.96-.96.96S.003,19.966.003,19.438Z"/><circle class="cls-2" cx=".963" cy="21.838" r=".96"/><circle class="cls-2" cx=".963" cy="24.239" r=".96"/><path class="cls-2" d="M.003,26.639c0-.528.432-.96.96-.96s.96.432.96.96-.432.96-.96.96S.003,27.167.003,26.639Z"/><circle class="cls-2" cx=".963" cy="29.039" r=".96"/><path class="cls-2" d="M.003,31.439c0-.528.432-.96.96-.96s.96.432.96.96-.432.96-.96.96S.003,31.967.003,31.439Z"/><path class="cls-2" d="M.003,33.839c0-.528.432-.96.96-.96s.96.432.96.96-.432.96-.96.96S.003,34.368.003,33.839Z"/><circle class="cls-2" cx=".963" cy="36.24" r=".96"/><path class="cls-2" d="M.003,38.64c0-.528.432-.96.96-.96s.96.432.96.96-.432.96-.96.96S.003,39.168.003,38.64Z"/><circle class="cls-2" cx=".963" cy="41.04" r=".96"/><path class="cls-2" d="M2.403,12.238c0-.528.432-.96.96-.96s.96.432.96.96-.432.96-.96.96-.96-.432-.96-.96Z"/><path class="cls-2" d="M2.403,14.638c0-.528.432-.96.96-.96s.96.432.96.96-.432.96-.96.96-.96-.432-.96-.96Z"/><path class="cls-2" d="M2.403,17.038c0-.528.432-.96.96-.96s.96.432.96.96-.432.96-.96.96-.96-.432-.96-.96Z"/><path class="cls-2" d="M2.403,19.438c0-.528.432-.96.96-.96s.96.432.96.96-.432.96-.96.96-.96-.432-.96-.96Z"/><path class="cls-2" d="M2.403,21.838c0-.528.432-.96.96-.96s.96.432.96.96-.432.96-.96.96-.96-.432-.96-.96Z"/><path class="cls-2" d="M2.403,24.239c0-.528.432-.96.96-.96s.96.432.96.96-.432.96-.96.96-.96-.432-.96-.96Z"/><path class="cls-2" d="M2.403,26.639c0-.528.432-.96.96-.96s.96.432.96.96-.432.96-.96.96-.96-.432-.96-.96Z"/><path class="cls-2" d="M2.403,29.039c0-.528.432-.96.96-.96s.96.432.96.96-.432.96-.96.96-.96-.432-.96-.96Z"/><path class="cls-2" d="M2.403,31.439c0-.528.432-.96.96-.96s.96.432.96.96-.432.96-.96.96-.96-.432-.96-.96Z"/><path class="cls-2" d="M2.403,33.839c0-.528.432-.96.96-.96s.96.432.96.96-.432.96-.96.96-.96-.432-.96-.96Z"/><path class="cls-2" d="M2.403,36.24c0-.528.432-.96.96-.96s.96.432.96.96-.432.96-.96.96-.96-.432-.96-.96Z"/><path class="cls-2" d="M2.403,38.64c0-.528.432-.96.96-.96s.96.432.96.96-.432.96-.96.96-.96-.432-.96-.96Z"/><path class="cls-2" d="M2.403,41.04c0-.528.432-.96.96-.96s.96.432.96.96-.432.96-.96.96-.96-.432-.96-.96Z"/><path class="cls-2" d="M4.804,38.64c0-.528.432-.96.96-.96s.96.432.96.96-.432.96-.96.96-.96-.432-.96-.96Z"/><circle class="cls-2" cx="5.764" cy="41.04" r=".96"/><path class="cls-2" d="M7.204,38.64c0-.528.432-.96.96-.96s.96.432.96.96-.432.96-.96.96-.96-.432-.96-.96Z"/><path class="cls-2" d="M7.204,41.04c0-.528.432-.96.96-.96s.96.432.96.96-.432.96-.96.96-.96-.432-.96-.96Z"/><path class="cls-2" d="M9.604,38.64c0-.528.432-.96.96-.96s.96.432.96.96-.432.96-.96.96-.96-.432-.96-.96Z"/><path class="cls-2" d="M9.604,41.04c0-.528.432-.96.96-.96s.96.432.96.96-.432.96-.96.96-.96-.432-.96-.96Z"/><path class="cls-2" d="M12.004,38.64c0-.528.432-.96.96-.96s.96.432.96.96-.432.96-.96.96-.96-.432-.96-.96Z"/><circle class="cls-2" cx="12.964" cy="41.04" r=".96"/><path class="cls-2" d="M14.404,38.64c0-.528.432-.96.96-.96s.96.432.96.96-.432.96-.96.96-.96-.432-.96-.96Z"/><path class="cls-2" d="M14.404,41.04c0-.528.432-.96.96-.96s.96.432.96.96-.432.96-.96.96-.96-.432-.96-.96Z"/><circle class="cls-2" cx="20.163" cy="24.239" r=".96"/><path class="cls-2" d="M19.203,26.639c0-.528.432-.96.96-.96s.96.432.96.96-.432.96-.96.96-.96-.432-.96-.96Z"/><path class="cls-2" d="M19.203,33.839c0-.528.432-.96.96-.96s.96.432.96.96-.432.96-.96.96-.96-.432-.96-.96Z"/><circle class="cls-2" cx="20.163" cy="36.24" r=".96"/><path class="cls-2" d="M19.203,38.64c0-.528.432-.96.96-.96s.96.432.96.96-.432.96-.96.96-.96-.432-.96-.96Z"/><path class="cls-2" d="M21.603,21.838c0-.528.432-.96.96-.96s.96.432.96.96-.432.96-.96.96-.96-.432-.96-.96Z"/><path class="cls-2" d="M21.603,24.239c0-.528.432-.96.96-.96s.96.432.96.96-.432.96-.96.96-.96-.432-.96-.96Z"/><path class="cls-2" d="M21.603,31.439c0-.528.432-.96.96-.96s.96.432.96.96-.432.96-.96.96-.96-.432-.96-.96Z"/><path class="cls-2" d="M21.603,33.839c0-.528.432-.96.96-.96s.96.432.96.96-.432.96-.96.96-.96-.432-.96-.96Z"/><path class="cls-2" d="M21.603,36.24c0-.528.432-.96.96-.96s.96.432.96.96-.432.96-.96.96-.96-.432-.96-.96Z"/><path class="cls-2" d="M21.603,38.64c0-.528.432-.96.96-.96s.96.432.96.96-.432.96-.96.96-.96-.432-.96-.96Z"/><path class="cls-2" d="M21.603,41.04c0-.528.432-.96.96-.96s.96.432.96.96-.432.96-.96.96-.96-.432-.96-.96Z"/><circle class="cls-2" cx="24.963" cy="21.838" r=".96"/><circle class="cls-2" cx="24.963" cy="24.239" r=".96"/><path class="cls-2" d="M24.003,31.439c0-.528.432-.96.96-.96s.96.432.96.96-.432.96-.96.96-.96-.432-.96-.96Z"/><path class="cls-2" d="M24.003,38.64c0-.528.432-.96.96-.96s.96.432.96.96-.432.96-.96.96-.96-.432-.96-.96Z"/><circle class="cls-2" cx="24.963" cy="41.04" r=".96"/><path class="cls-2" d="M26.403,21.838c0-.528.432-.96.96-.96s.96.432.96.96-.432.96-.96.96-.96-.432-.96-.96Z"/><path class="cls-2" d="M26.403,24.239c0-.528.432-.96.96-.96s.96.432.96.96-.432.96-.96.96-.96-.432-.96-.96Z"/><path class="cls-2" d="M26.403,31.439c0-.528.432-.96.96-.96s.96.432.96.96-.432.96-.96.96-.96-.432-.96-.96Z"/><path class="cls-2" d="M26.403,38.64c0-.528.432-.96.96-.96s.96.432.96.96-.432.96-.96.96-.96-.432-.96-.96Z"/><path class="cls-2" d="M26.403,41.04c0-.528.432-.96.96-.96s.96.432.96.96-.432.96-.96.96-.96-.432-.96-.96Z"/><path class="cls-2" d="M28.804,21.838c0-.528.432-.96.96-.96s.96.432.96.96-.432.96-.96.96-.96-.432-.96-.96Z"/><path class="cls-2" d="M28.804,24.239c0-.528.432-.96.96-.96s.96.432.96.96-.432.96-.96.96-.96-.432-.96-.96Z"/><path class="cls-2" d="M28.804,26.639c0-.528.432-.96.96-.96s.96.432.96.96-.432.96-.96.96-.96-.432-.96-.96Z"/><path class="cls-2" d="M28.804,29.039c0-.528.432-.96.96-.96s.96.432.96.96-.432.96-.96.96-.96-.432-.96-.96Z"/><path class="cls-2" d="M28.804,31.439c0-.528.432-.96.96-.96s.96.432.96.96-.432.96-.96.96-.96-.432-.96-.96Z"/><path class="cls-2" d="M28.804,33.839c0-.528.432-.96.96-.96s.96.432.96.96-.432.96-.96.96-.96-.432-.96-.96Z"/><path class="cls-2" d="M28.804,36.24c0-.528.432-.96.96-.96s.96.432.96.96-.432.96-.96.96-.96-.432-.96-.96Z"/><path class="cls-2" d="M28.804,38.64c0-.528.432-.96.96-.96s.96.432.96.96-.432.96-.96.96-.96-.432-.96-.96Z"/><circle class="cls-2" cx="32.164" cy="24.239" r=".96"/><path class="cls-2" d="M31.204,26.639c0-.528.432-.96.96-.96s.96.432.96.96-.432.96-.96.96-.96-.432-.96-.96Z"/><circle class="cls-2" cx="32.164" cy="29.039" r=".96"/><path class="cls-2" d="M31.204,31.439c0-.528.432-.96.96-.96s.96.432.96.96-.432.96-.96.96-.96-.432-.96-.96Z"/><path class="cls-2" d="M31.204,33.839c0-.528.432-.96.96-.96s.96.432.96.96-.432.96-.96.96-.96-.432-.96-.96Z"/><circle class="cls-2" cx="32.164" cy="36.24" r=".96"/><path class="cls-2" d="M31.204,38.64c0-.528.432-.96.96-.96s.96.432.96.96-.432.96-.96.96-.96-.432-.96-.96Z"/><circle class="cls-2" cx="32.164" cy="41.04" r=".96"/><circle class="cls-1" cx="32.164" cy="43.44" r=".96"/><path class="cls-1" d="M28.804,45.84c0-.528.432-.96.96-.96s.96.432.96.96-.432.96-.96.96-.96-.432-.96-.96Z"/><path class="cls-1" d="M28.804,48.241c0-.528.432-.96.96-.96s.96.432.96.96-.432.96-.96.96-.96-.432-.96-.96Z"/><circle class="cls-1" cx="32.164" cy="48.241" r=".96"/><path class="cls-1" d="M38.403,12.238c0-.528.432-.96.96-.96s.96.432.96.96-.432.96-.96.96-.96-.432-.96-.96Z"/><path class="cls-1" d="M38.403,14.638c0-.528.432-.96.96-.96s.96.432.96.96-.432.96-.96.96-.96-.432-.96-.96Z"/><path class="cls-1" d="M40.803,14.638c0-.528.432-.96.96-.96s.96.432.96.96-.432.96-.96.96-.96-.432-.96-.96Z"/><circle class="cls-1" cx="41.763" cy="17.038" r=".96"/><path class="cls-1" d="M43.203,14.638c0-.528.432-.96.96-.96s.96.432.96.96-.432.96-.96.96-.96-.432-.96-.96Z"/><path class="cls-1" d="M43.203,17.038c0-.528.432-.96.96-.96s.96.432.96.96-.432.96-.96.96-.96-.432-.96-.96Z"/><path class="cls-1" d="M45.603,12.238c0-.528.432-.96.96-.96s.96.432.96.96-.432.96-.96.96-.96-.432-.96-.96Z"/><path class="cls-1" d="M45.603,14.638c0-.528.432-.96.96-.96s.96.432.96.96-.432.96-.96.96-.96-.432-.96-.96Z"/><circle class="cls-2" cx="36.963" cy="21.838" r=".96"/><circle class="cls-2" cx="36.963" cy="24.239" r=".96"/><path class="cls-2" d="M36.003,26.639c0-.528.432-.96.96-.96s.96.432.96.96-.432.96-.96.96-.96-.432-.96-.96Z"/><circle class="cls-2" cx="36.963" cy="29.039" r=".96"/><path class="cls-2" d="M36.003,31.439c0-.528.432-.96.96-.96s.96.432.96.96-.432.96-.96.96-.96-.432-.96-.96Z"/><path class="cls-2" d="M36.003,33.839c0-.528.432-.96.96-.96s.96.432.96.96-.432.96-.96.96-.96-.432-.96-.96Z"/><circle class="cls-2" cx="36.963" cy="36.24" r=".96"/><path class="cls-2" d="M36.003,38.64c0-.528.432-.96.96-.96s.96.432.96.96-.432.96-.96.96-.96-.432-.96-.96Z"/><circle class="cls-2" cx="36.963" cy="41.04" r=".96"/><path class="cls-2" d="M38.403,21.838c0-.528.432-.96.96-.96s.96.432.96.96-.432.96-.96.96-.96-.432-.96-.96Z"/><path class="cls-2" d="M38.403,24.239c0-.528.432-.96.96-.96s.96.432.96.96-.432.96-.96.96-.96-.432-.96-.96Z"/><path class="cls-2" d="M38.403,26.639c0-.528.432-.96.96-.96s.96.432.96.96-.432.96-.96.96-.96-.432-.96-.96Z"/><path class="cls-2" d="M38.403,29.039c0-.528.432-.96.96-.96s.96.432.96.96-.432.96-.96.96-.96-.432-.96-.96Z"/><path class="cls-2" d="M38.403,31.439c0-.528.432-.96.96-.96s.96.432.96.96-.432.96-.96.96-.96-.432-.96-.96Z"/><path class="cls-2" d="M38.403,33.839c0-.528.432-.96.96-.96s.96.432.96.96-.432.96-.96.96-.96-.432-.96-.96Z"/><path class="cls-2" d="M38.403,36.24c0-.528.432-.96.96-.96s.96.432.96.96-.432.96-.96.96-.96-.432-.96-.96Z"/><path class="cls-2" d="M38.403,38.64c0-.528.432-.96.96-.96s.96.432.96.96-.432.96-.96.96-.96-.432-.96-.96Z"/><path class="cls-2" d="M38.403,41.04c0-.528.432-.96.96-.96s.96.432.96.96-.432.96-.96.96-.96-.432-.96-.96Z"/><circle class="cls-2" cx="41.763" cy="24.239" r=".96"/><path class="cls-2" d="M43.203,21.838c0-.528.432-.96.96-.96s.96.432.96.96-.432.96-.96.96-.96-.432-.96-.96Z"/><path class="cls-2" d="M43.203,24.239c0-.528.432-.96.96-.96s.96.432.96.96-.432.96-.96.96-.96-.432-.96-.96Z"/><path class="cls-2" d="M45.603,21.838c0-.528.432-.96.96-.96s.96.432.96.96-.432.96-.96.96-.96-.432-.96-.96Z"/><path class="cls-2" d="M45.603,24.239c0-.528.432-.96.96-.96s.96.432.96.96-.432.96-.96.96-.96-.432-.96-.96Z"/><path class="cls-2" d="M45.603,26.639c0-.528.432-.96.96-.96s.96.432.96.96-.432.96-.96.96-.96-.432-.96-.96Z"/><path class="cls-2" d="M45.603,29.039c0-.528.432-.96.96-.96s.96.432.96.96-.432.96-.96.96-.96-.432-.96-.96Z"/><path class="cls-2" d="M45.603,31.439c0-.528.432-.96.96-.96s.96.432.96.96-.432.96-.96.96-.96-.432-.96-.96Z"/><path class="cls-2" d="M45.603,33.839c0-.528.432-.96.96-.96s.96.432.96.96-.432.96-.96.96-.96-.432-.96-.96Z"/><path class="cls-2" d="M45.603,36.24c0-.528.432-.96.96-.96s.96.432.96.96-.432.96-.96.96-.96-.432-.96-.96Z"/><path class="cls-2" d="M45.603,38.64c0-.528.432-.96.96-.96s.96.432.96.96-.432.96-.96.96-.96-.432-.96-.96Z"/><path class="cls-2" d="M45.603,41.04c0-.528.432-.96.96-.96s.96.432.96.96-.432.96-.96.96-.96-.432-.96-.96Z"/><circle class="cls-2" cx="48.964" cy="24.239" r=".96"/><path class="cls-2" d="M48.004,26.639c0-.528.432-.96.96-.96s.96.432.96.96-.432.96-.96.96-.96-.432-.96-.96Z"/><circle class="cls-2" cx="48.964" cy="29.039" r=".96"/><path class="cls-2" d="M48.004,31.439c0-.528.432-.96.96-.96s.96.432.96.96-.432.96-.96.96-.96-.432-.96-.96Z"/><path class="cls-2" d="M48.004,33.839c0-.528.432-.96.96-.96s.96.432.96.96-.432.96-.96.96-.96-.432-.96-.96Z"/><circle class="cls-2" cx="48.964" cy="36.24" r=".96"/><path class="cls-2" d="M48.004,38.64c0-.528.432-.96.96-.96s.96.432.96.96-.432.96-.96.96-.96-.432-.96-.96Z"/><circle class="cls-2" cx="48.964" cy="41.04" r=".96"/><path class="cls-1" d="M57.602,12.238c0-.528.432-.96.96-.96s.96.432.96.96-.432.96-.96.96-.96-.432-.96-.96Z"/><path class="cls-1" d="M57.602,14.638c0-.528.432-.96.96-.96s.96.432.96.96-.432.96-.96.96-.96-.432-.96-.96Z"/><path class="cls-1" d="M60.002,12.238c0-.528.432-.96.96-.96s.96.432.96.96-.432.96-.96.96-.96-.432-.96-.96Z"/><path class="cls-1" d="M60.002,14.638c0-.528.432-.96.96-.96s.96.432.96.96-.432.96-.96.96-.96-.432-.96-.96Z"/><circle class="cls-2" cx="53.762" cy="24.239" r=".96"/><path class="cls-2" d="M52.802,26.639c0-.528.432-.96.96-.96s.96.432.96.96-.432.96-.96.96-.96-.432-.96-.96Z"/><circle class="cls-2" cx="53.762" cy="29.039" r=".96"/><path class="cls-2" d="M52.802,31.439c0-.528.432-.96.96-.96s.96.432.96.96-.432.96-.96.96-.96-.432-.96-.96Z"/><path class="cls-2" d="M52.802,33.839c0-.528.432-.96.96-.96s.96.432.96.96-.432.96-.96.96-.96-.432-.96-.96Z"/><circle class="cls-2" cx="53.762" cy="36.24" r=".96"/><circle class="cls-2" cx="53.762" cy="43.44" r=".96"/><path class="cls-2" d="M52.802,45.84c0-.528.432-.96.96-.96s.96.432.96.96-.432.96-.96.96-.96-.432-.96-.96Z"/><path class="cls-2" d="M55.202,21.838c0-.528.432-.96.96-.96s.96.432.96.96-.432.96-.96.96-.96-.432-.96-.96Z"/><path class="cls-2" d="M55.202,24.239c0-.528.432-.96.96-.96s.96.432.96.96-.432.96-.96.96-.96-.432-.96-.96Z"/><path class="cls-2" d="M55.202,26.639c0-.528.432-.96.96-.96s.96.432.96.96-.432.96-.96.96-.96-.432-.96-.96Z"/><path class="cls-2" d="M55.202,29.039c0-.528.432-.96.96-.96s.96.432.96.96-.432.96-.96.96-.96-.432-.96-.96Z"/><path class="cls-2" d="M55.202,31.439c0-.528.432-.96.96-.96s.96.432.96.96-.432.96-.96.96-.96-.432-.96-.96Z"/><path class="cls-2" d="M55.202,33.839c0-.528.432-.96.96-.96s.96.432.96.96-.432.96-.96.96-.96-.432-.96-.96Z"/><path class="cls-2" d="M55.202,36.24c0-.528.432-.96.96-.96s.96.432.96.96-.432.96-.96.96-.96-.432-.96-.96Z"/><path class="cls-2" d="M55.202,38.64c0-.528.432-.96.96-.96s.96.432.96.96-.432.96-.96.96-.96-.432-.96-.96Z"/><path class="cls-2" d="M55.202,45.84c0-.528.432-.96.96-.96s.96.432.96.96-.432.96-.96.96-.96-.432-.96-.96Z"/><path class="cls-2" d="M55.202,48.241c0-.528.432-.96.96-.96s.96.432.96.96-.432.96-.96.96-.96-.432-.96-.96Z"/><circle class="cls-2" cx="58.562" cy="21.838" r=".96"/><circle class="cls-2" cx="58.562" cy="24.239" r=".96"/><circle class="cls-2" cx="58.562" cy="36.24" r=".96"/><path class="cls-2" d="M57.602,38.64c0-.528.432-.96.96-.96s.96.432.96.96-.432.96-.96.96-.96-.432-.96-.96Z"/><path class="cls-2" d="M57.602,45.84c0-.528.432-.96.96-.96s.96.432.96.96-.432.96-.96.96-.96-.432-.96-.96Z"/><circle class="cls-2" cx="58.562" cy="48.241" r=".96"/><path class="cls-2" d="M60.002,21.838c0-.528.432-.96.96-.96s.96.432.96.96-.432.96-.96.96-.96-.432-.96-.96Z"/><path class="cls-2" d="M60.002,24.239c0-.528.432-.96.96-.96s.96.432.96.96-.432.96-.96.96-.96-.432-.96-.96Z"/><path class="cls-2" d="M60.002,36.24c0-.528.432-.96.96-.96s.96.432.96.96-.432.96-.96.96-.96-.432-.96-.96Z"/><path class="cls-2" d="M60.002,38.64c0-.528.432-.96.96-.96s.96.432.96.96-.432.96-.96.96-.96-.432-.96-.96Z"/><path class="cls-2" d="M60.002,45.84c0-.528.432-.96.96-.96s.96.432.96.96-.432.96-.96.96-.96-.432-.96-.96Z"/><path class="cls-2" d="M60.002,48.241c0-.528.432-.96.96-.96s.96.432.96.96-.432.96-.96.96-.96-.432-.96-.96Z"/><path class="cls-2" d="M62.403,24.239c0-.528.432-.96.96-.96s.96.432.96.96-.432.96-.96.96-.96-.432-.96-.96Z"/><path class="cls-2" d="M62.403,26.639c0-.528.432-.96.96-.96s.96.432.96.96-.432.96-.96.96-.96-.432-.96-.96Z"/><path class="cls-2" d="M62.403,29.039c0-.528.432-.96.96-.96s.96.432.96.96-.432.96-.96.96-.96-.432-.96-.96Z"/><path class="cls-2" d="M62.403,31.439c0-.528.432-.96.96-.96s.96.432.96.96-.432.96-.96.96-.96-.432-.96-.96Z"/><path class="cls-2" d="M62.403,33.839c0-.528.432-.96.96-.96s.96.432.96.96-.432.96-.96.96-.96-.432-.96-.96Z"/><path class="cls-2" d="M62.403,36.24c0-.528.432-.96.96-.96s.96.432.96.96-.432.96-.96.96-.96-.432-.96-.96Z"/><path class="cls-2" d="M62.403,38.64c0-.528.432-.96.96-.96s.96.432.96.96-.432.96-.96.96-.96-.432-.96-.96Z"/><path class="cls-2" d="M62.403,41.04c0-.528.432-.96.96-.96s.96.432.96.96-.432.96-.96.96-.96-.432-.96-.96Z"/><path class="cls-2" d="M62.403,43.44c0-.528.432-.96.96-.96s.96.432.96.96-.432.96-.96.96-.96-.432-.96-.96Z"/><path class="cls-2" d="M62.403,45.84c0-.528.432-.96.96-.96s.96.432.96.96-.432.96-.96.96-.96-.432-.96-.96Z"/><path class="cls-2" d="M62.403,48.241c0-.528.432-.96.96-.96s.96.432.96.96-.432.96-.96.96-.96-.432-.96-.96Z"/><circle class="cls-2" cx="65.763" cy="21.838" r=".96"/><circle class="cls-2" cx="65.763" cy="24.239" r=".96"/><path class="cls-2" d="M64.803,26.639c0-.528.432-.96.96-.96s.96.432.96.96-.432.96-.96.96-.96-.432-.96-.96Z"/><circle class="cls-2" cx="65.763" cy="29.039" r=".96"/><path class="cls-2" d="M64.803,31.439c0-.528.432-.96.96-.96s.96.432.96.96-.432.96-.96.96-.96-.432-.96-.96Z"/><path class="cls-2" d="M64.803,33.839c0-.528.432-.96.96-.96s.96.432.96.96-.432.96-.96.96-.96-.432-.96-.96Z"/><circle class="cls-2" cx="65.763" cy="36.24" r=".96"/><path class="cls-2" d="M64.803,38.64c0-.528.432-.96.96-.96s.96.432.96.96-.432.96-.96.96-.96-.432-.96-.96Z"/><circle class="cls-2" cx="65.763" cy="41.04" r=".96"/><circle class="cls-2" cx="65.763" cy="43.44" r=".96"/><path class="cls-2" d="M64.803,45.84c0-.528.432-.96.96-.96s.96.432.96.96-.432.96-.96.96-.96-.432-.96-.96Z"/></svg>