<?xml version="1.0" encoding="UTF-8"?><svg id="Ebene_1" xmlns="http://www.w3.org/2000/svg" viewBox="0 0 100 50"><defs><style>.cls-1{fill:#fe0;}.cls-2{fill:#fff;}</style></defs><path class="cls-2" d="M0,28.709c0-.542.443-.985.984-.985s.985.443.985.985-.443.984-.985.984-.984-.443-.984-.984ZM0,36.093c0-.541.443-.984.984-.984s.985.443.985.984-.443.985-.985.985-.984-.443-.984-.985ZM0,38.554c0-.542.443-.984.984-.984s.985.443.985.984-.443.984-.985.984-.984-.443-.984-.984ZM2.461,26.248c0-.542.443-.984.984-.984s.984.443.984.984-.443.984-.984.984-.984-.443-.984-.984ZM2.461,28.709c0-.542.443-.985.984-.985s.984.443.984.985-.443.984-.984.984-.984-.443-.984-.984ZM2.461,33.632c0-.542.443-.984.984-.984s.984.443.984.984-.443.984-.984.984-.984-.443-.984-.984ZM2.461,36.093c0-.541.443-.984.984-.984s.984.443.984.984-.443.985-.984.985-.984-.443-.984-.985ZM2.461,38.554c0-.542.443-.984.984-.984s.984.443.984.984-.443.984-.984.984-.984-.443-.984-.984ZM2.461,41.016c0-.542.443-.985.984-.985s.984.443.984.985-.443.984-.984.984-.984-.443-.984-.984ZM4.922,26.248c0-.542.443-.984.985-.984s.984.443.984.984-.443.984-.984.984-.985-.443-.985-.984ZM4.922,33.632c0-.542.443-.984.985-.984s.984.443.984.984-.443.984-.984.984-.985-.443-.985-.984ZM4.922,41.016c0-.542.443-.985.985-.985s.984.443.984.985-.443.984-.984.984-.985-.443-.985-.984ZM7.384,26.248c0-.542.443-.984.984-.984s.984.443.984.984-.443.984-.984.984-.984-.443-.984-.984ZM7.384,33.632c0-.542.443-.984.984-.984s.984.443.984.984-.443.984-.984.984-.984-.443-.984-.984ZM7.384,41.016c0-.542.443-.985.984-.985s.984.443.984.985-.443.984-.984.984-.984-.443-.984-.984ZM9.845,26.248c0-.542.443-.984.984-.984s.984.443.984.984-.443.984-.984.984-.984-.443-.984-.984ZM9.845,28.709c0-.542.443-.985.984-.985s.984.443.984.985-.443.984-.984.984-.984-.443-.984-.984ZM9.845,31.17c0-.542.443-.984.984-.984s.984.443.984.984-.443.984-.984.984-.984-.443-.984-.984ZM9.845,33.632c0-.542.443-.984.984-.984s.984.443.984.984-.443.984-.984.984-.984-.443-.984-.984ZM9.845,36.093c0-.541.443-.984.984-.984s.984.443.984.984-.443.985-.984.985-.984-.443-.984-.985ZM9.845,38.554c0-.542.443-.984.984-.984s.984.443.984.984-.443.984-.984.984-.984-.443-.984-.984ZM12.306,28.709c0-.542.443-.985.984-.985s.985.443.985.985-.443.984-.985.984-.984-.443-.984-.984ZM12.306,31.17c0-.542.443-.984.984-.984s.985.443.985.984-.443.984-.985.984-.984-.443-.984-.984ZM12.306,33.632c0-.542.443-.984.984-.984s.985.443.985.984-.443.984-.985.984-.984-.443-.984-.984ZM12.306,36.093c0-.541.443-.984.984-.984s.985.443.985.984-.443.985-.985.985-.984-.443-.984-.985ZM12.306,38.554c0-.542.443-.984.984-.984s.985.443.985.984-.443.984-.985.984-.984-.443-.984-.984ZM12.306,41.016c0-.542.443-.985.984-.985s.985.443.985.985-.443.984-.985.984-.984-.443-.984-.984Z"/><path class="cls-2" d="M17.792,24.245c0-.528.432-.96.96-.96s.96.432.96.96-.432.96-.96.96-.96-.432-.96-.96ZM17.792,26.645c0-.528.432-.96.96-.96s.96.432.96.96-.432.96-.96.96-.96-.432-.96-.96ZM17.792,33.845c0-.528.432-.96.96-.96s.96.432.96.96-.432.96-.96.96-.96-.432-.96-.96ZM17.792,36.246c0-.528.432-.96.96-.96s.96.432.96.96-.432.96-.96.96-.96-.432-.96-.96ZM17.792,38.646c0-.528.432-.96.96-.96s.96.432.96.96-.432.96-.96.96-.96-.432-.96-.96ZM20.191,21.844c0-.528.432-.96.96-.96s.96.432.96.96-.432.96-.96.96-.96-.432-.96-.96ZM20.191,24.245c0-.528.432-.96.96-.96s.96.432.96.96-.432.96-.96.96-.96-.432-.96-.96ZM20.191,31.445c0-.528.432-.96.96-.96s.96.432.96.96-.432.96-.96.96-.96-.432-.96-.96ZM20.191,33.845c0-.528.432-.96.96-.96s.96.432.96.96-.432.96-.96.96-.96-.432-.96-.96ZM20.191,36.246c0-.528.432-.96.96-.96s.96.432.96.96-.432.96-.96.96-.96-.432-.96-.96ZM20.191,38.646c0-.528.432-.96.96-.96s.96.432.96.96-.432.96-.96.96-.96-.432-.96-.96ZM20.191,41.046c0-.528.432-.96.96-.96s.96.432.96.96-.432.96-.96.96-.96-.432-.96-.96ZM22.592,21.844c0-.528.432-.96.96-.96s.96.432.96.96-.432.96-.96.96-.96-.432-.96-.96ZM22.592,24.245c0-.528.432-.96.96-.96s.96.432.96.96-.432.96-.96.96-.96-.432-.96-.96ZM22.592,31.445c0-.528.432-.96.96-.96s.96.432.96.96-.432.96-.96.96-.96-.432-.96-.96ZM22.592,38.646c0-.528.432-.96.96-.96s.96.432.96.96-.432.96-.96.96-.96-.432-.96-.96ZM22.592,41.046c0-.528.432-.96.96-.96s.96.432.96.96-.432.96-.96.96-.96-.432-.96-.96ZM24.992,21.844c0-.528.432-.96.96-.96s.96.432.96.96-.432.96-.96.96-.96-.432-.96-.96ZM24.992,24.245c0-.528.432-.96.96-.96s.96.432.96.96-.432.96-.96.96-.96-.432-.96-.96ZM24.992,31.445c0-.528.432-.96.96-.96s.96.432.96.96-.432.96-.96.96-.96-.432-.96-.96ZM24.992,38.646c0-.528.432-.96.96-.96s.96.432.96.96-.432.96-.96.96-.96-.432-.96-.96ZM24.992,41.046c0-.528.432-.96.96-.96s.96.432.96.96-.432.96-.96.96-.96-.432-.96-.96ZM27.392,21.844c0-.528.432-.96.96-.96s.96.432.96.96-.432.96-.96.96-.96-.432-.96-.96ZM27.392,24.245c0-.528.432-.96.96-.96s.96.432.96.96-.432.96-.96.96-.96-.432-.96-.96ZM27.392,26.645c0-.528.432-.96.96-.96s.96.432.96.96-.432.96-.96.96-.96-.432-.96-.96ZM27.392,29.045c0-.528.432-.96.96-.96s.96.432.96.96-.432.96-.96.96-.96-.432-.96-.96ZM27.392,31.445c0-.528.432-.96.96-.96s.96.432.96.96-.432.96-.96.96-.96-.432-.96-.96ZM27.392,33.845c0-.528.432-.96.96-.96s.96.432.96.96-.432.96-.96.96-.96-.432-.96-.96ZM27.392,36.246c0-.528.432-.96.96-.96s.96.432.96.96-.432.96-.96.96-.96-.432-.96-.96ZM27.392,38.646c0-.528.432-.96.96-.96s.96.432.96.96-.432.96-.96.96-.96-.432-.96-.96ZM29.793,24.245c0-.528.432-.96.96-.96s.96.432.96.96-.432.96-.96.96-.96-.432-.96-.96ZM29.793,26.645c0-.528.432-.96.96-.96s.96.432.96.96-.432.96-.96.96-.96-.432-.96-.96ZM29.793,29.045c0-.528.432-.96.96-.96s.96.432.96.96-.432.96-.96.96-.96-.432-.96-.96ZM29.793,31.445c0-.528.432-.96.96-.96s.96.432.96.96-.432.96-.96.96-.96-.432-.96-.96ZM29.793,33.845c0-.528.432-.96.96-.96s.96.432.96.96-.432.96-.96.96-.96-.432-.96-.96ZM29.793,36.246c0-.528.432-.96.96-.96s.96.432.96.96-.432.96-.96.96-.96-.432-.96-.96ZM29.793,38.646c0-.528.432-.96.96-.96s.96.432.96.96-.432.96-.96.96-.96-.432-.96-.96ZM29.793,41.046c0-.528.432-.96.96-.96s.96.432.96.96-.432.96-.96.96-.96-.432-.96-.96Z"/><path class="cls-1" d="M35.089,16.868c0-.532.435-.967.967-.967s.967.435.967.967-.435.967-.967.967-.967-.435-.967-.967ZM35.089,19.285c0-.532.435-.967.967-.967s.967.435.967.967-.435.967-.967.967-.967-.435-.967-.967ZM35.089,31.37c0-.532.435-.967.967-.967s.967.435.967.967-.435.967-.967.967-.967-.435-.967-.967ZM35.089,33.787c0-.532.435-.967.967-.967s.967.435.967.967-.435.967-.967.967-.967-.435-.967-.967ZM35.089,36.204c0-.532.435-.967.967-.967s.967.435.967.967-.435.967-.967.967-.967-.435-.967-.967ZM35.089,38.621c0-.532.435-.967.967-.967s.967.435.967.967-.435.967-.967.967-.967-.435-.967-.967ZM37.506,14.451c0-.532.435-.967.967-.967s.967.435.967.967-.435.967-.967.967-.967-.435-.967-.967ZM37.506,16.868c0-.532.435-.967.967-.967s.967.435.967.967-.435.967-.967.967-.967-.435-.967-.967ZM37.506,19.285c0-.532.435-.967.967-.967s.967.435.967.967-.435.967-.967.967-.967-.435-.967-.967ZM37.506,28.953c0-.532.435-.967.967-.967s.967.435.967.967-.435.967-.967.967-.967-.435-.967-.967ZM37.506,31.37c0-.532.435-.967.967-.967s.967.435.967.967-.435.967-.967.967-.967-.435-.967-.967ZM37.506,33.787c0-.532.435-.967.967-.967s.967.435.967.967-.435.967-.967.967-.967-.435-.967-.967ZM37.506,36.204c0-.532.435-.967.967-.967s.967.435.967.967-.435.967-.967.967-.967-.435-.967-.967ZM37.506,38.621c0-.532.435-.967.967-.967s.967.435.967.967-.435.967-.967.967-.967-.435-.967-.967ZM37.506,41.038c0-.532.435-.967.967-.967s.967.435.967.967-.435.967-.967.967-.967-.435-.967-.967ZM39.923,14.451c0-.532.435-.967.967-.967s.967.435.967.967-.435.967-.967.967-.967-.435-.967-.967ZM39.923,16.868c0-.532.435-.967.967-.967s.967.435.967.967-.435.967-.967.967-.967-.435-.967-.967ZM39.923,26.536c0-.532.435-.967.967-.967s.967.435.967.967-.435.967-.967.967-.967-.435-.967-.967ZM39.923,28.953c0-.532.435-.967.967-.967s.967.435.967.967-.435.967-.967.967-.967-.435-.967-.967ZM39.923,31.37c0-.532.435-.967.967-.967s.967.435.967.967-.435.967-.967.967-.967-.435-.967-.967ZM39.923,38.621c0-.532.435-.967.967-.967s.967.435.967.967-.435.967-.967.967-.967-.435-.967-.967ZM39.923,41.038c0-.532.435-.967.967-.967s.967.435.967.967-.435.967-.967.967-.967-.435-.967-.967ZM42.34,14.451c0-.532.435-.967.967-.967s.967.435.967.967-.435.967-.967.967-.967-.435-.967-.967ZM42.34,16.868c0-.532.435-.967.967-.967s.967.435.967.967-.435.967-.967.967-.967-.435-.967-.967ZM42.34,26.536c0-.532.435-.967.967-.967s.967.435.967.967-.435.967-.967.967-.967-.435-.967-.967ZM42.34,28.953c0-.532.435-.967.967-.967s.967.435.967.967-.435.967-.967.967-.967-.435-.967-.967ZM42.34,38.621c0-.532.435-.967.967-.967s.967.435.967.967-.435.967-.967.967-.967-.435-.967-.967ZM42.34,41.038c0-.532.435-.967.967-.967s.967.435.967.967-.435.967-.967.967-.967-.435-.967-.967ZM44.757,14.451c0-.532.435-.967.967-.967s.967.435.967.967-.435.967-.967.967-.967-.435-.967-.967ZM44.757,16.868c0-.532.435-.967.967-.967s.967.435.967.967-.435.967-.967.967-.967-.435-.967-.967ZM44.757,26.536c0-.532.435-.967.967-.967s.967.435.967.967-.435.967-.967.967-.967-.435-.967-.967ZM44.757,28.953c0-.532.435-.967.967-.967s.967.435.967.967-.435.967-.967.967-.967-.435-.967-.967ZM44.757,38.621c0-.532.435-.967.967-.967s.967.435.967.967-.435.967-.967.967-.967-.435-.967-.967ZM44.757,41.038c0-.532.435-.967.967-.967s.967.435.967.967-.435.967-.967.967-.967-.435-.967-.967ZM47.174,14.451c0-.532.435-.967.967-.967s.967.435.967.967-.435.967-.967.967-.967-.435-.967-.967ZM47.174,16.868c0-.532.435-.967.967-.967s.967.435.967.967-.435.967-.967.967-.967-.435-.967-.967ZM47.174,19.285c0-.532.435-.967.967-.967s.967.435.967.967-.435.967-.967.967-.967-.435-.967-.967ZM47.174,26.536c0-.532.435-.967.967-.967s.967.435.967.967-.435.967-.967.967-.967-.435-.967-.967ZM47.174,28.953c0-.532.435-.967.967-.967s.967.435.967.967-.435.967-.967.967-.967-.435-.967-.967ZM47.174,38.621c0-.532.435-.967.967-.967s.967.435.967.967-.435.967-.967.967-.967-.435-.967-.967ZM49.591,16.868c0-.532.435-.967.967-.967s.967.435.967.967-.435.967-.967.967-.967-.435-.967-.967ZM49.591,19.285c0-.532.435-.967.967-.967s.967.435.967.967-.435.967-.967.967-.967-.435-.967-.967ZM49.591,21.702c0-.532.435-.967.967-.967s.967.435.967.967-.435.967-.967.967-.967-.435-.967-.967ZM49.591,24.119c0-.532.435-.967.967-.967s.967.435.967.967-.435.967-.967.967-.967-.435-.967-.967ZM49.591,26.536c0-.532.435-.967.967-.967s.967.435.967.967-.435.967-.967.967-.967-.435-.967-.967ZM49.591,28.953c0-.532.435-.967.967-.967s.967.435.967.967-.435.967-.967.967-.967-.435-.967-.967ZM49.591,31.37c0-.532.435-.967.967-.967s.967.435.967.967-.435.967-.967.967-.967-.435-.967-.967ZM49.591,33.787c0-.532.435-.967.967-.967s.967.435.967.967-.435.967-.967.967-.967-.435-.967-.967ZM49.591,36.204c0-.532.435-.967.967-.967s.967.435.967.967-.435.967-.967.967-.967-.435-.967-.967ZM49.591,38.621c0-.532.435-.967.967-.967s.967.435.967.967-.435.967-.967.967-.967-.435-.967-.967ZM49.591,41.038c0-.532.435-.967.967-.967s.967.435.967.967-.435.967-.967.967-.967-.435-.967-.967ZM52.008,19.285c0-.532.435-.967.967-.967s.967.435.967.967-.435.967-.967.967-.967-.435-.967-.967ZM52.008,21.702c0-.532.435-.967.967-.967s.967.435.967.967-.435.967-.967.967-.967-.435-.967-.967ZM52.008,24.119c0-.532.435-.967.967-.967s.967.435.967.967-.435.967-.967.967-.967-.435-.967-.967ZM52.008,26.536c0-.532.435-.967.967-.967s.967.435.967.967-.435.967-.967.967-.967-.435-.967-.967ZM52.008,28.953c0-.532.435-.967.967-.967s.967.435.967.967-.435.967-.967.967-.967-.435-.967-.967ZM52.008,31.37c0-.532.435-.967.967-.967s.967.435.967.967-.435.967-.967.967-.967-.435-.967-.967ZM52.008,33.787c0-.532.435-.967.967-.967s.967.435.967.967-.435.967-.967.967-.967-.435-.967-.967ZM52.008,36.204c0-.532.435-.967.967-.967s.967.435.967.967-.435.967-.967.967-.967-.435-.967-.967ZM52.008,38.621c0-.532.435-.967.967-.967s.967.435.967.967-.435.967-.967.967-.967-.435-.967-.967ZM52.008,41.038c0-.532.435-.967.967-.967s.967.435.967.967-.435.967-.967.967-.967-.435-.967-.967Z"/></svg>