<?xml version="1.0" encoding="UTF-8"?><svg id="Ebene_1" xmlns="http://www.w3.org/2000/svg" viewBox="0 0 100 50"><defs><style>.cls-1{fill:#fe0;}.cls-2{fill:#fff;}</style></defs><path class="cls-1" d="M0,4.581c0-.591.518-1.107,1.108-1.107s1.107.517,1.107,1.107-.517,1.107-1.107,1.107-1.108-.517-1.108-1.107ZM0,8.273c0-.591.518-1.107,1.108-1.107s1.107.517,1.107,1.107-.517,1.108-1.107,1.108-1.108-.518-1.108-1.108ZM0,11.967c0-.591.518-1.108,1.108-1.108s1.107.518,1.107,1.108-.517,1.107-1.107,1.107-1.108-.517-1.108-1.107ZM0,15.659c0-.591.518-1.108,1.108-1.108s1.107.518,1.107,1.108-.517,1.107-1.107,1.107-1.108-.517-1.108-1.107ZM0,19.352c0-.591.518-1.107,1.108-1.107s1.107.517,1.107,1.107-.517,1.107-1.107,1.107-1.108-.517-1.108-1.107ZM0,23.044c0-.591.518-1.107,1.108-1.107s1.107.517,1.107,1.107-.517,1.108-1.107,1.108-1.108-.518-1.108-1.108ZM0,26.737c0-.591.518-1.108,1.108-1.108s1.107.518,1.107,1.108-.517,1.107-1.107,1.107-1.108-.517-1.108-1.107ZM0,30.43c0-.591.518-1.108,1.108-1.108s1.107.518,1.107,1.108-.517,1.107-1.107,1.107-1.108-.517-1.108-1.107ZM0,34.122c0-.591.518-1.107,1.108-1.107s1.107.517,1.107,1.107-.517,1.107-1.107,1.107-1.108-.517-1.108-1.107ZM0,37.814c0-.591.518-1.107,1.108-1.107s1.107.517,1.107,1.107-.517,1.108-1.107,1.108-1.108-.518-1.108-1.108ZM0,41.508c0-.591.518-1.108,1.108-1.108s1.107.518,1.107,1.108-.517,1.107-1.107,1.107-1.108-.517-1.108-1.107ZM0,45.2c0-.591.518-1.108,1.108-1.108s1.107.518,1.107,1.108-.517,1.107-1.107,1.107-1.108-.517-1.108-1.107ZM0,48.893c0-.591.518-1.107,1.108-1.107s1.107.517,1.107,1.107-.517,1.107-1.107,1.107-1.108-.517-1.108-1.107Z"/><path class="cls-2" d="M3.692,4.581c0-.591.518-1.107,1.108-1.107s1.107.517,1.107,1.107-.517,1.107-1.107,1.107-1.108-.517-1.108-1.107ZM3.692,8.273c0-.591.518-1.107,1.108-1.107s1.107.517,1.107,1.107-.517,1.108-1.107,1.108-1.108-.518-1.108-1.108ZM3.692,11.967c0-.591.518-1.108,1.108-1.108s1.107.518,1.107,1.108-.517,1.107-1.107,1.107-1.108-.517-1.108-1.107ZM3.692,15.659c0-.591.518-1.108,1.108-1.108s1.107.518,1.107,1.108-.517,1.107-1.107,1.107-1.108-.517-1.108-1.107ZM3.692,19.352c0-.591.518-1.107,1.108-1.107s1.107.517,1.107,1.107-.517,1.107-1.107,1.107-1.108-.517-1.108-1.107ZM3.692,23.044c0-.591.518-1.107,1.108-1.107s1.107.517,1.107,1.107-.517,1.108-1.107,1.108-1.108-.518-1.108-1.108ZM3.692,26.737c0-.591.518-1.108,1.108-1.108s1.107.518,1.107,1.108-.517,1.107-1.107,1.107-1.108-.517-1.108-1.107ZM3.692,30.43c0-.591.518-1.108,1.108-1.108s1.107.518,1.107,1.108-.517,1.107-1.107,1.107-1.108-.517-1.108-1.107ZM3.692,34.122c0-.591.518-1.107,1.108-1.107s1.107.517,1.107,1.107-.517,1.107-1.107,1.107-1.108-.517-1.108-1.107ZM3.692,37.814c0-.591.518-1.107,1.108-1.107s1.107.517,1.107,1.107-.517,1.108-1.107,1.108-1.108-.518-1.108-1.108ZM3.692,41.508c0-.591.518-1.108,1.108-1.108s1.107.518,1.107,1.108-.517,1.107-1.107,1.107-1.108-.517-1.108-1.107ZM3.692,45.2c0-.591.518-1.108,1.108-1.108s1.107.518,1.107,1.108-.517,1.107-1.107,1.107-1.108-.517-1.108-1.107ZM3.692,48.893c0-.591.518-1.107,1.108-1.107s1.107.517,1.107,1.107-.517,1.107-1.107,1.107-1.108-.517-1.108-1.107Z"/><path class="cls-1" d="M7.385,4.581c0-.591.518-1.107,1.108-1.107s1.107.517,1.107,1.107-.517,1.107-1.107,1.107-1.108-.517-1.108-1.107ZM7.385,8.273c0-.591.518-1.107,1.108-1.107s1.107.517,1.107,1.107-.517,1.108-1.107,1.108-1.108-.518-1.108-1.108ZM7.385,11.967c0-.591.518-1.108,1.108-1.108s1.107.518,1.107,1.108-.517,1.107-1.107,1.107-1.108-.517-1.108-1.107ZM7.385,15.659c0-.591.518-1.108,1.108-1.108s1.107.518,1.107,1.108-.517,1.107-1.107,1.107-1.108-.517-1.108-1.107ZM7.385,19.352c0-.591.518-1.107,1.108-1.107s1.107.517,1.107,1.107-.517,1.107-1.107,1.107-1.108-.517-1.108-1.107ZM7.385,23.044c0-.591.518-1.107,1.108-1.107s1.107.517,1.107,1.107-.517,1.108-1.107,1.108-1.108-.518-1.108-1.108ZM7.385,26.737c0-.591.518-1.108,1.108-1.108s1.107.518,1.107,1.108-.517,1.107-1.107,1.107-1.108-.517-1.108-1.107ZM7.385,30.43c0-.591.518-1.108,1.108-1.108s1.107.518,1.107,1.108-.517,1.107-1.107,1.107-1.108-.517-1.108-1.107ZM7.385,34.122c0-.591.518-1.107,1.108-1.107s1.107.517,1.107,1.107-.517,1.107-1.107,1.107-1.108-.517-1.108-1.107ZM7.385,37.814c0-.591.518-1.107,1.108-1.107s1.107.517,1.107,1.107-.517,1.108-1.107,1.108-1.108-.518-1.108-1.108ZM7.385,41.508c0-.591.518-1.108,1.108-1.108s1.107.518,1.107,1.108-.517,1.107-1.107,1.107-1.108-.517-1.108-1.107ZM7.385,45.2c0-.591.518-1.108,1.108-1.108s1.107.518,1.107,1.108-.517,1.107-1.107,1.107-1.108-.517-1.108-1.107ZM7.385,48.893c0-.591.518-1.107,1.108-1.107s1.107.517,1.107,1.107-.517,1.107-1.107,1.107-1.108-.517-1.108-1.107Z"/><path class="cls-2" d="M11.076,4.581c0-.591.518-1.107,1.108-1.107s1.107.517,1.107,1.107-.517,1.107-1.107,1.107-1.108-.517-1.108-1.107ZM11.076,8.273c0-.591.518-1.107,1.108-1.107s1.107.517,1.107,1.107-.517,1.108-1.107,1.108-1.108-.518-1.108-1.108ZM11.076,11.967c0-.591.518-1.108,1.108-1.108s1.107.518,1.107,1.108-.517,1.107-1.107,1.107-1.108-.517-1.108-1.107ZM11.076,15.659c0-.591.518-1.108,1.108-1.108s1.107.518,1.107,1.108-.517,1.107-1.107,1.107-1.108-.517-1.108-1.107ZM11.076,19.352c0-.591.518-1.107,1.108-1.107s1.107.517,1.107,1.107-.517,1.107-1.107,1.107-1.108-.517-1.108-1.107ZM11.076,23.044c0-.591.518-1.107,1.108-1.107s1.107.517,1.107,1.107-.517,1.108-1.107,1.108-1.108-.518-1.108-1.108ZM11.076,26.737c0-.591.518-1.108,1.108-1.108s1.107.518,1.107,1.108-.517,1.107-1.107,1.107-1.108-.517-1.108-1.107ZM11.076,30.43c0-.591.518-1.108,1.108-1.108s1.107.518,1.107,1.108-.517,1.107-1.107,1.107-1.108-.517-1.108-1.107ZM11.076,34.122c0-.591.518-1.107,1.108-1.107s1.107.517,1.107,1.107-.517,1.107-1.107,1.107-1.108-.517-1.108-1.107ZM11.076,37.814c0-.591.518-1.107,1.108-1.107s1.107.517,1.107,1.107-.517,1.108-1.107,1.108-1.108-.518-1.108-1.108ZM11.076,41.508c0-.591.518-1.108,1.108-1.108s1.107.518,1.107,1.108-.517,1.107-1.107,1.107-1.108-.517-1.108-1.107ZM11.076,45.2c0-.591.518-1.108,1.108-1.108s1.107.518,1.107,1.108-.517,1.107-1.107,1.107-1.108-.517-1.108-1.107ZM11.076,48.893c0-.591.518-1.107,1.108-1.107s1.107.517,1.107,1.107-.517,1.107-1.107,1.107-1.108-.517-1.108-1.107Z"/><path class="cls-1" d="M14.769,4.581c0-.591.518-1.107,1.108-1.107s1.107.517,1.107,1.107-.517,1.107-1.107,1.107-1.108-.517-1.108-1.107ZM14.769,8.273c0-.591.518-1.107,1.108-1.107s1.107.517,1.107,1.107-.517,1.108-1.107,1.108-1.108-.518-1.108-1.108ZM14.769,11.967c0-.591.518-1.108,1.108-1.108s1.107.518,1.107,1.108-.517,1.107-1.107,1.107-1.108-.517-1.108-1.107ZM14.769,15.659c0-.591.518-1.108,1.108-1.108s1.107.518,1.107,1.108-.517,1.107-1.107,1.107-1.108-.517-1.108-1.107ZM14.769,19.352c0-.591.518-1.107,1.108-1.107s1.107.517,1.107,1.107-.517,1.107-1.107,1.107-1.108-.517-1.108-1.107ZM14.769,23.044c0-.591.518-1.107,1.108-1.107s1.107.517,1.107,1.107-.517,1.108-1.107,1.108-1.108-.518-1.108-1.108ZM14.769,26.737c0-.591.518-1.108,1.108-1.108s1.107.518,1.107,1.108-.517,1.107-1.107,1.107-1.108-.517-1.108-1.107ZM14.769,30.43c0-.591.518-1.108,1.108-1.108s1.107.518,1.107,1.108-.517,1.107-1.107,1.107-1.108-.517-1.108-1.107ZM14.769,34.122c0-.591.518-1.107,1.108-1.107s1.107.517,1.107,1.107-.517,1.107-1.107,1.107-1.108-.517-1.108-1.107ZM14.769,37.814c0-.591.518-1.107,1.108-1.107s1.107.517,1.107,1.107-.517,1.108-1.107,1.108-1.108-.518-1.108-1.108ZM14.769,41.508c0-.591.518-1.108,1.108-1.108s1.107.518,1.107,1.108-.517,1.107-1.107,1.107-1.108-.517-1.108-1.107ZM14.769,45.2c0-.591.518-1.108,1.108-1.108s1.107.518,1.107,1.108-.517,1.107-1.107,1.107-1.108-.517-1.108-1.107ZM14.769,48.893c0-.591.518-1.107,1.108-1.107s1.107.517,1.107,1.107-.517,1.107-1.107,1.107-1.108-.517-1.108-1.107Z"/><path class="cls-2" d="M18.461,4.581c0-.591.518-1.107,1.108-1.107s1.107.517,1.107,1.107-.517,1.107-1.107,1.107-1.108-.517-1.108-1.107ZM18.461,8.273c0-.591.518-1.107,1.108-1.107s1.107.517,1.107,1.107-.517,1.108-1.107,1.108-1.108-.518-1.108-1.108ZM18.461,11.967c0-.591.518-1.108,1.108-1.108s1.107.518,1.107,1.108-.517,1.107-1.107,1.107-1.108-.517-1.108-1.107ZM18.461,15.659c0-.591.518-1.108,1.108-1.108s1.107.518,1.107,1.108-.517,1.107-1.107,1.107-1.108-.517-1.108-1.107ZM18.461,19.352c0-.591.518-1.107,1.108-1.107s1.107.517,1.107,1.107-.517,1.107-1.107,1.107-1.108-.517-1.108-1.107ZM18.461,23.044c0-.591.518-1.107,1.108-1.107s1.107.517,1.107,1.107-.517,1.108-1.107,1.108-1.108-.518-1.108-1.108ZM18.461,26.737c0-.591.518-1.108,1.108-1.108s1.107.518,1.107,1.108-.517,1.107-1.107,1.107-1.108-.517-1.108-1.107ZM18.461,30.43c0-.591.518-1.108,1.108-1.108s1.107.518,1.107,1.108-.517,1.107-1.107,1.107-1.108-.517-1.108-1.107ZM18.461,34.122c0-.591.518-1.107,1.108-1.107s1.107.517,1.107,1.107-.517,1.107-1.107,1.107-1.108-.517-1.108-1.107ZM18.461,37.814c0-.591.518-1.107,1.108-1.107s1.107.517,1.107,1.107-.517,1.108-1.107,1.108-1.108-.518-1.108-1.108ZM18.461,41.508c0-.591.518-1.108,1.108-1.108s1.107.518,1.107,1.108-.517,1.107-1.107,1.107-1.108-.517-1.108-1.107ZM18.461,45.2c0-.591.518-1.108,1.108-1.108s1.107.518,1.107,1.108-.517,1.107-1.107,1.107-1.108-.517-1.108-1.107ZM18.461,48.893c0-.591.518-1.107,1.108-1.107s1.107.517,1.107,1.107-.517,1.107-1.107,1.107-1.108-.517-1.108-1.107Z"/><path class="cls-1" d="M22.152,4.581c0-.591.518-1.107,1.108-1.107s1.107.517,1.107,1.107-.517,1.107-1.107,1.107-1.108-.517-1.108-1.107ZM22.152,8.273c0-.591.518-1.107,1.108-1.107s1.107.517,1.107,1.107-.517,1.108-1.107,1.108-1.108-.518-1.108-1.108ZM22.152,11.967c0-.591.518-1.108,1.108-1.108s1.107.518,1.107,1.108-.517,1.107-1.107,1.107-1.108-.517-1.108-1.107ZM22.152,15.659c0-.591.518-1.108,1.108-1.108s1.107.518,1.107,1.108-.517,1.107-1.107,1.107-1.108-.517-1.108-1.107ZM22.152,19.352c0-.591.518-1.107,1.108-1.107s1.107.517,1.107,1.107-.517,1.107-1.107,1.107-1.108-.517-1.108-1.107ZM22.152,23.044c0-.591.518-1.107,1.108-1.107s1.107.517,1.107,1.107-.517,1.108-1.107,1.108-1.108-.518-1.108-1.108ZM22.152,26.737c0-.591.518-1.108,1.108-1.108s1.107.518,1.107,1.108-.517,1.107-1.107,1.107-1.108-.517-1.108-1.107ZM22.152,30.43c0-.591.518-1.108,1.108-1.108s1.107.518,1.107,1.108-.517,1.107-1.107,1.107-1.108-.517-1.108-1.107ZM22.152,34.122c0-.591.518-1.107,1.108-1.107s1.107.517,1.107,1.107-.517,1.107-1.107,1.107-1.108-.517-1.108-1.107ZM22.152,37.814c0-.591.518-1.107,1.108-1.107s1.107.517,1.107,1.107-.517,1.108-1.107,1.108-1.108-.518-1.108-1.108ZM22.152,41.508c0-.591.518-1.108,1.108-1.108s1.107.518,1.107,1.108-.517,1.107-1.107,1.107-1.108-.517-1.108-1.107ZM22.152,45.2c0-.591.518-1.108,1.108-1.108s1.107.518,1.107,1.108-.517,1.107-1.107,1.107-1.108-.517-1.108-1.107ZM22.152,48.893c0-.591.518-1.107,1.108-1.107s1.107.517,1.107,1.107-.517,1.107-1.107,1.107-1.108-.517-1.108-1.107Z"/><path class="cls-2" d="M25.845,4.581c0-.591.518-1.107,1.108-1.107s1.107.517,1.107,1.107-.517,1.107-1.107,1.107-1.108-.517-1.108-1.107ZM25.845,8.273c0-.591.518-1.107,1.108-1.107s1.107.517,1.107,1.107-.517,1.108-1.107,1.108-1.108-.518-1.108-1.108ZM25.845,11.967c0-.591.518-1.108,1.108-1.108s1.107.518,1.107,1.108-.517,1.107-1.107,1.107-1.108-.517-1.108-1.107ZM25.845,15.659c0-.591.518-1.108,1.108-1.108s1.107.518,1.107,1.108-.517,1.107-1.107,1.107-1.108-.517-1.108-1.107ZM25.845,19.352c0-.591.518-1.107,1.108-1.107s1.107.517,1.107,1.107-.517,1.107-1.107,1.107-1.108-.517-1.108-1.107ZM25.845,23.044c0-.591.518-1.107,1.108-1.107s1.107.517,1.107,1.107-.517,1.108-1.107,1.108-1.108-.518-1.108-1.108ZM25.845,26.737c0-.591.518-1.108,1.108-1.108s1.107.518,1.107,1.108-.517,1.107-1.107,1.107-1.108-.517-1.108-1.107ZM25.845,30.43c0-.591.518-1.108,1.108-1.108s1.107.518,1.107,1.108-.517,1.107-1.107,1.107-1.108-.517-1.108-1.107ZM25.845,34.122c0-.591.518-1.107,1.108-1.107s1.107.517,1.107,1.107-.517,1.107-1.107,1.107-1.108-.517-1.108-1.107ZM25.845,37.814c0-.591.518-1.107,1.108-1.107s1.107.517,1.107,1.107-.517,1.108-1.107,1.108-1.108-.518-1.108-1.108ZM25.845,41.508c0-.591.518-1.108,1.108-1.108s1.107.518,1.107,1.108-.517,1.107-1.107,1.107-1.108-.517-1.108-1.107ZM25.845,45.2c0-.591.518-1.108,1.108-1.108s1.107.518,1.107,1.108-.517,1.107-1.107,1.107-1.108-.517-1.108-1.107ZM25.845,48.893c0-.591.518-1.107,1.108-1.107s1.107.517,1.107,1.107-.517,1.107-1.107,1.107-1.108-.517-1.108-1.107Z"/><path class="cls-1" d="M29.537,4.581c0-.591.518-1.107,1.108-1.107s1.107.517,1.107,1.107-.517,1.107-1.107,1.107-1.108-.517-1.108-1.107ZM29.537,8.273c0-.591.518-1.107,1.108-1.107s1.107.517,1.107,1.107-.517,1.108-1.107,1.108-1.108-.518-1.108-1.108ZM29.537,11.967c0-.591.518-1.108,1.108-1.108s1.107.518,1.107,1.108-.517,1.107-1.107,1.107-1.108-.517-1.108-1.107ZM29.537,15.659c0-.591.518-1.108,1.108-1.108s1.107.518,1.107,1.108-.517,1.107-1.107,1.107-1.108-.517-1.108-1.107ZM29.537,19.352c0-.591.518-1.107,1.108-1.107s1.107.517,1.107,1.107-.517,1.107-1.107,1.107-1.108-.517-1.108-1.107ZM29.537,23.044c0-.591.518-1.107,1.108-1.107s1.107.517,1.107,1.107-.517,1.108-1.107,1.108-1.108-.518-1.108-1.108ZM29.537,26.737c0-.591.518-1.108,1.108-1.108s1.107.518,1.107,1.108-.517,1.107-1.107,1.107-1.108-.517-1.108-1.107ZM29.537,30.43c0-.591.518-1.108,1.108-1.108s1.107.518,1.107,1.108-.517,1.107-1.107,1.107-1.108-.517-1.108-1.107ZM29.537,34.122c0-.591.518-1.107,1.108-1.107s1.107.517,1.107,1.107-.517,1.107-1.107,1.107-1.108-.517-1.108-1.107ZM29.537,37.814c0-.591.518-1.107,1.108-1.107s1.107.517,1.107,1.107-.517,1.108-1.107,1.108-1.108-.518-1.108-1.108ZM29.537,41.508c0-.591.518-1.108,1.108-1.108s1.107.518,1.107,1.108-.517,1.107-1.107,1.107-1.108-.517-1.108-1.107ZM29.537,45.2c0-.591.518-1.108,1.108-1.108s1.107.518,1.107,1.108-.517,1.107-1.107,1.107-1.108-.517-1.108-1.107ZM29.537,48.893c0-.591.518-1.107,1.108-1.107s1.107.517,1.107,1.107-.517,1.107-1.107,1.107-1.108-.517-1.108-1.107Z"/><path class="cls-2" d="M33.229,4.581c0-.591.518-1.107,1.108-1.107s1.107.517,1.107,1.107-.517,1.107-1.107,1.107-1.108-.517-1.108-1.107ZM33.229,8.273c0-.591.518-1.107,1.108-1.107s1.107.517,1.107,1.107-.517,1.108-1.107,1.108-1.108-.518-1.108-1.108ZM33.229,11.967c0-.591.518-1.108,1.108-1.108s1.107.518,1.107,1.108-.517,1.107-1.107,1.107-1.108-.517-1.108-1.107ZM33.229,15.659c0-.591.518-1.108,1.108-1.108s1.107.518,1.107,1.108-.517,1.107-1.107,1.107-1.108-.517-1.108-1.107ZM33.229,19.352c0-.591.518-1.107,1.108-1.107s1.107.517,1.107,1.107-.517,1.107-1.107,1.107-1.108-.517-1.108-1.107ZM33.229,23.044c0-.591.518-1.107,1.108-1.107s1.107.517,1.107,1.107-.517,1.108-1.107,1.108-1.108-.518-1.108-1.108ZM33.229,26.737c0-.591.518-1.108,1.108-1.108s1.107.518,1.107,1.108-.517,1.107-1.107,1.107-1.108-.517-1.108-1.107ZM33.229,30.43c0-.591.518-1.108,1.108-1.108s1.107.518,1.107,1.108-.517,1.107-1.107,1.107-1.108-.517-1.108-1.107ZM33.229,34.122c0-.591.518-1.107,1.108-1.107s1.107.517,1.107,1.107-.517,1.107-1.107,1.107-1.108-.517-1.108-1.107ZM33.229,37.814c0-.591.518-1.107,1.108-1.107s1.107.517,1.107,1.107-.517,1.108-1.107,1.108-1.108-.518-1.108-1.108ZM33.229,41.508c0-.591.518-1.108,1.108-1.108s1.107.518,1.107,1.108-.517,1.107-1.107,1.107-1.108-.517-1.108-1.107ZM33.229,45.2c0-.591.518-1.108,1.108-1.108s1.107.518,1.107,1.108-.517,1.107-1.107,1.107-1.108-.517-1.108-1.107ZM33.229,48.893c0-.591.518-1.107,1.108-1.107s1.107.517,1.107,1.107-.517,1.107-1.107,1.107-1.108-.517-1.108-1.107Z"/><path class="cls-1" d="M36.922,4.581c0-.591.518-1.107,1.108-1.107s1.107.517,1.107,1.107-.517,1.107-1.107,1.107-1.108-.517-1.108-1.107ZM36.922,8.273c0-.591.518-1.107,1.108-1.107s1.107.517,1.107,1.107-.517,1.108-1.107,1.108-1.108-.518-1.108-1.108ZM36.922,11.967c0-.591.518-1.108,1.108-1.108s1.107.518,1.107,1.108-.517,1.107-1.107,1.107-1.108-.517-1.108-1.107ZM36.922,15.659c0-.591.518-1.108,1.108-1.108s1.107.518,1.107,1.108-.517,1.107-1.107,1.107-1.108-.517-1.108-1.107ZM36.922,19.352c0-.591.518-1.107,1.108-1.107s1.107.517,1.107,1.107-.517,1.107-1.107,1.107-1.108-.517-1.108-1.107ZM36.922,23.044c0-.591.518-1.107,1.108-1.107s1.107.517,1.107,1.107-.517,1.108-1.107,1.108-1.108-.518-1.108-1.108ZM36.922,26.737c0-.591.518-1.108,1.108-1.108s1.107.518,1.107,1.108-.517,1.107-1.107,1.107-1.108-.517-1.108-1.107ZM36.922,30.43c0-.591.518-1.108,1.108-1.108s1.107.518,1.107,1.108-.517,1.107-1.107,1.107-1.108-.517-1.108-1.107ZM36.922,34.122c0-.591.518-1.107,1.108-1.107s1.107.517,1.107,1.107-.517,1.107-1.107,1.107-1.108-.517-1.108-1.107ZM36.922,37.814c0-.591.518-1.107,1.108-1.107s1.107.517,1.107,1.107-.517,1.108-1.107,1.108-1.108-.518-1.108-1.108ZM36.922,41.508c0-.591.518-1.108,1.108-1.108s1.107.518,1.107,1.108-.517,1.107-1.107,1.107-1.108-.517-1.108-1.107ZM36.922,45.2c0-.591.518-1.108,1.108-1.108s1.107.518,1.107,1.108-.517,1.107-1.107,1.107-1.108-.517-1.108-1.107ZM36.922,48.893c0-.591.518-1.107,1.108-1.107s1.107.517,1.107,1.107-.517,1.107-1.107,1.107-1.108-.517-1.108-1.107Z"/><path class="cls-2" d="M40.613,4.581c0-.591.518-1.107,1.108-1.107s1.107.517,1.107,1.107-.517,1.107-1.107,1.107-1.108-.517-1.108-1.107ZM40.613,8.273c0-.591.518-1.107,1.108-1.107s1.107.517,1.107,1.107-.517,1.108-1.107,1.108-1.108-.518-1.108-1.108ZM40.613,11.967c0-.591.518-1.108,1.108-1.108s1.107.518,1.107,1.108-.517,1.107-1.107,1.107-1.108-.517-1.108-1.107ZM40.613,15.659c0-.591.518-1.108,1.108-1.108s1.107.518,1.107,1.108-.517,1.107-1.107,1.107-1.108-.517-1.108-1.107ZM40.613,19.352c0-.591.518-1.107,1.108-1.107s1.107.517,1.107,1.107-.517,1.107-1.107,1.107-1.108-.517-1.108-1.107ZM40.613,23.044c0-.591.518-1.107,1.108-1.107s1.107.517,1.107,1.107-.517,1.108-1.107,1.108-1.108-.518-1.108-1.108ZM40.613,26.737c0-.591.518-1.108,1.108-1.108s1.107.518,1.107,1.108-.517,1.107-1.107,1.107-1.108-.517-1.108-1.107ZM40.613,30.43c0-.591.518-1.108,1.108-1.108s1.107.518,1.107,1.108-.517,1.107-1.107,1.107-1.108-.517-1.108-1.107ZM40.613,34.122c0-.591.518-1.107,1.108-1.107s1.107.517,1.107,1.107-.517,1.107-1.107,1.107-1.108-.517-1.108-1.107ZM40.613,37.814c0-.591.518-1.107,1.108-1.107s1.107.517,1.107,1.107-.517,1.108-1.107,1.108-1.108-.518-1.108-1.108ZM40.613,41.508c0-.591.518-1.108,1.108-1.108s1.107.518,1.107,1.108-.517,1.107-1.107,1.107-1.108-.517-1.108-1.107ZM40.613,45.2c0-.591.518-1.108,1.108-1.108s1.107.518,1.107,1.108-.517,1.107-1.107,1.107-1.108-.517-1.108-1.107ZM40.613,48.893c0-.591.518-1.107,1.108-1.107s1.107.517,1.107,1.107-.517,1.107-1.107,1.107-1.108-.517-1.108-1.107Z"/><path class="cls-1" d="M44.306,4.581c0-.591.518-1.107,1.108-1.107s1.107.517,1.107,1.107-.517,1.107-1.107,1.107-1.108-.517-1.108-1.107ZM44.306,8.273c0-.591.518-1.107,1.108-1.107s1.107.517,1.107,1.107-.517,1.108-1.107,1.108-1.108-.518-1.108-1.108ZM44.306,11.967c0-.591.518-1.108,1.108-1.108s1.107.518,1.107,1.108-.517,1.107-1.107,1.107-1.108-.517-1.108-1.107ZM44.306,15.659c0-.591.518-1.108,1.108-1.108s1.107.518,1.107,1.108-.517,1.107-1.107,1.107-1.108-.517-1.108-1.107ZM44.306,19.352c0-.591.518-1.107,1.108-1.107s1.107.517,1.107,1.107-.517,1.107-1.107,1.107-1.108-.517-1.108-1.107ZM44.306,23.044c0-.591.518-1.107,1.108-1.107s1.107.517,1.107,1.107-.517,1.108-1.107,1.108-1.108-.518-1.108-1.108ZM44.306,26.737c0-.591.518-1.108,1.108-1.108s1.107.518,1.107,1.108-.517,1.107-1.107,1.107-1.108-.517-1.108-1.107ZM44.306,30.43c0-.591.518-1.108,1.108-1.108s1.107.518,1.107,1.108-.517,1.107-1.107,1.107-1.108-.517-1.108-1.107ZM44.306,34.122c0-.591.518-1.107,1.108-1.107s1.107.517,1.107,1.107-.517,1.107-1.107,1.107-1.108-.517-1.108-1.107ZM44.306,37.814c0-.591.518-1.107,1.108-1.107s1.107.517,1.107,1.107-.517,1.108-1.107,1.108-1.108-.518-1.108-1.108ZM44.306,41.508c0-.591.518-1.108,1.108-1.108s1.107.518,1.107,1.108-.517,1.107-1.107,1.107-1.108-.517-1.108-1.107ZM44.306,45.2c0-.591.518-1.108,1.108-1.108s1.107.518,1.107,1.108-.517,1.107-1.107,1.107-1.108-.517-1.108-1.107ZM44.306,48.893c0-.591.518-1.107,1.108-1.107s1.107.517,1.107,1.107-.517,1.107-1.107,1.107-1.108-.517-1.108-1.107Z"/><path class="cls-2" d="M47.998,4.581c0-.591.518-1.107,1.108-1.107s1.107.517,1.107,1.107-.517,1.107-1.107,1.107-1.108-.517-1.108-1.107ZM47.998,8.273c0-.591.518-1.107,1.108-1.107s1.107.517,1.107,1.107-.517,1.108-1.107,1.108-1.108-.518-1.108-1.108ZM47.998,11.967c0-.591.518-1.108,1.108-1.108s1.107.518,1.107,1.108-.517,1.107-1.107,1.107-1.108-.517-1.108-1.107ZM47.998,15.659c0-.591.518-1.108,1.108-1.108s1.107.518,1.107,1.108-.517,1.107-1.107,1.107-1.108-.517-1.108-1.107ZM47.998,19.352c0-.591.518-1.107,1.108-1.107s1.107.517,1.107,1.107-.517,1.107-1.107,1.107-1.108-.517-1.108-1.107ZM47.998,23.044c0-.591.518-1.107,1.108-1.107s1.107.517,1.107,1.107-.517,1.108-1.107,1.108-1.108-.518-1.108-1.108ZM47.998,26.737c0-.591.518-1.108,1.108-1.108s1.107.518,1.107,1.108-.517,1.107-1.107,1.107-1.108-.517-1.108-1.107ZM47.998,30.43c0-.591.518-1.108,1.108-1.108s1.107.518,1.107,1.108-.517,1.107-1.107,1.107-1.108-.517-1.108-1.107ZM47.998,34.122c0-.591.518-1.107,1.108-1.107s1.107.517,1.107,1.107-.517,1.107-1.107,1.107-1.108-.517-1.108-1.107ZM47.998,37.814c0-.591.518-1.107,1.108-1.107s1.107.517,1.107,1.107-.517,1.108-1.107,1.108-1.108-.518-1.108-1.108ZM47.998,41.508c0-.591.518-1.108,1.108-1.108s1.107.518,1.107,1.108-.517,1.107-1.107,1.107-1.108-.517-1.108-1.107ZM47.998,45.2c0-.591.518-1.108,1.108-1.108s1.107.518,1.107,1.108-.517,1.107-1.107,1.107-1.108-.517-1.108-1.107ZM47.998,48.893c0-.591.518-1.107,1.108-1.107s1.107.517,1.107,1.107-.517,1.107-1.107,1.107-1.108-.517-1.108-1.107Z"/><path class="cls-1" d="M51.689,4.581c0-.591.518-1.107,1.108-1.107s1.107.517,1.107,1.107-.517,1.107-1.107,1.107-1.108-.517-1.108-1.107ZM51.689,8.273c0-.591.518-1.107,1.108-1.107s1.107.517,1.107,1.107-.517,1.108-1.107,1.108-1.108-.518-1.108-1.108ZM51.689,11.967c0-.591.518-1.108,1.108-1.108s1.107.518,1.107,1.108-.517,1.107-1.107,1.107-1.108-.517-1.108-1.107ZM51.689,15.659c0-.591.518-1.108,1.108-1.108s1.107.518,1.107,1.108-.517,1.107-1.107,1.107-1.108-.517-1.108-1.107ZM51.689,19.352c0-.591.518-1.107,1.108-1.107s1.107.517,1.107,1.107-.517,1.107-1.107,1.107-1.108-.517-1.108-1.107ZM51.689,23.044c0-.591.518-1.107,1.108-1.107s1.107.517,1.107,1.107-.517,1.108-1.107,1.108-1.108-.518-1.108-1.108ZM51.689,26.737c0-.591.518-1.108,1.108-1.108s1.107.518,1.107,1.108-.517,1.107-1.107,1.107-1.108-.517-1.108-1.107ZM51.689,30.43c0-.591.518-1.108,1.108-1.108s1.107.518,1.107,1.108-.517,1.107-1.107,1.107-1.108-.517-1.108-1.107ZM51.689,34.122c0-.591.518-1.107,1.108-1.107s1.107.517,1.107,1.107-.517,1.107-1.107,1.107-1.108-.517-1.108-1.107ZM51.689,37.814c0-.591.518-1.107,1.108-1.107s1.107.517,1.107,1.107-.517,1.108-1.107,1.108-1.108-.518-1.108-1.108ZM51.689,41.508c0-.591.518-1.108,1.108-1.108s1.107.518,1.107,1.108-.517,1.107-1.107,1.107-1.108-.517-1.108-1.107ZM51.689,45.2c0-.591.518-1.108,1.108-1.108s1.107.518,1.107,1.108-.517,1.107-1.107,1.107-1.108-.517-1.108-1.107ZM51.689,48.893c0-.591.518-1.107,1.108-1.107s1.107.517,1.107,1.107-.517,1.107-1.107,1.107-1.108-.517-1.108-1.107Z"/><path class="cls-2" d="M55.382,4.581c0-.591.518-1.107,1.108-1.107s1.107.517,1.107,1.107-.517,1.107-1.107,1.107-1.108-.517-1.108-1.107ZM55.382,8.273c0-.591.518-1.107,1.108-1.107s1.107.517,1.107,1.107-.517,1.108-1.107,1.108-1.108-.518-1.108-1.108ZM55.382,11.967c0-.591.518-1.108,1.108-1.108s1.107.518,1.107,1.108-.517,1.107-1.107,1.107-1.108-.517-1.108-1.107ZM55.382,15.659c0-.591.518-1.108,1.108-1.108s1.107.518,1.107,1.108-.517,1.107-1.107,1.107-1.108-.517-1.108-1.107ZM55.382,19.352c0-.591.518-1.107,1.108-1.107s1.107.517,1.107,1.107-.517,1.107-1.107,1.107-1.108-.517-1.108-1.107ZM55.382,23.044c0-.591.518-1.107,1.108-1.107s1.107.517,1.107,1.107-.517,1.108-1.107,1.108-1.108-.518-1.108-1.108ZM55.382,26.737c0-.591.518-1.108,1.108-1.108s1.107.518,1.107,1.108-.517,1.107-1.107,1.107-1.108-.517-1.108-1.107ZM55.382,30.43c0-.591.518-1.108,1.108-1.108s1.107.518,1.107,1.108-.517,1.107-1.107,1.107-1.108-.517-1.108-1.107ZM55.382,34.122c0-.591.518-1.107,1.108-1.107s1.107.517,1.107,1.107-.517,1.107-1.107,1.107-1.108-.517-1.108-1.107ZM55.382,37.814c0-.591.518-1.107,1.108-1.107s1.107.517,1.107,1.107-.517,1.108-1.107,1.108-1.108-.518-1.108-1.108ZM55.382,41.508c0-.591.518-1.108,1.108-1.108s1.107.518,1.107,1.108-.517,1.107-1.107,1.107-1.108-.517-1.108-1.107ZM55.382,45.2c0-.591.518-1.108,1.108-1.108s1.107.518,1.107,1.108-.517,1.107-1.107,1.107-1.108-.517-1.108-1.107ZM55.382,48.893c0-.591.518-1.107,1.108-1.107s1.107.517,1.107,1.107-.517,1.107-1.107,1.107-1.108-.517-1.108-1.107Z"/><path class="cls-1" d="M59.074,4.581c0-.591.518-1.107,1.108-1.107s1.107.517,1.107,1.107-.517,1.107-1.107,1.107-1.108-.517-1.108-1.107ZM59.074,8.273c0-.591.518-1.107,1.108-1.107s1.107.517,1.107,1.107-.517,1.108-1.107,1.108-1.108-.518-1.108-1.108ZM59.074,11.967c0-.591.518-1.108,1.108-1.108s1.107.518,1.107,1.108-.517,1.107-1.107,1.107-1.108-.517-1.108-1.107ZM59.074,15.659c0-.591.518-1.108,1.108-1.108s1.107.518,1.107,1.108-.517,1.107-1.107,1.107-1.108-.517-1.108-1.107ZM59.074,19.352c0-.591.518-1.107,1.108-1.107s1.107.517,1.107,1.107-.517,1.107-1.107,1.107-1.108-.517-1.108-1.107ZM59.074,23.044c0-.591.518-1.107,1.108-1.107s1.107.517,1.107,1.107-.517,1.108-1.107,1.108-1.108-.518-1.108-1.108ZM59.074,26.737c0-.591.518-1.108,1.108-1.108s1.107.518,1.107,1.108-.517,1.107-1.107,1.107-1.108-.517-1.108-1.107ZM59.074,30.43c0-.591.518-1.108,1.108-1.108s1.107.518,1.107,1.108-.517,1.107-1.107,1.107-1.108-.517-1.108-1.107ZM59.074,34.122c0-.591.518-1.107,1.108-1.107s1.107.517,1.107,1.107-.517,1.107-1.107,1.107-1.108-.517-1.108-1.107ZM59.074,37.814c0-.591.518-1.107,1.108-1.107s1.107.517,1.107,1.107-.517,1.108-1.107,1.108-1.108-.518-1.108-1.108ZM59.074,41.508c0-.591.518-1.108,1.108-1.108s1.107.518,1.107,1.108-.517,1.107-1.107,1.107-1.108-.517-1.108-1.107ZM59.074,45.2c0-.591.518-1.108,1.108-1.108s1.107.518,1.107,1.108-.517,1.107-1.107,1.107-1.108-.517-1.108-1.107ZM59.074,48.893c0-.591.518-1.107,1.108-1.107s1.107.517,1.107,1.107-.517,1.107-1.107,1.107-1.108-.517-1.108-1.107Z"/><path class="cls-2" d="M62.767,4.581c0-.591.518-1.107,1.108-1.107s1.107.517,1.107,1.107-.517,1.107-1.107,1.107-1.108-.517-1.108-1.107ZM62.767,8.273c0-.591.518-1.107,1.108-1.107s1.107.517,1.107,1.107-.517,1.108-1.107,1.108-1.108-.518-1.108-1.108ZM62.767,11.967c0-.591.518-1.108,1.108-1.108s1.107.518,1.107,1.108-.517,1.107-1.107,1.107-1.108-.517-1.108-1.107ZM62.767,15.659c0-.591.518-1.108,1.108-1.108s1.107.518,1.107,1.108-.517,1.107-1.107,1.107-1.108-.517-1.108-1.107ZM62.767,19.352c0-.591.518-1.107,1.108-1.107s1.107.517,1.107,1.107-.517,1.107-1.107,1.107-1.108-.517-1.108-1.107ZM62.767,23.044c0-.591.518-1.107,1.108-1.107s1.107.517,1.107,1.107-.517,1.108-1.107,1.108-1.108-.518-1.108-1.108ZM62.767,26.737c0-.591.518-1.108,1.108-1.108s1.107.518,1.107,1.108-.517,1.107-1.107,1.107-1.108-.517-1.108-1.107ZM62.767,30.43c0-.591.518-1.108,1.108-1.108s1.107.518,1.107,1.108-.517,1.107-1.107,1.107-1.108-.517-1.108-1.107ZM62.767,34.122c0-.591.518-1.107,1.108-1.107s1.107.517,1.107,1.107-.517,1.107-1.107,1.107-1.108-.517-1.108-1.107ZM62.767,37.814c0-.591.518-1.107,1.108-1.107s1.107.517,1.107,1.107-.517,1.108-1.107,1.108-1.108-.518-1.108-1.108ZM62.767,41.508c0-.591.518-1.108,1.108-1.108s1.107.518,1.107,1.108-.517,1.107-1.107,1.107-1.108-.517-1.108-1.107ZM62.767,45.2c0-.591.518-1.108,1.108-1.108s1.107.518,1.107,1.108-.517,1.107-1.107,1.107-1.108-.517-1.108-1.107ZM62.767,48.893c0-.591.518-1.107,1.108-1.107s1.107.517,1.107,1.107-.517,1.107-1.107,1.107-1.108-.517-1.108-1.107Z"/><path class="cls-1" d="M66.459,4.581c0-.591.518-1.107,1.108-1.107s1.107.517,1.107,1.107-.517,1.107-1.107,1.107-1.108-.517-1.108-1.107ZM66.459,8.273c0-.591.518-1.107,1.108-1.107s1.107.517,1.107,1.107-.517,1.108-1.107,1.108-1.108-.518-1.108-1.108ZM66.459,11.967c0-.591.518-1.108,1.108-1.108s1.107.518,1.107,1.108-.517,1.107-1.107,1.107-1.108-.517-1.108-1.107ZM66.459,15.659c0-.591.518-1.108,1.108-1.108s1.107.518,1.107,1.108-.517,1.107-1.107,1.107-1.108-.517-1.108-1.107ZM66.459,19.352c0-.591.518-1.107,1.108-1.107s1.107.517,1.107,1.107-.517,1.107-1.107,1.107-1.108-.517-1.108-1.107ZM66.459,23.044c0-.591.518-1.107,1.108-1.107s1.107.517,1.107,1.107-.517,1.108-1.107,1.108-1.108-.518-1.108-1.108ZM66.459,26.737c0-.591.518-1.108,1.108-1.108s1.107.518,1.107,1.108-.517,1.107-1.107,1.107-1.108-.517-1.108-1.107ZM66.459,30.43c0-.591.518-1.108,1.108-1.108s1.107.518,1.107,1.108-.517,1.107-1.107,1.107-1.108-.517-1.108-1.107ZM66.459,34.122c0-.591.518-1.107,1.108-1.107s1.107.517,1.107,1.107-.517,1.107-1.107,1.107-1.108-.517-1.108-1.107ZM66.459,37.814c0-.591.518-1.107,1.108-1.107s1.107.517,1.107,1.107-.517,1.108-1.107,1.108-1.108-.518-1.108-1.108ZM66.459,41.508c0-.591.518-1.108,1.108-1.108s1.107.518,1.107,1.108-.517,1.107-1.107,1.107-1.108-.517-1.108-1.107ZM66.459,45.2c0-.591.518-1.108,1.108-1.108s1.107.518,1.107,1.108-.517,1.107-1.107,1.107-1.108-.517-1.108-1.107ZM66.459,48.893c0-.591.518-1.107,1.108-1.107s1.107.517,1.107,1.107-.517,1.107-1.107,1.107-1.108-.517-1.108-1.107Z"/><path class="cls-2" d="M70.15,4.581c0-.591.518-1.107,1.108-1.107s1.107.517,1.107,1.107-.517,1.107-1.107,1.107-1.108-.517-1.108-1.107ZM70.15,8.273c0-.591.518-1.107,1.108-1.107s1.107.517,1.107,1.107-.517,1.108-1.107,1.108-1.108-.518-1.108-1.108ZM70.15,11.967c0-.591.518-1.108,1.108-1.108s1.107.518,1.107,1.108-.517,1.107-1.107,1.107-1.108-.517-1.108-1.107ZM70.15,15.659c0-.591.518-1.108,1.108-1.108s1.107.518,1.107,1.108-.517,1.107-1.107,1.107-1.108-.517-1.108-1.107ZM70.15,19.352c0-.591.518-1.107,1.108-1.107s1.107.517,1.107,1.107-.517,1.107-1.107,1.107-1.108-.517-1.108-1.107ZM70.15,23.044c0-.591.518-1.107,1.108-1.107s1.107.517,1.107,1.107-.517,1.108-1.107,1.108-1.108-.518-1.108-1.108ZM70.15,26.737c0-.591.518-1.108,1.108-1.108s1.107.518,1.107,1.108-.517,1.107-1.107,1.107-1.108-.517-1.108-1.107ZM70.15,30.43c0-.591.518-1.108,1.108-1.108s1.107.518,1.107,1.108-.517,1.107-1.107,1.107-1.108-.517-1.108-1.107ZM70.15,34.122c0-.591.518-1.107,1.108-1.107s1.107.517,1.107,1.107-.517,1.107-1.107,1.107-1.108-.517-1.108-1.107ZM70.15,37.814c0-.591.518-1.107,1.108-1.107s1.107.517,1.107,1.107-.517,1.108-1.107,1.108-1.108-.518-1.108-1.108ZM70.15,41.508c0-.591.518-1.108,1.108-1.108s1.107.518,1.107,1.108-.517,1.107-1.107,1.107-1.108-.517-1.108-1.107ZM70.15,45.2c0-.591.518-1.108,1.108-1.108s1.107.518,1.107,1.108-.517,1.107-1.107,1.107-1.108-.517-1.108-1.107ZM70.15,48.893c0-.591.518-1.107,1.108-1.107s1.107.517,1.107,1.107-.517,1.107-1.107,1.107-1.108-.517-1.108-1.107Z"/></svg>