<?xml version="1.0" encoding="UTF-8"?><svg id="Ebene_1" xmlns="http://www.w3.org/2000/svg" viewBox="0 0 100 50"><defs><style>.cls-1{fill:#fe0;}.cls-2{fill:#fff;}</style></defs><path class="cls-2" d="M0,12.238c0-.528.432-.961.96-.961s.96.433.96.961-.432.96-.96.96-.96-.433-.96-.96ZM0,14.638c0-.527.432-.96.96-.96s.96.433.96.96-.432.961-.96.961-.96-.433-.96-.961ZM0,17.038c0-.528.432-.96.96-.96s.96.432.96.96-.432.96-.96.96-.96-.432-.96-.96ZM0,19.438c0-.528.432-.96.96-.96s.96.432.96.96-.432.96-.96.96-.96-.432-.96-.96ZM0,21.839c0-.528.432-.96.96-.96s.96.432.96.96-.432.96-.96.96-.96-.432-.96-.96ZM0,24.239c0-.528.432-.96.96-.96s.96.432.96.96-.432.96-.96.96-.96-.433-.96-.96ZM0,26.639c0-.527.432-.96.96-.96s.96.433.96.96-.432.961-.96.961-.96-.433-.96-.961ZM0,29.039c0-.527.432-.96.96-.96s.96.433.96.96-.432.96-.96.96-.96-.432-.96-.96ZM0,31.439c0-.528.432-.96.96-.96s.96.432.96.96-.432.96-.96.96-.96-.432-.96-.96ZM0,33.84c0-.528.432-.96.96-.96s.96.432.96.96-.432.96-.96.96-.96-.432-.96-.96ZM0,36.24c0-.528.432-.96.96-.96s.96.432.96.96-.432.96-.96.96-.96-.433-.96-.96ZM0,38.641c0-.528.432-.961.96-.961s.96.433.96.961-.432.96-.96.96-.96-.433-.96-.96ZM0,41.04c0-.527.432-.96.96-.96s.96.433.96.96-.432.96-.96.96-.96-.432-.96-.96ZM2.4,12.238c0-.528.432-.961.96-.961s.96.433.96.961-.432.96-.96.96-.96-.433-.96-.96ZM2.4,14.638c0-.527.432-.96.96-.96s.96.433.96.96-.432.961-.96.961-.96-.433-.96-.961ZM2.4,17.038c0-.528.432-.96.96-.96s.96.432.96.96-.432.96-.96.96-.96-.432-.96-.96ZM2.4,19.438c0-.528.432-.96.96-.96s.96.432.96.96-.432.96-.96.96-.96-.432-.96-.96ZM2.4,21.839c0-.528.432-.96.96-.96s.96.432.96.96-.432.96-.96.96-.96-.432-.96-.96ZM2.4,24.239c0-.528.432-.96.96-.96s.96.432.96.96-.432.96-.96.96-.96-.433-.96-.96ZM2.4,26.639c0-.527.432-.96.96-.96s.96.433.96.96-.432.961-.96.961-.96-.433-.96-.961ZM2.4,29.039c0-.527.432-.96.96-.96s.96.433.96.96-.432.96-.96.96-.96-.432-.96-.96ZM2.4,31.439c0-.528.432-.96.96-.96s.96.432.96.96-.432.96-.96.96-.96-.432-.96-.96ZM2.4,33.84c0-.528.432-.96.96-.96s.96.432.96.96-.432.96-.96.96-.96-.432-.96-.96ZM2.4,36.24c0-.528.432-.96.96-.96s.96.432.96.96-.432.96-.96.96-.96-.433-.96-.96ZM2.4,38.641c0-.528.432-.961.96-.961s.96.433.96.961-.432.96-.96.96-.96-.433-.96-.96ZM2.4,41.04c0-.527.432-.96.96-.96s.96.433.96.96-.432.96-.96.96-.96-.432-.96-.96ZM4.8,17.038c0-.528.432-.96.96-.96s.96.432.96.96-.432.96-.96.96-.96-.432-.96-.96ZM4.8,19.438c0-.528.432-.96.96-.96s.96.432.96.96-.432.96-.96.96-.96-.432-.96-.96ZM4.8,21.839c0-.528.432-.96.96-.96s.96.432.96.96-.432.96-.96.96-.96-.432-.96-.96ZM4.8,24.239c0-.528.432-.96.96-.96s.96.432.96.96-.432.96-.96.96-.96-.433-.96-.96ZM7.2,21.839c0-.528.432-.96.96-.96s.96.432.96.96-.432.96-.96.96-.96-.432-.96-.96ZM7.2,24.239c0-.528.432-.96.96-.96s.96.432.96.96-.432.96-.96.96-.96-.433-.96-.96ZM7.2,26.639c0-.527.432-.96.96-.96s.96.433.96.96-.432.961-.96.961-.96-.433-.96-.961ZM7.2,29.039c0-.527.432-.96.96-.96s.96.433.96.96-.432.96-.96.96-.96-.432-.96-.96ZM9.601,26.639c0-.527.432-.96.96-.96s.96.433.96.96-.432.961-.96.961-.96-.433-.96-.961ZM9.601,29.039c0-.527.432-.96.96-.96s.96.433.96.96-.432.96-.96.96-.96-.432-.96-.96ZM9.601,31.439c0-.528.432-.96.96-.96s.96.432.96.96-.432.96-.96.96-.96-.432-.96-.96ZM9.601,33.84c0-.528.432-.96.96-.96s.96.432.96.96-.432.96-.96.96-.96-.432-.96-.96ZM12.001,12.238c0-.528.432-.961.96-.961s.96.433.96.961-.432.96-.96.96-.96-.433-.96-.96ZM12.001,14.638c0-.527.432-.96.96-.96s.96.433.96.96-.432.961-.96.961-.96-.433-.96-.961ZM12.001,17.038c0-.528.432-.96.96-.96s.96.432.96.96-.432.96-.96.96-.96-.432-.96-.96ZM12.001,19.438c0-.528.432-.96.96-.96s.96.432.96.96-.432.96-.96.96-.96-.432-.96-.96ZM12.001,21.839c0-.528.432-.96.96-.96s.96.432.96.96-.432.96-.96.96-.96-.432-.96-.96ZM12.001,24.239c0-.528.432-.96.96-.96s.96.432.96.96-.432.96-.96.96-.96-.433-.96-.96ZM12.001,26.639c0-.527.432-.96.96-.96s.96.433.96.96-.432.961-.96.961-.96-.433-.96-.961ZM12.001,29.039c0-.527.432-.96.96-.96s.96.433.96.96-.432.96-.96.96-.96-.432-.96-.96ZM12.001,31.439c0-.528.432-.96.96-.96s.96.432.96.96-.432.96-.96.96-.96-.432-.96-.96ZM12.001,33.84c0-.528.432-.96.96-.96s.96.432.96.96-.432.96-.96.96-.96-.432-.96-.96ZM12.001,36.24c0-.528.432-.96.96-.96s.96.432.96.96-.432.96-.96.96-.96-.433-.96-.96ZM12.001,38.641c0-.528.432-.961.96-.961s.96.433.96.961-.432.96-.96.96-.96-.433-.96-.96ZM12.001,41.04c0-.527.432-.96.96-.96s.96.433.96.96-.432.96-.96.96-.96-.432-.96-.96ZM14.401,12.238c0-.528.432-.961.96-.961s.96.433.96.961-.432.96-.96.96-.96-.433-.96-.96ZM14.401,14.638c0-.527.432-.96.96-.96s.96.433.96.96-.432.961-.96.961-.96-.433-.96-.961ZM14.401,17.038c0-.528.432-.96.96-.96s.96.432.96.96-.432.96-.96.96-.96-.432-.96-.96ZM14.401,19.438c0-.528.432-.96.96-.96s.96.432.96.96-.432.96-.96.96-.96-.432-.96-.96ZM14.401,21.839c0-.528.432-.96.96-.96s.96.432.96.96-.432.96-.96.96-.96-.432-.96-.96ZM14.401,24.239c0-.528.432-.96.96-.96s.96.432.96.96-.432.96-.96.96-.96-.433-.96-.96ZM14.401,26.639c0-.527.432-.96.96-.96s.96.433.96.96-.432.961-.96.961-.96-.433-.96-.961ZM14.401,29.039c0-.527.432-.96.96-.96s.96.433.96.96-.432.96-.96.96-.96-.432-.96-.96ZM14.401,31.439c0-.528.432-.96.96-.96s.96.432.96.96-.432.96-.96.96-.96-.432-.96-.96ZM14.401,33.84c0-.528.432-.96.96-.96s.96.432.96.96-.432.96-.96.96-.96-.432-.96-.96ZM14.401,36.24c0-.528.432-.96.96-.96s.96.432.96.96-.432.96-.96.96-.96-.433-.96-.96ZM14.401,38.641c0-.528.432-.961.96-.961s.96.433.96.961-.432.96-.96.96-.96-.433-.96-.96ZM14.401,41.04c0-.527.432-.96.96-.96s.96.433.96.96-.432.96-.96.96-.96-.432-.96-.96Z"/><path class="cls-1" d="M19.2,36.24c0-.528.432-.96.96-.96s.96.432.96.96-.432.96-.96.96-.96-.433-.96-.96ZM21.6,33.84c0-.528.432-.96.96-.96s.96.432.96.96-.432.96-.96.96-.96-.432-.96-.96ZM21.6,36.24c0-.528.432-.96.96-.96s.96.432.96.96-.432.96-.96.96-.96-.433-.96-.96ZM21.6,38.641c0-.528.432-.961.96-.961s.96.433.96.961-.432.96-.96.96-.96-.433-.96-.96ZM24,21.839c0-.528.432-.96.96-.96s.96.432.96.96-.432.96-.96.96-.96-.432-.96-.96ZM24,31.439c0-.528.432-.96.96-.96s.96.432.96.96-.432.96-.96.96-.96-.432-.96-.96ZM24,33.84c0-.528.432-.96.96-.96s.96.432.96.96-.432.96-.96.96-.96-.432-.96-.96ZM24,36.24c0-.528.432-.96.96-.96s.96.432.96.96-.432.96-.96.96-.96-.433-.96-.96ZM24,38.641c0-.528.432-.961.96-.961s.96.433.96.961-.432.96-.96.96-.96-.433-.96-.96ZM24,41.04c0-.527.432-.96.96-.96s.96.433.96.96-.432.96-.96.96-.96-.432-.96-.96ZM26.4,21.839c0-.528.432-.96.96-.96s.96.432.96.96-.432.96-.96.96-.96-.432-.96-.96ZM26.4,24.239c0-.528.432-.96.96-.96s.96.432.96.96-.432.96-.96.96-.96-.433-.96-.96ZM26.4,29.039c0-.527.432-.96.96-.96s.96.433.96.96-.432.96-.96.96-.96-.432-.96-.96ZM26.4,31.439c0-.528.432-.96.96-.96s.96.432.96.96-.432.96-.96.96-.96-.432-.96-.96ZM26.4,33.84c0-.528.432-.96.96-.96s.96.432.96.96-.432.96-.96.96-.96-.432-.96-.96ZM26.4,36.24c0-.528.432-.96.96-.96s.96.432.96.96-.432.96-.96.96-.96-.433-.96-.96ZM26.4,38.641c0-.528.432-.961.96-.961s.96.433.96.961-.432.96-.96.96-.96-.433-.96-.96ZM28.8,21.839c0-.528.432-.96.96-.96s.96.432.96.96-.432.96-.96.96-.96-.432-.96-.96ZM28.8,24.239c0-.528.432-.96.96-.96s.96.432.96.96-.432.96-.96.96-.96-.433-.96-.96ZM28.8,26.639c0-.527.432-.96.96-.96s.96.433.96.96-.432.961-.96.961-.96-.433-.96-.961ZM28.8,29.039c0-.527.432-.96.96-.96s.96.433.96.96-.432.96-.96.96-.96-.432-.96-.96ZM28.8,31.439c0-.528.432-.96.96-.96s.96.432.96.96-.432.96-.96.96-.96-.432-.96-.96ZM28.8,33.84c0-.528.432-.96.96-.96s.96.432.96.96-.432.96-.96.96-.96-.432-.96-.96ZM28.8,36.24c0-.528.432-.96.96-.96s.96.432.96.96-.432.96-.96.96-.96-.433-.96-.96ZM31.201,21.839c0-.528.432-.96.96-.96s.96.432.96.96-.432.96-.96.96-.96-.432-.96-.96ZM31.201,24.239c0-.528.432-.96.96-.96s.96.432.96.96-.432.96-.96.96-.96-.433-.96-.96ZM31.201,26.639c0-.527.432-.96.96-.96s.96.433.96.96-.432.961-.96.961-.96-.433-.96-.961ZM31.201,29.039c0-.527.432-.96.96-.96s.96.433.96.96-.432.96-.96.96-.96-.432-.96-.96ZM31.201,31.439c0-.528.432-.96.96-.96s.96.432.96.96-.432.96-.96.96-.96-.432-.96-.96ZM31.201,33.84c0-.528.432-.96.96-.96s.96.432.96.96-.432.96-.96.96-.96-.432-.96-.96ZM33.601,21.839c0-.528.432-.96.96-.96s.96.432.96.96-.432.96-.96.96-.96-.432-.96-.96ZM33.601,24.239c0-.528.432-.96.96-.96s.96.432.96.96-.432.96-.96.96-.96-.433-.96-.96ZM33.601,26.639c0-.527.432-.96.96-.96s.96.433.96.96-.432.961-.96.961-.96-.433-.96-.961ZM33.601,29.039c0-.527.432-.96.96-.96s.96.433.96.96-.432.96-.96.96-.96-.432-.96-.96ZM33.601,31.439c0-.528.432-.96.96-.96s.96.432.96.96-.432.96-.96.96-.96-.432-.96-.96ZM36.001,21.839c0-.528.432-.96.96-.96s.96.432.96.96-.432.96-.96.96-.96-.432-.96-.96ZM36.001,24.239c0-.528.432-.96.96-.96s.96.432.96.96-.432.96-.96.96-.96-.433-.96-.96ZM36.001,26.639c0-.527.432-.96.96-.96s.96.433.96.96-.432.961-.96.961-.96-.433-.96-.961ZM36.001,29.039c0-.527.432-.96.96-.96s.96.433.96.96-.432.96-.96.96-.96-.432-.96-.96ZM36.001,31.439c0-.528.432-.96.96-.96s.96.432.96.96-.432.96-.96.96-.96-.432-.96-.96ZM36.001,33.84c0-.528.432-.96.96-.96s.96.432.96.96-.432.96-.96.96-.96-.432-.96-.96ZM38.401,21.839c0-.528.432-.96.96-.96s.96.432.96.96-.432.96-.96.96-.96-.432-.96-.96ZM38.401,24.239c0-.528.432-.96.96-.96s.96.432.96.96-.432.96-.96.96-.96-.433-.96-.96ZM38.401,26.639c0-.527.432-.96.96-.96s.96.433.96.96-.432.961-.96.961-.96-.433-.96-.961ZM38.401,29.039c0-.527.432-.96.96-.96s.96.433.96.96-.432.96-.96.96-.96-.432-.96-.96ZM38.401,31.439c0-.528.432-.96.96-.96s.96.432.96.96-.432.96-.96.96-.96-.432-.96-.96ZM38.401,33.84c0-.528.432-.96.96-.96s.96.432.96.96-.432.96-.96.96-.96-.432-.96-.96ZM38.401,36.24c0-.528.432-.96.96-.96s.96.432.96.96-.432.96-.96.96-.96-.433-.96-.96Z"/><path class="cls-1" d="M43.2,21.839c0-.528.432-.96.96-.96s.96.432.96.96-.432.96-.96.96-.96-.432-.96-.96ZM43.2,24.239c0-.528.432-.96.96-.96s.96.432.96.96-.432.96-.96.96-.96-.433-.96-.96ZM43.2,26.639c0-.527.432-.96.96-.96s.96.433.96.96-.432.961-.96.961-.96-.433-.96-.961ZM43.2,29.039c0-.527.432-.96.96-.96s.96.433.96.96-.432.96-.96.96-.96-.432-.96-.96ZM43.2,31.439c0-.528.432-.96.96-.96s.96.432.96.96-.432.96-.96.96-.96-.432-.96-.96ZM43.2,33.84c0-.528.432-.96.96-.96s.96.432.96.96-.432.96-.96.96-.96-.432-.96-.96ZM43.2,36.24c0-.528.432-.96.96-.96s.96.432.96.96-.432.96-.96.96-.96-.433-.96-.96ZM43.2,38.641c0-.528.432-.961.96-.961s.96.433.96.961-.432.96-.96.96-.96-.433-.96-.96ZM43.2,41.04c0-.527.432-.96.96-.96s.96.433.96.96-.432.96-.96.96-.96-.432-.96-.96ZM45.6,19.438c0-.528.432-.96.96-.96s.96.432.96.96-.432.96-.96.96-.96-.432-.96-.96ZM45.6,21.839c0-.528.432-.96.96-.96s.96.432.96.96-.432.96-.96.96-.96-.432-.96-.96ZM45.6,24.239c0-.528.432-.96.96-.96s.96.432.96.96-.432.96-.96.96-.96-.433-.96-.96ZM45.6,26.639c0-.527.432-.96.96-.96s.96.433.96.96-.432.961-.96.961-.96-.433-.96-.961ZM45.6,29.039c0-.527.432-.96.96-.96s.96.433.96.96-.432.96-.96.96-.96-.432-.96-.96ZM45.6,31.439c0-.528.432-.96.96-.96s.96.432.96.96-.432.96-.96.96-.96-.432-.96-.96ZM45.6,33.84c0-.528.432-.96.96-.96s.96.432.96.96-.432.96-.96.96-.96-.432-.96-.96ZM45.6,36.24c0-.528.432-.96.96-.96s.96.432.96.96-.432.96-.96.96-.96-.433-.96-.96ZM45.6,38.641c0-.528.432-.961.96-.961s.96.433.96.961-.432.96-.96.96-.96-.433-.96-.96ZM45.6,41.04c0-.527.432-.96.96-.96s.96.433.96.96-.432.96-.96.96-.96-.432-.96-.96ZM45.6,43.44c0-.528.432-.96.96-.96s.96.432.96.96-.432.96-.96.96-.96-.432-.96-.96ZM48,17.038c0-.528.432-.96.96-.96s.96.432.96.96-.432.96-.96.96-.96-.432-.96-.96ZM48,19.438c0-.528.432-.96.96-.96s.96.432.96.96-.432.96-.96.96-.96-.432-.96-.96ZM48,43.44c0-.528.432-.96.96-.96s.96.432.96.96-.432.96-.96.96-.96-.432-.96-.96ZM48,45.841c0-.528.432-.96.96-.96s.96.432.96.96-.432.96-.96.96-.96-.432-.96-.96ZM50.4,14.638c0-.527.432-.96.96-.96s.96.433.96.96-.432.961-.96.961-.96-.433-.96-.961ZM50.4,17.038c0-.528.432-.96.96-.96s.96.432.96.96-.432.96-.96.96-.96-.432-.96-.96ZM50.4,24.239c0-.528.432-.96.96-.96s.96.432.96.96-.432.96-.96.96-.96-.433-.96-.96ZM50.4,26.639c0-.527.432-.96.96-.96s.96.433.96.96-.432.961-.96.961-.96-.433-.96-.961ZM50.4,33.84c0-.528.432-.96.96-.96s.96.432.96.96-.432.96-.96.96-.96-.432-.96-.96ZM50.4,36.24c0-.528.432-.96.96-.96s.96.432.96.96-.432.96-.96.96-.96-.433-.96-.96ZM50.4,38.641c0-.528.432-.961.96-.961s.96.433.96.961-.432.96-.96.96-.96-.433-.96-.96ZM50.4,45.841c0-.528.432-.96.96-.96s.96.432.96.96-.432.96-.96.96-.96-.432-.96-.96ZM50.4,48.241c0-.528.432-.96.96-.96s.96.432.96.96-.432.96-.96.96-.96-.433-.96-.96ZM52.8,14.638c0-.527.432-.96.96-.96s.96.433.96.96-.432.961-.96.961-.96-.433-.96-.961ZM52.8,17.038c0-.528.432-.96.96-.96s.96.432.96.96-.432.96-.96.96-.96-.432-.96-.96ZM52.8,21.839c0-.528.432-.96.96-.96s.96.432.96.96-.432.96-.96.96-.96-.432-.96-.96ZM52.8,24.239c0-.528.432-.96.96-.96s.96.432.96.96-.432.96-.96.96-.96-.433-.96-.96ZM52.8,31.439c0-.528.432-.96.96-.96s.96.432.96.96-.432.96-.96.96-.96-.432-.96-.96ZM52.8,33.84c0-.528.432-.96.96-.96s.96.432.96.96-.432.96-.96.96-.96-.432-.96-.96ZM52.8,36.24c0-.528.432-.96.96-.96s.96.432.96.96-.432.96-.96.96-.96-.433-.96-.96ZM52.8,38.641c0-.528.432-.961.96-.961s.96.433.96.961-.432.96-.96.96-.96-.433-.96-.96ZM52.8,41.04c0-.527.432-.96.96-.96s.96.433.96.96-.432.96-.96.96-.96-.432-.96-.96ZM52.8,45.841c0-.528.432-.96.96-.96s.96.432.96.96-.432.96-.96.96-.96-.432-.96-.96ZM52.8,48.241c0-.528.432-.96.96-.96s.96.432.96.96-.432.96-.96.96-.96-.433-.96-.96ZM55.201,14.638c0-.527.432-.96.96-.96s.96.433.96.96-.432.961-.96.961-.96-.433-.96-.961ZM55.201,17.038c0-.528.432-.96.96-.96s.96.432.96.96-.432.96-.96.96-.96-.432-.96-.96ZM55.201,21.839c0-.528.432-.96.96-.96s.96.432.96.96-.432.96-.96.96-.96-.432-.96-.96ZM55.201,24.239c0-.528.432-.96.96-.96s.96.432.96.96-.432.96-.96.96-.96-.433-.96-.96ZM55.201,31.439c0-.528.432-.96.96-.96s.96.432.96.96-.432.96-.96.96-.96-.432-.96-.96ZM55.201,38.641c0-.528.432-.961.96-.961s.96.433.96.961-.432.96-.96.96-.96-.433-.96-.96ZM55.201,41.04c0-.527.432-.96.96-.96s.96.433.96.96-.432.96-.96.96-.96-.432-.96-.96ZM55.201,45.841c0-.528.432-.96.96-.96s.96.432.96.96-.432.96-.96.96-.96-.432-.96-.96ZM55.201,48.241c0-.528.432-.96.96-.96s.96.432.96.96-.432.96-.96.96-.96-.433-.96-.96ZM57.601,14.638c0-.527.432-.96.96-.96s.96.433.96.96-.432.961-.96.961-.96-.433-.96-.961ZM57.601,17.038c0-.528.432-.96.96-.96s.96.432.96.96-.432.96-.96.96-.96-.432-.96-.96ZM57.601,21.839c0-.528.432-.96.96-.96s.96.432.96.96-.432.96-.96.96-.96-.432-.96-.96ZM57.601,24.239c0-.528.432-.96.96-.96s.96.432.96.96-.432.96-.96.96-.96-.433-.96-.96ZM57.601,31.439c0-.528.432-.96.96-.96s.96.432.96.96-.432.96-.96.96-.96-.432-.96-.96ZM57.601,38.641c0-.528.432-.961.96-.961s.96.433.96.961-.432.96-.96.96-.96-.433-.96-.96ZM57.601,41.04c0-.527.432-.96.96-.96s.96.433.96.96-.432.96-.96.96-.96-.432-.96-.96ZM57.601,45.841c0-.528.432-.96.96-.96s.96.432.96.96-.432.96-.96.96-.96-.432-.96-.96ZM57.601,48.241c0-.528.432-.96.96-.96s.96.432.96.96-.432.96-.96.96-.96-.433-.96-.96ZM60.001,14.638c0-.527.432-.96.96-.96s.96.433.96.96-.432.961-.96.961-.96-.433-.96-.961ZM60.001,17.038c0-.528.432-.96.96-.96s.96.432.96.96-.432.96-.96.96-.96-.432-.96-.96ZM60.001,21.839c0-.528.432-.96.96-.96s.96.432.96.96-.432.96-.96.96-.96-.432-.96-.96ZM60.001,24.239c0-.528.432-.96.96-.96s.96.432.96.96-.432.96-.96.96-.96-.433-.96-.96ZM60.001,26.639c0-.527.432-.96.96-.96s.96.433.96.96-.432.961-.96.961-.96-.433-.96-.961ZM60.001,29.039c0-.527.432-.96.96-.96s.96.433.96.96-.432.96-.96.96-.96-.432-.96-.96ZM60.001,31.439c0-.528.432-.96.96-.96s.96.432.96.96-.432.96-.96.96-.96-.432-.96-.96ZM60.001,33.84c0-.528.432-.96.96-.96s.96.432.96.96-.432.96-.96.96-.96-.432-.96-.96ZM60.001,36.24c0-.528.432-.96.96-.96s.96.432.96.96-.432.96-.96.96-.96-.433-.96-.96ZM60.001,38.641c0-.528.432-.961.96-.961s.96.433.96.961-.432.96-.96.96-.96-.433-.96-.96ZM60.001,45.841c0-.528.432-.96.96-.96s.96.432.96.96-.432.96-.96.96-.96-.432-.96-.96ZM60.001,48.241c0-.528.432-.96.96-.96s.96.432.96.96-.432.96-.96.96-.96-.433-.96-.96ZM62.401,14.638c0-.527.432-.96.96-.96s.96.433.96.96-.432.961-.96.961-.96-.433-.96-.961ZM62.401,17.038c0-.528.432-.96.96-.96s.96.432.96.96-.432.96-.96.96-.96-.432-.96-.96ZM62.401,24.239c0-.528.432-.96.96-.96s.96.432.96.96-.432.96-.96.96-.96-.433-.96-.96ZM62.401,26.639c0-.527.432-.96.96-.96s.96.433.96.96-.432.961-.96.961-.96-.433-.96-.961ZM62.401,29.039c0-.527.432-.96.96-.96s.96.433.96.96-.432.96-.96.96-.96-.432-.96-.96ZM62.401,31.439c0-.528.432-.96.96-.96s.96.432.96.96-.432.96-.96.96-.96-.432-.96-.96ZM62.401,33.84c0-.528.432-.96.96-.96s.96.432.96.96-.432.96-.96.96-.96-.432-.96-.96ZM62.401,36.24c0-.528.432-.96.96-.96s.96.432.96.96-.432.96-.96.96-.96-.433-.96-.96ZM62.401,38.641c0-.528.432-.961.96-.961s.96.433.96.961-.432.96-.96.96-.96-.433-.96-.96ZM62.401,41.04c0-.527.432-.96.96-.96s.96.433.96.96-.432.96-.96.96-.96-.432-.96-.96ZM62.401,45.841c0-.528.432-.96.96-.96s.96.432.96.96-.432.96-.96.96-.96-.432-.96-.96ZM64.801,17.038c0-.528.432-.96.96-.96s.96.432.96.96-.432.96-.96.96-.96-.432-.96-.96ZM64.801,19.438c0-.528.432-.96.96-.96s.96.432.96.96-.432.96-.96.96-.96-.432-.96-.96ZM64.801,41.04c0-.527.432-.96.96-.96s.96.433.96.96-.432.96-.96.96-.96-.432-.96-.96ZM67.202,19.438c0-.528.432-.96.96-.96s.96.432.96.96-.432.96-.96.96-.96-.432-.96-.96ZM67.202,21.839c0-.528.432-.96.96-.96s.96.432.96.96-.432.96-.96.96-.96-.432-.96-.96ZM67.202,24.239c0-.528.432-.96.96-.96s.96.432.96.96-.432.96-.96.96-.96-.433-.96-.96ZM67.202,26.639c0-.527.432-.96.96-.96s.96.433.96.96-.432.961-.96.961-.96-.433-.96-.961ZM67.202,29.039c0-.527.432-.96.96-.96s.96.433.96.96-.432.96-.96.96-.96-.432-.96-.96ZM67.202,31.439c0-.528.432-.96.96-.96s.96.432.96.96-.432.96-.96.96-.96-.432-.96-.96ZM67.202,33.84c0-.528.432-.96.96-.96s.96.432.96.96-.432.96-.96.96-.96-.432-.96-.96ZM67.202,36.24c0-.528.432-.96.96-.96s.96.432.96.96-.432.96-.96.96-.96-.433-.96-.96ZM67.202,38.641c0-.528.432-.961.96-.961s.96.433.96.961-.432.96-.96.96-.96-.433-.96-.96ZM67.202,41.04c0-.527.432-.96.96-.96s.96.433.96.96-.432.96-.96.96-.96-.432-.96-.96ZM69.602,21.839c0-.528.432-.96.96-.96s.96.432.96.96-.432.96-.96.96-.96-.432-.96-.96ZM69.602,24.239c0-.528.432-.96.96-.96s.96.432.96.96-.432.96-.96.96-.96-.433-.96-.96ZM69.602,26.639c0-.527.432-.96.96-.96s.96.433.96.96-.432.961-.96.961-.96-.433-.96-.961ZM69.602,29.039c0-.527.432-.96.96-.96s.96.433.96.96-.432.96-.96.96-.96-.432-.96-.96ZM69.602,31.439c0-.528.432-.96.96-.96s.96.432.96.96-.432.96-.96.96-.96-.432-.96-.96ZM69.602,33.84c0-.528.432-.96.96-.96s.96.432.96.96-.432.96-.96.96-.96-.432-.96-.96ZM69.602,36.24c0-.528.432-.96.96-.96s.96.432.96.96-.432.96-.96.96-.96-.433-.96-.96ZM69.602,38.641c0-.528.432-.961.96-.961s.96.433.96.961-.432.96-.96.96-.96-.433-.96-.96Z"/></svg>