<?xml version="1.0" encoding="UTF-8"?><svg id="Ebene_1" xmlns="http://www.w3.org/2000/svg" viewBox="0 0 100 50"><defs><style>.cls-1{fill:#fe0;}.cls-2{fill:#fff;}</style></defs><path class="cls-2" d="M0,22.03c0-.523.428-.951.951-.951s.951.428.951.951-.428.951-.951.951-.951-.428-.951-.951ZM0,24.407c0-.522.428-.95.951-.95s.951.428.951.95-.428.951-.951.951-.951-.428-.951-.951ZM0,26.785c0-.523.428-.951.951-.951s.951.428.951.951-.428.951-.951.951-.951-.429-.951-.951ZM0,29.162c0-.522.428-.951.951-.951s.951.429.951.951-.428.951-.951.951-.951-.428-.951-.951ZM0,31.54c0-.523.428-.951.951-.951s.951.428.951.951-.428.95-.951.95-.951-.428-.951-.95ZM0,33.917c0-.523.428-.951.951-.951s.951.428.951.951-.428.951-.951.951-.951-.429-.951-.951ZM0,36.294c0-.522.428-.95.951-.95s.951.428.951.95-.428.951-.951.951-.951-.428-.951-.951ZM0,38.672c0-.523.428-.951.951-.951s.951.428.951.951-.428.95-.951.95-.951-.428-.951-.95ZM0,41.049c0-.523.428-.951.951-.951s.951.428.951.951-.428.951-.951.951-.951-.428-.951-.951ZM2.377,22.03c0-.523.428-.951.951-.951s.951.428.951.951-.428.951-.951.951-.951-.428-.951-.951ZM2.377,24.407c0-.522.428-.95.951-.95s.951.428.951.95-.428.951-.951.951-.951-.428-.951-.951ZM2.377,26.785c0-.523.428-.951.951-.951s.951.428.951.951-.428.951-.951.951-.951-.429-.951-.951ZM2.377,29.162c0-.522.428-.951.951-.951s.951.429.951.951-.428.951-.951.951-.951-.428-.951-.951ZM2.377,31.54c0-.523.428-.951.951-.951s.951.428.951.951-.428.95-.951.95-.951-.428-.951-.95ZM2.377,33.917c0-.523.428-.951.951-.951s.951.428.951.951-.428.951-.951.951-.951-.429-.951-.951ZM2.377,36.294c0-.522.428-.95.951-.95s.951.428.951.95-.428.951-.951.951-.951-.428-.951-.951ZM2.377,38.672c0-.523.428-.951.951-.951s.951.428.951.951-.428.95-.951.95-.951-.428-.951-.95ZM2.377,41.049c0-.523.428-.951.951-.951s.951.428.951.951-.428.951-.951.951-.951-.428-.951-.951ZM4.754,22.03c0-.523.429-.951.951-.951s.951.428.951.951-.428.951-.951.951-.951-.428-.951-.951ZM4.754,41.049c0-.523.429-.951.951-.951s.951.428.951.951-.428.951-.951.951-.951-.428-.951-.951ZM7.132,22.03c0-.523.429-.951.951-.951s.95.428.95.951-.428.951-.95.951-.951-.428-.951-.951ZM7.132,41.049c0-.523.429-.951.951-.951s.95.428.95.951-.428.951-.95.951-.951-.428-.951-.951Z"/><path class="cls-2" d="M11.886,22.03c0-.523.428-.951.95-.951s.951.428.951.951-.428.951-.951.951-.95-.428-.95-.951ZM11.886,24.407c0-.522.428-.95.95-.95s.951.428.951.95-.428.951-.951.951-.95-.428-.95-.951ZM11.886,26.785c0-.523.428-.951.95-.951s.951.428.951.951-.428.951-.951.951-.95-.429-.95-.951ZM11.886,29.162c0-.522.428-.951.95-.951s.951.429.951.951-.428.951-.951.951-.95-.428-.95-.951ZM11.886,31.54c0-.523.428-.951.95-.951s.951.428.951.951-.428.95-.951.95-.95-.428-.95-.95ZM11.886,38.672c0-.523.428-.951.95-.951s.951.428.951.951-.428.95-.951.95-.95-.428-.95-.95ZM14.264,22.03c0-.523.428-.951.95-.951s.951.428.951.951-.429.951-.951.951-.95-.428-.95-.951ZM14.264,24.407c0-.522.428-.95.95-.95s.951.428.951.95-.429.951-.951.951-.95-.428-.95-.951ZM14.264,26.785c0-.523.428-.951.95-.951s.951.428.951.951-.429.951-.951.951-.95-.429-.95-.951ZM14.264,29.162c0-.522.428-.951.95-.951s.951.429.951.951-.429.951-.951.951-.95-.428-.95-.951ZM14.264,31.54c0-.523.428-.951.95-.951s.951.428.951.951-.429.95-.951.95-.95-.428-.95-.95ZM14.264,38.672c0-.523.428-.951.95-.951s.951.428.951.951-.429.95-.951.95-.95-.428-.95-.95ZM14.264,41.049c0-.523.428-.951.95-.951s.951.428.951.951-.429.951-.951.951-.95-.428-.95-.951ZM16.641,22.03c0-.523.428-.951.951-.951s.95.428.95.951-.428.951-.95.951-.951-.428-.951-.951ZM16.641,31.54c0-.523.428-.951.951-.951s.95.428.95.951-.428.95-.95.95-.951-.428-.951-.95ZM16.641,41.049c0-.523.428-.951.951-.951s.95.428.95.951-.428.951-.95.951-.951-.428-.951-.951ZM19.018,22.03c0-.523.428-.951.951-.951s.951.428.951.951-.428.951-.951.951-.951-.428-.951-.951ZM19.018,31.54c0-.523.428-.951.951-.951s.951.428.951.951-.428.95-.951.95-.951-.428-.951-.95ZM19.018,41.049c0-.523.428-.951.951-.951s.951.428.951.951-.428.951-.951.951-.951-.428-.951-.951ZM21.395,22.03c0-.523.428-.951.951-.951s.951.428.951.951-.428.951-.951.951-.951-.428-.951-.951ZM21.395,24.407c0-.522.428-.95.951-.95s.951.428.951.95-.428.951-.951.951-.951-.428-.951-.951ZM21.395,31.54c0-.523.428-.951.951-.951s.951.428.951.951-.428.95-.951.95-.951-.428-.951-.95ZM21.395,33.917c0-.523.428-.951.951-.951s.951.428.951.951-.428.951-.951.951-.951-.429-.951-.951ZM21.395,36.294c0-.522.428-.95.951-.95s.951.428.951.95-.428.951-.951.951-.951-.428-.951-.951ZM21.395,38.672c0-.523.428-.951.951-.951s.951.428.951.951-.428.95-.951.95-.951-.428-.951-.95ZM21.395,41.049c0-.523.428-.951.951-.951s.951.428.951.951-.428.951-.951.951-.951-.428-.951-.951ZM23.772,22.03c0-.523.428-.951.95-.951s.951.428.951.951-.428.951-.951.951-.95-.428-.95-.951ZM23.772,24.407c0-.522.428-.95.95-.95s.951.428.951.95-.428.951-.951.951-.95-.428-.95-.951ZM23.772,33.917c0-.523.428-.951.95-.951s.951.428.951.951-.428.951-.951.951-.95-.429-.95-.951ZM23.772,36.294c0-.522.428-.95.95-.95s.951.428.951.95-.428.951-.951.951-.95-.428-.95-.951ZM23.772,38.672c0-.523.428-.951.95-.951s.951.428.951.951-.428.95-.951.95-.95-.428-.95-.95Z"/><path class="cls-2" d="M28.525,22.03c0-.523.428-.951.95-.951s.951.428.951.951-.429.951-.951.951-.95-.428-.95-.951ZM28.525,41.049c0-.523.428-.951.95-.951s.951.428.951.951-.429.951-.951.951-.95-.428-.95-.951ZM30.902,22.03c0-.523.428-.951.951-.951s.951.428.951.951-.429.951-.951.951-.951-.428-.951-.951ZM30.902,41.049c0-.523.428-.951.951-.951s.951.428.951.951-.429.951-.951.951-.951-.428-.951-.951ZM33.279,22.03c0-.523.428-.951.951-.951s.951.428.951.951-.428.951-.951.951-.951-.428-.951-.951ZM33.279,24.407c0-.522.428-.95.951-.95s.951.428.951.95-.428.951-.951.951-.951-.428-.951-.951ZM33.279,26.785c0-.523.428-.951.951-.951s.951.428.951.951-.428.951-.951.951-.951-.429-.951-.951ZM33.279,29.162c0-.522.428-.951.951-.951s.951.429.951.951-.428.951-.951.951-.951-.428-.951-.951ZM33.279,31.54c0-.523.428-.951.951-.951s.951.428.951.951-.428.95-.951.95-.951-.428-.951-.95ZM33.279,33.917c0-.523.428-.951.951-.951s.951.428.951.951-.428.951-.951.951-.951-.429-.951-.951ZM33.279,36.294c0-.522.428-.95.951-.95s.951.428.951.95-.428.951-.951.951-.951-.428-.951-.951ZM33.279,38.672c0-.523.428-.951.951-.951s.951.428.951.951-.428.95-.951.95-.951-.428-.951-.95ZM33.279,41.049c0-.523.428-.951.951-.951s.951.428.951.951-.428.951-.951.951-.951-.428-.951-.951ZM35.656,22.03c0-.523.428-.951.951-.951s.951.428.951.951-.428.951-.951.951-.951-.428-.951-.951ZM35.656,24.407c0-.522.428-.95.951-.95s.951.428.951.95-.428.951-.951.951-.951-.428-.951-.951ZM35.656,26.785c0-.523.428-.951.951-.951s.951.428.951.951-.428.951-.951.951-.951-.429-.951-.951ZM35.656,29.162c0-.522.428-.951.951-.951s.951.429.951.951-.428.951-.951.951-.951-.428-.951-.951ZM35.656,31.54c0-.523.428-.951.951-.951s.951.428.951.951-.428.95-.951.95-.951-.428-.951-.95ZM35.656,33.917c0-.523.428-.951.951-.951s.951.428.951.951-.428.951-.951.951-.951-.429-.951-.951ZM35.656,36.294c0-.522.428-.95.951-.95s.951.428.951.95-.428.951-.951.951-.951-.428-.951-.951ZM35.656,38.672c0-.523.428-.951.951-.951s.951.428.951.951-.428.95-.951.95-.951-.428-.951-.95ZM35.656,41.049c0-.523.428-.951.951-.951s.951.428.951.951-.428.951-.951.951-.951-.428-.951-.951Z"/><path class="cls-2" d="M40.41,31.54c0-.523.428-.951.951-.951s.951.428.951.951-.428.95-.951.95-.951-.428-.951-.95ZM40.41,36.294c0-.522.428-.95.951-.95s.951.428.951.95-.428.951-.951.951-.951-.428-.951-.951ZM42.788,31.54c0-.523.428-.951.95-.951s.951.428.951.951-.428.95-.951.95-.95-.428-.95-.95ZM42.788,36.294c0-.522.428-.95.95-.95s.951.428.951.95-.428.951-.951.951-.95-.428-.95-.951ZM45.165,31.54c0-.523.429-.951.951-.951s.95.428.95.951-.428.95-.95.95-.951-.428-.951-.95ZM45.165,36.294c0-.522.429-.95.951-.95s.95.428.95.95-.428.951-.95.951-.951-.428-.951-.951ZM47.543,31.54c0-.523.428-.951.951-.951s.95.428.95.951-.428.95-.95.95-.951-.428-.951-.95ZM47.543,36.294c0-.522.428-.95.951-.95s.95.428.95.95-.428.951-.95.951-.951-.428-.951-.951ZM49.92,31.54c0-.523.428-.951.951-.951s.951.428.951.951-.428.95-.951.95-.951-.428-.951-.95ZM49.92,36.294c0-.522.428-.95.951-.95s.951.428.951.95-.428.951-.951.951-.951-.428-.951-.951Z"/><path class="cls-1" d="M54.674,17.275c0-.522.428-.95.95-.95s.951.428.951.95-.429.951-.951.951-.95-.428-.95-.951ZM54.674,19.653c0-.523.428-.951.95-.951s.951.428.951.951-.429.95-.951.95-.95-.428-.95-.95ZM54.674,22.03c0-.523.428-.951.95-.951s.951.428.951.951-.429.951-.951.951-.95-.428-.95-.951ZM54.674,24.407c0-.522.428-.95.95-.95s.951.428.951.95-.429.951-.951.951-.95-.428-.95-.951ZM54.674,26.785c0-.523.428-.951.95-.951s.951.428.951.951-.429.951-.951.951-.95-.429-.95-.951ZM54.674,29.162c0-.522.428-.951.95-.951s.951.429.951.951-.429.951-.951.951-.95-.428-.95-.951ZM54.674,31.54c0-.523.428-.951.95-.951s.951.428.951.951-.429.95-.951.95-.95-.428-.95-.95ZM54.674,33.917c0-.523.428-.951.95-.951s.951.428.951.951-.429.951-.951.951-.95-.429-.95-.951ZM54.674,36.294c0-.522.428-.95.95-.95s.951.428.951.95-.429.951-.951.951-.95-.428-.95-.951ZM54.674,38.672c0-.523.428-.951.95-.951s.951.428.951.951-.429.95-.951.95-.95-.428-.95-.95ZM54.674,41.049c0-.523.428-.951.95-.951s.951.428.951.951-.429.951-.951.951-.95-.428-.95-.951ZM54.674,43.426c0-.522.428-.95.95-.95s.951.428.951.95-.429.951-.951.951-.95-.428-.95-.951ZM54.674,45.804c0-.523.428-.951.95-.951s.951.428.951.951-.429.951-.951.951-.95-.429-.95-.951ZM57.051,17.275c0-.522.428-.95.951-.95s.951.428.951.95-.429.951-.951.951-.951-.428-.951-.951ZM57.051,19.653c0-.523.428-.951.951-.951s.951.428.951.951-.429.95-.951.95-.951-.428-.951-.95ZM57.051,22.03c0-.523.428-.951.951-.951s.951.428.951.951-.429.951-.951.951-.951-.428-.951-.951ZM57.051,24.407c0-.522.428-.95.951-.95s.951.428.951.95-.429.951-.951.951-.951-.428-.951-.951ZM57.051,26.785c0-.523.428-.951.951-.951s.951.428.951.951-.429.951-.951.951-.951-.429-.951-.951ZM57.051,29.162c0-.522.428-.951.951-.951s.951.429.951.951-.429.951-.951.951-.951-.428-.951-.951ZM57.051,31.54c0-.523.428-.951.951-.951s.951.428.951.951-.429.95-.951.95-.951-.428-.951-.95ZM57.051,33.917c0-.523.428-.951.951-.951s.951.428.951.951-.429.951-.951.951-.951-.429-.951-.951ZM57.051,36.294c0-.522.428-.95.951-.95s.951.428.951.95-.429.951-.951.951-.951-.428-.951-.951ZM57.051,38.672c0-.523.428-.951.951-.951s.951.428.951.951-.429.95-.951.95-.951-.428-.951-.95ZM57.051,41.049c0-.523.428-.951.951-.951s.951.428.951.951-.429.951-.951.951-.951-.428-.951-.951ZM57.051,43.426c0-.522.428-.95.951-.95s.951.428.951.95-.429.951-.951.951-.951-.428-.951-.951ZM57.051,45.804c0-.523.428-.951.951-.951s.951.428.951.951-.429.951-.951.951-.951-.429-.951-.951ZM59.428,17.275c0-.522.428-.95.951-.95s.951.428.951.95-.428.951-.951.951-.951-.428-.951-.951ZM59.428,19.653c0-.523.428-.951.951-.951s.951.428.951.951-.428.95-.951.95-.951-.428-.951-.95ZM59.428,33.917c0-.523.428-.951.951-.951s.951.428.951.951-.428.951-.951.951-.951-.429-.951-.951ZM59.428,36.294c0-.522.428-.95.951-.95s.951.428.951.95-.428.951-.951.951-.951-.428-.951-.951ZM59.428,41.049c0-.523.428-.951.951-.951s.951.428.951.951-.428.951-.951.951-.951-.428-.951-.951ZM59.428,43.426c0-.522.428-.95.951-.95s.951.428.951.95-.428.951-.951.951-.951-.428-.951-.951ZM59.428,45.804c0-.523.428-.951.951-.951s.951.428.951.951-.428.951-.951.951-.951-.429-.951-.951ZM61.805,17.275c0-.522.428-.95.951-.95s.951.428.951.95-.428.951-.951.951-.951-.428-.951-.951ZM61.805,19.653c0-.523.428-.951.951-.951s.951.428.951.951-.428.95-.951.95-.951-.428-.951-.95ZM61.805,33.917c0-.523.428-.951.951-.951s.951.428.951.951-.428.951-.951.951-.951-.429-.951-.951ZM61.805,36.294c0-.522.428-.95.951-.95s.951.428.951.95-.428.951-.951.951-.951-.428-.951-.951ZM61.805,43.426c0-.522.428-.95.951-.95s.951.428.951.95-.428.951-.951.951-.951-.428-.951-.951ZM61.805,45.804c0-.523.428-.951.951-.951s.951.428.951.951-.428.951-.951.951-.951-.429-.951-.951ZM64.183,17.275c0-.522.428-.95.95-.95s.951.428.951.95-.428.951-.951.951-.95-.428-.95-.951ZM64.183,19.653c0-.523.428-.951.95-.951s.951.428.951.951-.428.95-.951.95-.95-.428-.95-.95ZM64.183,24.407c0-.522.428-.95.95-.95s.951.428.951.95-.428.951-.951.951-.95-.428-.95-.951ZM64.183,26.785c0-.523.428-.951.95-.951s.951.428.951.951-.428.951-.951.951-.95-.429-.95-.951ZM64.183,29.162c0-.522.428-.951.95-.951s.951.429.951.951-.428.951-.951.951-.95-.428-.95-.951ZM64.183,33.917c0-.523.428-.951.95-.951s.951.428.951.951-.428.951-.951.951-.95-.429-.95-.951ZM64.183,36.294c0-.522.428-.95.95-.95s.951.428.951.95-.428.951-.951.951-.95-.428-.95-.951ZM64.183,38.672c0-.523.428-.951.95-.951s.951.428.951.951-.428.95-.951.95-.95-.428-.95-.95ZM64.183,43.426c0-.522.428-.95.95-.95s.951.428.951.95-.428.951-.951.951-.95-.428-.95-.951ZM64.183,45.804c0-.523.428-.951.95-.951s.951.428.951.951-.428.951-.951.951-.95-.429-.95-.951ZM66.561,17.275c0-.522.428-.95.95-.95s.951.428.951.95-.429.951-.951.951-.95-.428-.95-.951ZM66.561,19.653c0-.523.428-.951.95-.951s.951.428.951.951-.429.95-.951.95-.95-.428-.95-.95ZM66.561,24.407c0-.522.428-.95.95-.95s.951.428.951.95-.429.951-.951.951-.95-.428-.95-.951ZM66.561,26.785c0-.523.428-.951.95-.951s.951.428.951.951-.429.951-.951.951-.95-.429-.95-.951ZM66.561,29.162c0-.522.428-.951.95-.951s.951.429.951.951-.429.951-.951.951-.95-.428-.95-.951ZM66.561,33.917c0-.523.428-.951.95-.951s.951.428.951.951-.429.951-.951.951-.95-.429-.95-.951ZM66.561,36.294c0-.522.428-.95.95-.95s.951.428.951.95-.429.951-.951.951-.95-.428-.95-.951ZM66.561,38.672c0-.523.428-.951.95-.951s.951.428.951.951-.429.95-.951.95-.95-.428-.95-.95ZM66.561,43.426c0-.522.428-.95.95-.95s.951.428.951.95-.429.951-.951.951-.95-.428-.95-.951ZM66.561,45.804c0-.523.428-.951.95-.951s.951.428.951.951-.429.951-.951.951-.95-.429-.95-.951ZM68.937,17.275c0-.522.428-.95.951-.95s.95.428.95.95-.428.951-.95.951-.951-.428-.951-.951ZM68.937,19.653c0-.523.428-.951.951-.951s.95.428.95.951-.428.95-.95.95-.951-.428-.951-.95ZM68.937,26.785c0-.523.428-.951.951-.951s.95.428.95.951-.428.951-.95.951-.951-.429-.951-.951ZM68.937,29.162c0-.522.428-.951.951-.951s.95.429.95.951-.428.951-.95.951-.951-.428-.951-.951ZM68.937,43.426c0-.522.428-.95.951-.95s.95.428.95.95-.428.951-.95.951-.951-.428-.951-.951ZM68.937,45.804c0-.523.428-.951.951-.951s.95.428.95.951-.428.951-.95.951-.951-.429-.951-.951ZM71.314,17.275c0-.522.428-.95.951-.95s.951.428.951.95-.428.951-.951.951-.951-.428-.951-.951ZM71.314,19.653c0-.523.428-.951.951-.951s.951.428.951.951-.428.95-.951.95-.951-.428-.951-.95ZM71.314,26.785c0-.523.428-.951.951-.951s.951.428.951.951-.428.951-.951.951-.951-.429-.951-.951ZM71.314,29.162c0-.522.428-.951.951-.951s.951.429.951.951-.428.951-.951.951-.951-.428-.951-.951ZM71.314,31.54c0-.523.428-.951.951-.951s.951.428.951.951-.428.95-.951.95-.951-.428-.951-.95ZM71.314,41.049c0-.523.428-.951.951-.951s.951.428.951.951-.428.951-.951.951-.951-.428-.951-.951ZM71.314,43.426c0-.522.428-.95.951-.95s.951.428.951.95-.428.951-.951.951-.951-.428-.951-.951ZM71.314,45.804c0-.523.428-.951.951-.951s.951.428.951.951-.428.951-.951.951-.951-.429-.951-.951ZM73.691,17.275c0-.522.428-.95.951-.95s.951.428.951.95-.428.951-.951.951-.951-.428-.951-.951ZM73.691,19.653c0-.523.428-.951.951-.951s.951.428.951.951-.428.95-.951.95-.951-.428-.951-.95ZM73.691,22.03c0-.523.428-.951.951-.951s.951.428.951.951-.428.951-.951.951-.951-.428-.951-.951ZM73.691,24.407c0-.522.428-.95.951-.95s.951.428.951.95-.428.951-.951.951-.951-.428-.951-.951ZM73.691,26.785c0-.523.428-.951.951-.951s.951.428.951.951-.428.951-.951.951-.951-.429-.951-.951ZM73.691,29.162c0-.522.428-.951.951-.951s.951.429.951.951-.428.951-.951.951-.951-.428-.951-.951ZM73.691,31.54c0-.523.428-.951.951-.951s.951.428.951.951-.428.95-.951.95-.951-.428-.951-.95ZM73.691,33.917c0-.523.428-.951.951-.951s.951.428.951.951-.428.951-.951.951-.951-.429-.951-.951ZM73.691,36.294c0-.522.428-.95.951-.95s.951.428.951.95-.428.951-.951.951-.951-.428-.951-.951ZM73.691,38.672c0-.523.428-.951.951-.951s.951.428.951.951-.428.95-.951.95-.951-.428-.951-.95ZM73.691,41.049c0-.523.428-.951.951-.951s.951.428.951.951-.428.951-.951.951-.951-.428-.951-.951ZM73.691,43.426c0-.522.428-.95.951-.95s.951.428.951.95-.428.951-.951.951-.951-.428-.951-.951ZM73.691,45.804c0-.523.428-.951.951-.951s.951.428.951.951-.428.951-.951.951-.951-.429-.951-.951ZM76.069,17.275c0-.522.428-.95.95-.95s.951.428.951.95-.428.951-.951.951-.95-.428-.95-.951ZM76.069,19.653c0-.523.428-.951.95-.951s.951.428.951.951-.428.95-.951.95-.95-.428-.95-.95ZM76.069,22.03c0-.523.428-.951.95-.951s.951.428.951.951-.428.951-.951.951-.95-.428-.95-.951ZM76.069,24.407c0-.522.428-.95.95-.95s.951.428.951.95-.428.951-.951.951-.95-.428-.95-.951ZM76.069,26.785c0-.523.428-.951.95-.951s.951.428.951.951-.428.951-.951.951-.95-.429-.95-.951ZM76.069,29.162c0-.522.428-.951.95-.951s.951.429.951.951-.428.951-.951.951-.95-.428-.95-.951ZM76.069,31.54c0-.523.428-.951.95-.951s.951.428.951.951-.428.95-.951.95-.95-.428-.95-.95ZM76.069,33.917c0-.523.428-.951.95-.951s.951.428.951.951-.428.951-.951.951-.95-.429-.95-.951ZM76.069,36.294c0-.522.428-.95.95-.95s.951.428.951.95-.428.951-.951.951-.95-.428-.95-.951ZM76.069,38.672c0-.523.428-.951.95-.951s.951.428.951.951-.428.95-.951.95-.95-.428-.95-.95ZM76.069,41.049c0-.523.428-.951.95-.951s.951.428.951.951-.428.951-.951.951-.95-.428-.95-.951ZM76.069,43.426c0-.522.428-.95.95-.95s.951.428.951.95-.428.951-.951.951-.95-.428-.95-.951ZM76.069,45.804c0-.523.428-.951.95-.951s.951.428.951.951-.428.951-.951.951-.95-.429-.95-.951Z"/></svg>