<?xml version="1.0" encoding="UTF-8"?><svg id="Ebene_1" xmlns="http://www.w3.org/2000/svg" viewBox="0 0 100 50"><defs><style>.cls-1{fill:#fe0;}.cls-2{fill:#fff;}</style></defs><path class="cls-2" d="M0,11.998c0-.672.528-1.2,1.2-1.2s1.2.528,1.2,1.2-.528,1.2-1.2,1.2-1.2-.528-1.2-1.2ZM0,14.397c0-.672.528-1.2,1.2-1.2s1.2.528,1.2,1.2-.528,1.2-1.2,1.2-1.2-.528-1.2-1.2ZM0,16.798c0-.672.528-1.2,1.2-1.2s1.2.528,1.2,1.2-.528,1.2-1.2,1.2-1.2-.528-1.2-1.2ZM0,19.198c0-.672.528-1.2,1.2-1.2s1.2.528,1.2,1.2-.528,1.2-1.2,1.2-1.2-.528-1.2-1.2ZM0,21.598c0-.672.528-1.2,1.2-1.2s1.2.528,1.2,1.2-.528,1.2-1.2,1.2-1.2-.528-1.2-1.2ZM0,23.999c0-.672.528-1.2,1.2-1.2s1.2.528,1.2,1.2-.528,1.2-1.2,1.2-1.2-.528-1.2-1.2ZM0,26.398c0-.672.528-1.2,1.2-1.2s1.2.528,1.2,1.2-.528,1.2-1.2,1.2-1.2-.528-1.2-1.2ZM0,28.799c0-.672.528-1.2,1.2-1.2s1.2.528,1.2,1.2-.528,1.2-1.2,1.2-1.2-.528-1.2-1.2ZM0,31.199c0-.672.528-1.2,1.2-1.2s1.2.528,1.2,1.2-.528,1.2-1.2,1.2-1.2-.528-1.2-1.2ZM0,33.599c0-.672.528-1.2,1.2-1.2s1.2.528,1.2,1.2-.528,1.2-1.2,1.2-1.2-.528-1.2-1.2ZM0,36c0-.672.528-1.2,1.2-1.2s1.2.528,1.2,1.2-.528,1.2-1.2,1.2-1.2-.528-1.2-1.2ZM0,38.4c0-.672.528-1.2,1.2-1.2s1.2.528,1.2,1.2-.528,1.2-1.2,1.2-1.2-.528-1.2-1.2ZM0,40.8c0-.672.528-1.2,1.2-1.2s1.2.528,1.2,1.2-.528,1.2-1.2,1.2-1.2-.528-1.2-1.2ZM2.4,11.998c0-.672.528-1.2,1.2-1.2s1.2.528,1.2,1.2-.528,1.2-1.2,1.2-1.2-.528-1.2-1.2ZM4.801,14.397c0,.672-.528,1.2-1.2,1.2s-1.2-.528-1.2-1.2.528-1.2,1.2-1.2,1.2.528,1.2,1.2ZM4.801,16.798c0,.672-.528,1.2-1.2,1.2s-1.2-.528-1.2-1.2.528-1.2,1.2-1.2,1.2.528,1.2,1.2ZM4.801,19.198c0,.672-.528,1.2-1.2,1.2s-1.2-.528-1.2-1.2.528-1.2,1.2-1.2,1.2.528,1.2,1.2ZM4.801,21.598c0,.672-.528,1.2-1.2,1.2s-1.2-.528-1.2-1.2.528-1.2,1.2-1.2,1.2.528,1.2,1.2ZM4.801,23.999c0,.672-.528,1.2-1.2,1.2s-1.2-.528-1.2-1.2.528-1.2,1.2-1.2,1.2.528,1.2,1.2ZM4.801,26.398c0,.672-.528,1.2-1.2,1.2s-1.2-.528-1.2-1.2.528-1.2,1.2-1.2,1.2.528,1.2,1.2ZM4.801,28.799c0,.672-.528,1.2-1.2,1.2s-1.2-.528-1.2-1.2.528-1.2,1.2-1.2,1.2.528,1.2,1.2ZM4.801,31.199c0,.672-.528,1.2-1.2,1.2s-1.2-.528-1.2-1.2.528-1.2,1.2-1.2,1.2.528,1.2,1.2ZM4.801,33.599c0,.672-.528,1.2-1.2,1.2s-1.2-.528-1.2-1.2.528-1.2,1.2-1.2,1.2.528,1.2,1.2ZM4.801,36c0,.672-.528,1.2-1.2,1.2s-1.2-.528-1.2-1.2.528-1.2,1.2-1.2,1.2.528,1.2,1.2ZM4.801,38.4c0,.672-.528,1.2-1.2,1.2s-1.2-.528-1.2-1.2.528-1.2,1.2-1.2,1.2.528,1.2,1.2ZM4.801,40.8c0,.672-.528,1.2-1.2,1.2s-1.2-.528-1.2-1.2.528-1.2,1.2-1.2,1.2.528,1.2,1.2ZM4.801,11.998c0-.672.527-1.2,1.2-1.2s1.199.528,1.199,1.2-.527,1.2-1.199,1.2-1.2-.528-1.2-1.2ZM7.2,14.397c0,.672-.527,1.2-1.199,1.2s-1.2-.528-1.2-1.2.527-1.2,1.2-1.2,1.199.528,1.199,1.2ZM4.801,23.999c0-.672.527-1.2,1.2-1.2s1.199.528,1.199,1.2-.527,1.2-1.199,1.2-1.2-.528-1.2-1.2ZM4.801,26.398c0-.672.527-1.2,1.2-1.2s1.199.528,1.199,1.2-.527,1.2-1.199,1.2-1.2-.528-1.2-1.2ZM4.801,38.4c0-.672.527-1.2,1.2-1.2s1.199.528,1.199,1.2-.527,1.2-1.199,1.2-1.2-.528-1.2-1.2ZM7.2,40.8c0,.672-.527,1.2-1.199,1.2s-1.2-.528-1.2-1.2.527-1.2,1.2-1.2,1.199.528,1.199,1.2ZM7.2,11.998c0-.672.528-1.2,1.2-1.2s1.2.528,1.2,1.2-.527,1.2-1.2,1.2-1.2-.528-1.2-1.2ZM9.601,14.397c0,.672-.527,1.2-1.2,1.2s-1.2-.528-1.2-1.2.528-1.2,1.2-1.2,1.2.528,1.2,1.2ZM7.2,23.999c0-.672.528-1.2,1.2-1.2s1.2.528,1.2,1.2-.527,1.2-1.2,1.2-1.2-.528-1.2-1.2ZM7.2,26.398c0-.672.528-1.2,1.2-1.2s1.2.528,1.2,1.2-.527,1.2-1.2,1.2-1.2-.528-1.2-1.2ZM7.2,38.4c0-.672.528-1.2,1.2-1.2s1.2.528,1.2,1.2-.527,1.2-1.2,1.2-1.2-.528-1.2-1.2ZM9.601,40.8c0,.672-.527,1.2-1.2,1.2s-1.2-.528-1.2-1.2.528-1.2,1.2-1.2,1.2.528,1.2,1.2ZM9.601,11.998c0-.672.528-1.2,1.2-1.2s1.2.528,1.2,1.2-.528,1.2-1.2,1.2-1.2-.528-1.2-1.2ZM12.001,14.397c0,.672-.528,1.2-1.2,1.2s-1.2-.528-1.2-1.2.528-1.2,1.2-1.2,1.2.528,1.2,1.2ZM9.601,23.999c0-.672.528-1.2,1.2-1.2s1.2.528,1.2,1.2-.528,1.2-1.2,1.2-1.2-.528-1.2-1.2ZM9.601,26.398c0-.672.528-1.2,1.2-1.2s1.2.528,1.2,1.2-.528,1.2-1.2,1.2-1.2-.528-1.2-1.2ZM9.601,38.4c0-.672.528-1.2,1.2-1.2s1.2.528,1.2,1.2-.528,1.2-1.2,1.2-1.2-.528-1.2-1.2ZM12.001,40.8c0,.672-.528,1.2-1.2,1.2s-1.2-.528-1.2-1.2.528-1.2,1.2-1.2,1.2.528,1.2,1.2ZM12.001,11.998c0-.672.528-1.2,1.2-1.2s1.2.528,1.2,1.2-.528,1.2-1.2,1.2-1.2-.528-1.2-1.2ZM12.001,14.397c0-.672.528-1.2,1.2-1.2s1.2.528,1.2,1.2-.528,1.2-1.2,1.2-1.2-.528-1.2-1.2ZM12.001,16.798c0-.672.528-1.2,1.2-1.2s1.2.528,1.2,1.2-.528,1.2-1.2,1.2-1.2-.528-1.2-1.2ZM12.001,19.198c0-.672.528-1.2,1.2-1.2s1.2.528,1.2,1.2-.528,1.2-1.2,1.2-1.2-.528-1.2-1.2ZM12.001,21.598c0-.672.528-1.2,1.2-1.2s1.2.528,1.2,1.2-.528,1.2-1.2,1.2-1.2-.528-1.2-1.2ZM12.001,23.999c0-.672.528-1.2,1.2-1.2s1.2.528,1.2,1.2-.528,1.2-1.2,1.2-1.2-.528-1.2-1.2ZM12.001,26.398c0-.672.528-1.2,1.2-1.2s1.2.528,1.2,1.2-.528,1.2-1.2,1.2-1.2-.528-1.2-1.2ZM12.001,28.799c0-.672.528-1.2,1.2-1.2s1.2.528,1.2,1.2-.528,1.2-1.2,1.2-1.2-.528-1.2-1.2ZM12.001,31.199c0-.672.528-1.2,1.2-1.2s1.2.528,1.2,1.2-.528,1.2-1.2,1.2-1.2-.528-1.2-1.2ZM12.001,33.599c0-.672.528-1.2,1.2-1.2s1.2.528,1.2,1.2-.528,1.2-1.2,1.2-1.2-.528-1.2-1.2ZM12.001,36c0-.672.528-1.2,1.2-1.2s1.2.528,1.2,1.2-.528,1.2-1.2,1.2-1.2-.528-1.2-1.2ZM12.001,38.4c0-.672.528-1.2,1.2-1.2s1.2.528,1.2,1.2-.528,1.2-1.2,1.2-1.2-.528-1.2-1.2ZM12.001,40.8c0-.672.528-1.2,1.2-1.2s1.2.528,1.2,1.2-.528,1.2-1.2,1.2-1.2-.528-1.2-1.2ZM14.401,14.397c0-.672.528-1.2,1.2-1.2s1.2.528,1.2,1.2-.528,1.2-1.2,1.2-1.2-.528-1.2-1.2ZM14.401,16.798c0-.672.528-1.2,1.2-1.2s1.2.528,1.2,1.2-.528,1.2-1.2,1.2-1.2-.528-1.2-1.2ZM14.401,19.198c0-.672.528-1.2,1.2-1.2s1.2.528,1.2,1.2-.528,1.2-1.2,1.2-1.2-.528-1.2-1.2ZM14.401,21.598c0-.672.528-1.2,1.2-1.2s1.2.528,1.2,1.2-.528,1.2-1.2,1.2-1.2-.528-1.2-1.2ZM14.401,23.999c0-.672.528-1.2,1.2-1.2s1.2.528,1.2,1.2-.528,1.2-1.2,1.2-1.2-.528-1.2-1.2ZM14.401,28.799c0-.672.528-1.2,1.2-1.2s1.2.528,1.2,1.2-.528,1.2-1.2,1.2-1.2-.528-1.2-1.2ZM14.401,31.199c0-.672.528-1.2,1.2-1.2s1.2.528,1.2,1.2-.528,1.2-1.2,1.2-1.2-.528-1.2-1.2ZM14.401,33.599c0-.672.528-1.2,1.2-1.2s1.2.528,1.2,1.2-.528,1.2-1.2,1.2-1.2-.528-1.2-1.2ZM14.401,36c0-.672.528-1.2,1.2-1.2s1.2.528,1.2,1.2-.528,1.2-1.2,1.2-1.2-.528-1.2-1.2ZM14.401,38.4c0-.672.528-1.2,1.2-1.2s1.2.528,1.2,1.2-.528,1.2-1.2,1.2-1.2-.528-1.2-1.2Z"/><path class="cls-1" d="M19.439,11.998c0-.528.432-.96.96-.96s.96.432.96.96-.432.96-.96.96-.96-.432-.96-.96ZM19.439,14.397c0-.528.432-.96.96-.96s.96.432.96.96-.432.96-.96.96-.96-.432-.96-.96ZM19.439,16.798c0-.528.432-.96.96-.96s.96.432.96.96-.432.96-.96.96-.96-.432-.96-.96ZM19.439,19.198c0-.528.432-.96.96-.96s.96.432.96.96-.432.96-.96.96-.96-.432-.96-.96ZM19.439,21.598c0-.528.432-.96.96-.96s.96.432.96.96-.432.96-.96.96-.96-.432-.96-.96ZM19.439,23.999c0-.528.432-.96.96-.96s.96.432.96.96-.432.96-.96.96-.96-.432-.96-.96ZM19.439,26.398c0-.528.432-.96.96-.96s.96.432.96.96-.432.96-.96.96-.96-.432-.96-.96ZM19.439,28.799c0-.528.432-.96.96-.96s.96.432.96.96-.432.96-.96.96-.96-.432-.96-.96ZM19.439,31.199c0-.528.432-.96.96-.96s.96.432.96.96-.432.96-.96.96-.96-.432-.96-.96ZM19.439,33.599c0-.528.432-.96.96-.96s.96.432.96.96-.432.96-.96.96-.96-.432-.96-.96ZM19.439,36c0-.528.432-.96.96-.96s.96.432.96.96-.432.96-.96.96-.96-.432-.96-.96ZM19.439,38.4c0-.528.432-.96.96-.96s.96.432.96.96-.432.96-.96.96-.96-.432-.96-.96ZM19.439,40.8c0-.528.432-.96.96-.96s.96.432.96.96-.432.96-.96.96-.96-.432-.96-.96ZM21.84,11.998c0-.528.432-.96.96-.96s.96.432.96.96-.433.96-.96.96-.96-.432-.96-.96ZM21.84,14.397c0-.528.432-.96.96-.96s.96.432.96.96-.433.96-.96.96-.96-.432-.96-.96ZM21.84,16.798c0-.528.432-.96.96-.96s.96.432.96.96-.433.96-.96.96-.96-.432-.96-.96ZM21.84,19.198c0-.528.432-.96.96-.96s.96.432.96.96-.433.96-.96.96-.96-.432-.96-.96ZM21.84,21.598c0-.528.432-.96.96-.96s.96.432.96.96-.433.96-.96.96-.96-.432-.96-.96ZM21.84,23.999c0-.528.432-.96.96-.96s.96.432.96.96-.433.96-.96.96-.96-.432-.96-.96ZM21.84,26.398c0-.528.432-.96.96-.96s.96.432.96.96-.433.96-.96.96-.96-.432-.96-.96ZM21.84,28.799c0-.528.432-.96.96-.96s.96.432.96.96-.433.96-.96.96-.96-.432-.96-.96ZM21.84,31.199c0-.528.432-.96.96-.96s.96.432.96.96-.433.96-.96.96-.96-.432-.96-.96ZM21.84,33.599c0-.528.432-.96.96-.96s.96.432.96.96-.433.96-.96.96-.96-.432-.96-.96ZM21.84,36c0-.528.432-.96.96-.96s.96.432.96.96-.433.96-.96.96-.96-.432-.96-.96ZM21.84,38.4c0-.528.432-.96.96-.96s.96.432.96.96-.433.96-.96.96-.96-.432-.96-.96ZM21.84,40.8c0-.528.432-.96.96-.96s.96.432.96.96-.433.96-.96.96-.96-.432-.96-.96ZM24.239,11.998c0-.528.433-.96.961-.96s.96.432.96.96-.433.96-.96.96-.961-.432-.961-.96ZM24.239,14.397c0-.528.433-.96.961-.96s.96.432.96.96-.433.96-.96.96-.961-.432-.961-.96ZM24.239,26.398c0-.528.433-.96.961-.96s.96.432.96.96-.433.96-.96.96-.961-.432-.961-.96ZM24.239,28.799c0-.528.433-.96.961-.96s.96.432.96.96-.433.96-.96.96-.961-.432-.961-.96ZM26.64,11.998c0-.528.433-.96.96-.96s.96.432.96.96-.432.96-.96.96-.96-.432-.96-.96ZM26.64,14.397c0-.528.433-.96.96-.96s.96.432.96.96-.432.96-.96.96-.96-.432-.96-.96ZM26.64,26.398c0-.528.433-.96.96-.96s.96.432.96.96-.432.96-.96.96-.96-.432-.96-.96ZM26.64,28.799c0-.528.433-.96.96-.96s.96.432.96.96-.432.96-.96.96-.96-.432-.96-.96ZM29.04,11.998c0-.528.432-.96.96-.96s.96.432.96.96-.432.96-.96.96-.96-.432-.96-.96ZM29.04,14.397c0-.528.432-.96.96-.96s.96.432.96.96-.432.96-.96.96-.96-.432-.96-.96ZM29.04,26.398c0-.528.432-.96.96-.96s.96.432.96.96-.432.96-.96.96-.96-.432-.96-.96ZM29.04,28.799c0-.528.432-.96.96-.96s.96.432.96.96-.432.96-.96.96-.96-.432-.96-.96ZM29.04,31.199c0-.528.432-.96.96-.96s.96.432.96.96-.432.96-.96.96-.96-.432-.96-.96ZM29.04,33.599c0-.528.432-.96.96-.96s.96.432.96.96-.432.96-.96.96-.96-.432-.96-.96ZM31.44,11.998c0-.528.432-.96.96-.96s.96.432.96.96-.432.96-.96.96-.96-.432-.96-.96ZM31.44,14.397c0-.528.432-.96.96-.96s.96.432.96.96-.432.96-.96.96-.96-.432-.96-.96ZM31.44,16.798c0-.528.432-.96.96-.96s.96.432.96.96-.432.96-.96.96-.96-.432-.96-.96ZM31.44,19.198c0-.528.432-.96.96-.96s.96.432.96.96-.432.96-.96.96-.96-.432-.96-.96ZM31.44,21.598c0-.528.432-.96.96-.96s.96.432.96.96-.432.96-.96.96-.96-.432-.96-.96ZM31.44,23.999c0-.528.432-.96.96-.96s.96.432.96.96-.432.96-.96.96-.96-.432-.96-.96ZM31.44,26.398c0-.528.432-.96.96-.96s.96.432.96.96-.432.96-.96.96-.96-.432-.96-.96ZM31.44,31.199c0-.528.432-.96.96-.96s.96.432.96.96-.432.96-.96.96-.96-.432-.96-.96ZM31.44,33.599c0-.528.432-.96.96-.96s.96.432.96.96-.432.96-.96.96-.96-.432-.96-.96ZM31.44,36c0-.528.432-.96.96-.96s.96.432.96.96-.432.96-.96.96-.96-.432-.96-.96ZM31.44,38.4c0-.528.432-.96.96-.96s.96.432.96.96-.432.96-.96.96-.96-.432-.96-.96ZM31.44,40.8c0-.528.432-.96.96-.96s.96.432.96.96-.432.96-.96.96-.96-.432-.96-.96ZM33.841,14.397c0-.528.432-.96.96-.96s.96.432.96.96-.433.96-.96.96-.96-.432-.96-.96ZM33.841,16.798c0-.528.432-.96.96-.96s.96.432.96.96-.433.96-.96.96-.96-.432-.96-.96ZM33.841,19.198c0-.528.432-.96.96-.96s.96.432.96.96-.433.96-.96.96-.96-.432-.96-.96ZM33.841,21.598c0-.528.432-.96.96-.96s.96.432.96.96-.433.96-.96.96-.96-.432-.96-.96ZM33.841,23.999c0-.528.432-.96.96-.96s.96.432.96.96-.433.96-.96.96-.96-.432-.96-.96ZM33.841,36c0-.528.432-.96.96-.96s.96.432.96.96-.433.96-.96.96-.96-.432-.96-.96ZM33.841,38.4c0-.528.432-.96.96-.96s.96.432.96.96-.433.96-.96.96-.96-.432-.96-.96ZM33.841,40.8c0-.528.432-.96.96-.96s.96.432.96.96-.433.96-.96.96-.96-.432-.96-.96Z"/><path class="cls-2" d="M38.88,11.998c0-.384.336-.72.72-.72s.72.336.72.72-.336.72-.72.72-.72-.336-.72-.72ZM38.88,14.397c0-.384.336-.72.72-.72s.72.336.72.72-.336.72-.72.72-.72-.336-.72-.72ZM38.88,16.798c0-.384.336-.72.72-.72s.72.336.72.72-.336.72-.72.72-.72-.336-.72-.72ZM38.88,19.198c0-.384.336-.72.72-.72s.72.336.72.72-.336.72-.72.72-.72-.336-.72-.72ZM38.88,21.598c0-.384.336-.72.72-.72s.72.336.72.72-.336.72-.72.72-.72-.336-.72-.72ZM38.88,23.999c0-.384.336-.72.72-.72s.72.336.72.72-.336.72-.72.72-.72-.336-.72-.72ZM38.88,26.398c0-.384.336-.72.72-.72s.72.336.72.72-.336.72-.72.72-.72-.336-.72-.72ZM38.88,28.799c0-.384.336-.72.72-.72s.72.336.72.72-.336.72-.72.72-.72-.336-.72-.72ZM38.88,31.199c0-.384.336-.72.72-.72s.72.336.72.72-.336.72-.72.72-.72-.336-.72-.72ZM38.88,33.599c0-.384.336-.72.72-.72s.72.336.72.72-.336.72-.72.72-.72-.336-.72-.72ZM38.88,36c0-.384.336-.72.72-.72s.72.336.72.72-.336.72-.72.72-.72-.336-.72-.72ZM38.88,38.4c0-.384.336-.72.72-.72s.72.336.72.72-.336.72-.72.72-.72-.336-.72-.72ZM38.88,40.8c0-.384.336-.72.72-.72s.72.336.72.72-.336.72-.72.72-.72-.336-.72-.72ZM41.279,11.998c0-.384.336-.72.721-.72s.72.336.72.72-.336.72-.72.72-.721-.336-.721-.72ZM41.279,14.397c0-.384.336-.72.721-.72s.72.336.72.72-.336.72-.72.72-.721-.336-.721-.72ZM41.279,16.798c0-.384.336-.72.721-.72s.72.336.72.72-.336.72-.72.72-.721-.336-.721-.72ZM41.279,19.198c0-.384.336-.72.721-.72s.72.336.72.72-.336.72-.72.72-.721-.336-.721-.72ZM41.279,21.598c0-.384.336-.72.721-.72s.72.336.72.72-.336.72-.72.72-.721-.336-.721-.72ZM41.279,23.999c0-.384.336-.72.721-.72s.72.336.72.72-.336.72-.72.72-.721-.336-.721-.72ZM41.279,26.398c0-.384.336-.72.721-.72s.72.336.72.72-.336.72-.72.72-.721-.336-.721-.72ZM41.279,28.799c0-.384.336-.72.721-.72s.72.336.72.72-.336.72-.72.72-.721-.336-.721-.72ZM41.279,31.199c0-.384.336-.72.721-.72s.72.336.72.72-.336.72-.72.72-.721-.336-.721-.72ZM41.279,33.599c0-.384.336-.72.721-.72s.72.336.72.72-.336.72-.72.72-.721-.336-.721-.72ZM41.279,36c0-.384.336-.72.721-.72s.72.336.72.72-.336.72-.72.72-.721-.336-.721-.72ZM41.279,38.4c0-.384.336-.72.721-.72s.72.336.72.72-.336.72-.72.72-.721-.336-.721-.72ZM41.279,40.8c0-.384.336-.72.721-.72s.72.336.72.72-.336.72-.72.72-.721-.336-.721-.72ZM43.68,38.4c0-.384.336-.72.721-.72s.72.336.72.72-.336.72-.72.72-.721-.336-.721-.72ZM43.68,40.8c0-.384.336-.72.721-.72s.72.336.72.72-.336.72-.72.72-.721-.336-.721-.72ZM46.08,38.4c0-.384.336-.72.72-.72s.721.336.721.72-.336.72-.721.72-.72-.336-.72-.72ZM46.08,40.8c0-.384.336-.72.72-.72s.721.336.721.72-.336.72-.721.72-.72-.336-.72-.72ZM48.48,38.4c0-.384.336-.72.72-.72s.72.336.72.72-.336.72-.72.72-.72-.336-.72-.72ZM48.48,40.8c0-.384.336-.72.72-.72s.72.336.72.72-.336.72-.72.72-.72-.336-.72-.72ZM50.881,38.4c0-.384.336-.72.72-.72s.72.336.72.72-.336.72-.72.72-.72-.336-.72-.72ZM50.881,40.8c0-.384.336-.72.72-.72s.72.336.72.72-.336.72-.72.72-.72-.336-.72-.72ZM53.28,38.4c0-.384.337-.72.721-.72s.72.336.72.72-.336.72-.72.72-.721-.336-.721-.72ZM53.28,40.8c0-.384.337-.72.721-.72s.72.336.72.72-.336.72-.72.72-.721-.336-.721-.72Z"/><path class="cls-2" d="M54.479,11.998c0-.288.192-.48.48-.48s.479.192.479.48-.191.48-.479.48-.48-.192-.48-.48ZM54.479,14.397c0-.288.192-.48.48-.48s.479.192.479.48-.191.48-.479.48-.48-.192-.48-.48ZM56.879,11.998c0-.288.192-.48.48-.48s.479.192.479.48-.191.48-.479.48-.48-.192-.48-.48ZM56.879,14.397c0-.288.192-.48.48-.48s.479.192.479.48-.191.48-.479.48-.48-.192-.48-.48ZM59.279,11.998c0-.288.192-.48.48-.48s.479.192.479.48-.192.48-.479.48-.48-.192-.48-.48ZM59.279,14.397c0-.288.192-.48.48-.48s.479.192.479.48-.192.48-.479.48-.48-.192-.48-.48ZM59.279,16.798c0-.288.192-.48.48-.48s.479.192.479.48-.192.48-.479.48-.48-.192-.48-.48ZM59.279,19.198c0-.288.192-.48.48-.48s.479.192.479.48-.192.48-.479.48-.48-.192-.48-.48ZM59.279,21.598c0-.288.192-.48.48-.48s.479.192.479.48-.192.48-.479.48-.48-.192-.48-.48ZM59.279,23.999c0-.288.192-.48.48-.48s.479.192.479.48-.192.48-.479.48-.48-.192-.48-.48ZM59.279,26.398c0-.288.192-.48.48-.48s.479.192.479.48-.192.48-.479.48-.48-.192-.48-.48ZM59.279,28.799c0-.288.192-.48.48-.48s.479.192.479.48-.192.48-.479.48-.48-.192-.48-.48ZM59.279,31.199c0-.288.192-.48.48-.48s.479.192.479.48-.192.48-.479.48-.48-.192-.48-.48ZM59.279,33.599c0-.288.192-.48.48-.48s.479.192.479.48-.192.48-.479.48-.48-.192-.48-.48ZM59.279,36c0-.288.192-.48.48-.48s.479.192.479.48-.192.48-.479.48-.48-.192-.48-.48ZM59.279,38.4c0-.288.192-.48.48-.48s.479.192.479.48-.192.48-.479.48-.48-.192-.48-.48ZM59.279,40.8c0-.288.192-.48.48-.48s.479.192.479.48-.192.48-.479.48-.48-.192-.48-.48ZM61.68,11.998c0-.288.191-.48.479-.48s.48.192.48.48-.192.48-.48.48-.479-.192-.479-.48ZM61.68,14.397c0-.288.191-.48.479-.48s.48.192.48.48-.192.48-.48.48-.479-.192-.479-.48ZM61.68,16.798c0-.288.191-.48.479-.48s.48.192.48.48-.192.48-.48.48-.479-.192-.479-.48ZM61.68,19.198c0-.288.191-.48.479-.48s.48.192.48.48-.192.48-.48.48-.479-.192-.479-.48ZM61.68,21.598c0-.288.191-.48.479-.48s.48.192.48.48-.192.48-.48.48-.479-.192-.479-.48ZM61.68,23.999c0-.288.191-.48.479-.48s.48.192.48.48-.192.48-.48.48-.479-.192-.479-.48ZM61.68,26.398c0-.288.191-.48.479-.48s.48.192.48.48-.192.48-.48.48-.479-.192-.479-.48ZM61.68,28.799c0-.288.191-.48.479-.48s.48.192.48.48-.192.48-.48.48-.479-.192-.479-.48ZM61.68,31.199c0-.288.191-.48.479-.48s.48.192.48.48-.192.48-.48.48-.479-.192-.479-.48ZM61.68,33.599c0-.288.191-.48.479-.48s.48.192.48.48-.192.48-.48.48-.479-.192-.479-.48ZM61.68,36c0-.288.191-.48.479-.48s.48.192.48.48-.192.48-.48.48-.479-.192-.479-.48ZM61.68,38.4c0-.288.191-.48.479-.48s.48.192.48.48-.192.48-.48.48-.479-.192-.479-.48ZM61.68,40.8c0-.288.191-.48.479-.48s.48.192.48.48-.192.48-.48.48-.479-.192-.479-.48ZM64.08,11.998c0-.288.191-.48.479-.48s.48.192.48.48-.192.48-.48.48-.479-.192-.479-.48ZM64.08,14.397c0-.288.191-.48.479-.48s.48.192.48.48-.192.48-.48.48-.479-.192-.479-.48ZM66.479,11.998c0-.288.192-.48.48-.48s.48.192.48.48-.192.48-.48.48-.48-.192-.48-.48ZM66.479,14.397c0-.288.192-.48.48-.48s.48.192.48.48-.192.48-.48.48-.48-.192-.48-.48Z"/></svg>