<?xml version="1.0" encoding="UTF-8"?><svg id="Ebene_1" xmlns="http://www.w3.org/2000/svg" viewBox="0 0 100 50"><defs><style>.cls-1{fill:#fe0;}.cls-2{fill:#fff;}</style></defs><path class="cls-1" d="M0,1.036C0,.508.432.076.96.076s.96.432.96.96-.432.96-.96.96-.96-.432-.96-.96ZM0,3.437c0-.528.432-.96.96-.96s.96.432.96.96-.432.96-.96.96-.96-.433-.96-.96ZM0,5.836c0-.527.432-.96.96-.96s.96.433.96.96-.432.961-.96.961-.96-.433-.96-.961ZM0,8.236c0-.527.432-.96.96-.96s.96.433.96.96-.432.96-.96.96-.96-.432-.96-.96ZM0,10.637c0-.528.432-.96.96-.96s.96.432.96.96-.432.96-.96.96-.96-.432-.96-.96ZM0,22.638c0-.528.432-.96.96-.96s.96.432.96.96-.432.96-.96.96-.96-.432-.96-.96ZM0,25.038c0-.528.432-.96.96-.96s.96.432.96.96-.432.96-.96.96-.96-.432-.96-.96ZM0,27.438c0-.528.432-.96.96-.96s.96.432.96.96-.432.96-.96.96-.96-.432-.96-.96ZM0,29.839c0-.528.432-.961.96-.961s.96.433.96.961-.432.96-.96.96-.96-.433-.96-.96ZM0,32.238c0-.527.432-.96.96-.96s.96.433.96.96-.432.961-.96.961-.96-.433-.96-.961ZM0,39.439c0-.528.432-.96.96-.96s.96.432.96.96-.432.96-.96.96-.96-.432-.96-.96ZM0,41.84c0-.528.432-.96.96-.96s.96.432.96.96-.432.96-.96.96-.96-.433-.96-.96ZM0,44.239c0-.527.432-.96.96-.96s.96.433.96.96-.432.961-.96.961-.96-.433-.96-.961ZM0,46.64c0-.527.432-.96.96-.96s.96.433.96.96-.432.96-.96.96-.96-.432-.96-.96ZM0,49.04c0-.528.432-.96.96-.96s.96.432.96.96-.432.96-.96.96-.96-.432-.96-.96ZM2.4,1.036c0-.528.432-.96.96-.96s.96.432.96.96-.433.96-.96.96-.96-.432-.96-.96ZM2.4,3.437c0-.528.432-.96.96-.96s.96.432.96.96-.433.96-.96.96-.96-.433-.96-.96ZM2.4,5.836c0-.527.432-.96.96-.96s.96.433.96.96-.433.961-.96.961-.96-.433-.96-.961ZM2.4,8.236c0-.527.432-.96.96-.96s.96.433.96.96-.433.96-.96.96-.96-.432-.96-.96ZM2.4,25.038c0-.528.432-.96.96-.96s.96.432.96.96-.433.96-.96.96-.96-.432-.96-.96ZM2.4,27.438c0-.528.432-.96.96-.96s.96.432.96.96-.433.96-.96.96-.96-.432-.96-.96ZM2.4,29.839c0-.528.432-.961.96-.961s.96.433.96.961-.433.96-.96.96-.96-.433-.96-.96ZM2.4,32.238c0-.527.432-.96.96-.96s.96.433.96.96-.433.961-.96.961-.96-.433-.96-.961ZM2.4,41.84c0-.528.432-.96.96-.96s.96.432.96.96-.433.96-.96.96-.96-.433-.96-.96ZM2.4,44.239c0-.527.432-.96.96-.96s.96.433.96.96-.433.961-.96.961-.96-.433-.96-.961ZM2.4,46.64c0-.527.432-.96.96-.96s.96.433.96.96-.433.96-.96.96-.96-.432-.96-.96ZM2.4,49.04c0-.528.432-.96.96-.96s.96.432.96.96-.433.96-.96.96-.96-.432-.96-.96ZM4.8,1.036c0-.528.433-.96.961-.96s.96.432.96.96-.433.96-.96.96-.961-.432-.961-.96ZM4.8,3.437c0-.528.433-.96.961-.96s.96.432.96.96-.433.96-.96.96-.961-.433-.961-.96ZM4.8,5.836c0-.527.433-.96.961-.96s.96.433.96.96-.433.961-.96.961-.961-.433-.961-.961ZM4.8,8.236c0-.527.433-.96.961-.96s.96.433.96.96-.433.96-.96.96-.961-.432-.961-.96ZM4.8,15.438c0-.528.433-.96.961-.96s.96.432.96.96-.433.96-.96.96-.961-.433-.961-.96ZM4.8,17.838c0-.528.433-.961.961-.961s.96.433.96.961-.433.96-.96.96-.961-.433-.961-.96ZM4.8,27.438c0-.528.433-.96.961-.96s.96.432.96.96-.433.96-.96.96-.961-.432-.961-.96ZM4.8,29.839c0-.528.433-.961.961-.961s.96.433.96.961-.433.96-.96.96-.961-.433-.961-.96ZM4.8,32.238c0-.527.433-.96.961-.96s.96.433.96.96-.433.961-.96.961-.961-.433-.961-.961ZM4.8,34.639c0-.527.433-.96.961-.96s.96.433.96.96-.433.96-.96.96-.961-.432-.961-.96ZM4.8,41.84c0-.528.433-.96.961-.96s.96.432.96.96-.433.96-.96.96-.961-.433-.961-.96ZM4.8,44.239c0-.527.433-.96.961-.96s.96.433.96.96-.433.961-.96.961-.961-.433-.961-.961ZM4.8,46.64c0-.527.433-.96.961-.96s.96.433.96.96-.433.96-.96.96-.961-.432-.961-.96ZM4.8,49.04c0-.528.433-.96.961-.96s.96.432.96.96-.433.96-.96.96-.961-.432-.961-.96ZM7.2,1.036c0-.528.433-.96.96-.96s.96.432.96.96-.432.96-.96.96-.96-.432-.96-.96ZM7.2,3.437c0-.528.433-.96.96-.96s.96.432.96.96-.432.96-.96.96-.96-.433-.96-.96ZM7.2,5.836c0-.527.433-.96.96-.96s.96.433.96.96-.432.961-.96.961-.96-.433-.96-.961ZM7.2,8.236c0-.527.433-.96.96-.96s.96.433.96.96-.432.96-.96.96-.96-.432-.96-.96ZM7.2,15.438c0-.528.433-.96.96-.96s.96.432.96.96-.432.96-.96.96-.96-.433-.96-.96ZM7.2,17.838c0-.528.433-.961.96-.961s.96.433.96.961-.432.96-.96.96-.96-.433-.96-.96ZM7.2,20.237c0-.527.433-.96.96-.96s.96.433.96.96-.432.96-.96.96-.96-.432-.96-.96ZM7.2,29.839c0-.528.433-.961.96-.961s.96.433.96.961-.432.96-.96.96-.96-.433-.96-.96ZM7.2,32.238c0-.527.433-.96.96-.96s.96.433.96.96-.432.961-.96.961-.96-.433-.96-.961ZM7.2,34.639c0-.527.433-.96.96-.96s.96.433.96.96-.432.96-.96.96-.96-.432-.96-.96ZM7.2,41.84c0-.528.433-.96.96-.96s.96.432.96.96-.432.96-.96.96-.96-.433-.96-.96ZM7.2,44.239c0-.527.433-.96.96-.96s.96.433.96.96-.432.961-.96.961-.96-.433-.96-.961ZM7.2,46.64c0-.527.433-.96.96-.96s.96.433.96.96-.432.96-.96.96-.96-.432-.96-.96ZM7.2,49.04c0-.528.433-.96.96-.96s.96.432.96.96-.432.96-.96.96-.96-.432-.96-.96ZM9.601,1.036c0-.528.432-.96.96-.96s.96.432.96.96-.432.96-.96.96-.96-.432-.96-.96ZM9.601,3.437c0-.528.432-.96.96-.96s.96.432.96.96-.432.96-.96.96-.96-.433-.96-.96ZM9.601,5.836c0-.527.432-.96.96-.96s.96.433.96.96-.432.961-.96.961-.96-.433-.96-.961ZM9.601,8.236c0-.527.432-.96.96-.96s.96.433.96.96-.432.96-.96.96-.96-.432-.96-.96ZM9.601,15.438c0-.528.432-.96.96-.96s.96.432.96.96-.432.96-.96.96-.96-.433-.96-.96ZM9.601,17.838c0-.528.432-.961.96-.961s.96.433.96.961-.432.96-.96.96-.96-.433-.96-.96ZM9.601,20.237c0-.527.432-.96.96-.96s.96.433.96.96-.432.96-.96.96-.96-.432-.96-.96ZM9.601,22.638c0-.528.432-.96.96-.96s.96.432.96.96-.432.96-.96.96-.96-.432-.96-.96ZM9.601,32.238c0-.527.432-.96.96-.96s.96.433.96.96-.432.961-.96.961-.96-.433-.96-.961ZM9.601,34.639c0-.527.432-.96.96-.96s.96.433.96.96-.432.96-.96.96-.96-.432-.96-.96ZM9.601,41.84c0-.528.432-.96.96-.96s.96.432.96.96-.432.96-.96.96-.96-.433-.96-.96ZM9.601,44.239c0-.527.432-.96.96-.96s.96.433.96.96-.432.961-.96.961-.96-.433-.96-.961ZM9.601,46.64c0-.527.432-.96.96-.96s.96.433.96.96-.432.96-.96.96-.96-.432-.96-.96ZM9.601,49.04c0-.528.432-.96.96-.96s.96.432.96.96-.432.96-.96.96-.96-.432-.96-.96ZM12.001,1.036c0-.528.432-.96.96-.96s.96.432.96.96-.432.96-.96.96-.96-.432-.96-.96ZM12.001,3.437c0-.528.432-.96.96-.96s.96.432.96.96-.432.96-.96.96-.96-.433-.96-.96ZM12.001,5.836c0-.527.432-.96.96-.96s.96.433.96.96-.432.961-.96.961-.96-.433-.96-.961ZM12.001,8.236c0-.527.432-.96.96-.96s.96.433.96.96-.432.96-.96.96-.96-.432-.96-.96ZM12.001,17.838c0-.528.432-.961.96-.961s.96.433.96.961-.432.96-.96.96-.96-.433-.96-.96ZM12.001,20.237c0-.527.432-.96.96-.96s.96.433.96.96-.432.96-.96.96-.96-.432-.96-.96ZM12.001,22.638c0-.528.432-.96.96-.96s.96.432.96.96-.432.96-.96.96-.96-.432-.96-.96ZM12.001,25.038c0-.528.432-.96.96-.96s.96.432.96.96-.432.96-.96.96-.96-.432-.96-.96ZM12.001,41.84c0-.528.432-.96.96-.96s.96.432.96.96-.432.96-.96.96-.96-.433-.96-.96ZM12.001,44.239c0-.527.432-.96.96-.96s.96.433.96.96-.432.961-.96.961-.96-.433-.96-.961ZM12.001,46.64c0-.527.432-.96.96-.96s.96.433.96.96-.432.96-.96.96-.96-.432-.96-.96ZM12.001,49.04c0-.528.432-.96.96-.96s.96.432.96.96-.432.96-.96.96-.96-.432-.96-.96ZM14.401,1.036c0-.528.432-.96.96-.96s.96.432.96.96-.433.96-.96.96-.96-.432-.96-.96ZM14.401,3.437c0-.528.432-.96.96-.96s.96.432.96.96-.433.96-.96.96-.96-.433-.96-.96ZM14.401,5.836c0-.527.432-.96.96-.96s.96.433.96.96-.433.961-.96.961-.96-.433-.96-.961ZM14.401,8.236c0-.527.432-.96.96-.96s.96.433.96.96-.433.96-.96.96-.96-.432-.96-.96ZM14.401,10.637c0-.528.432-.96.96-.96s.96.432.96.96-.433.96-.96.96-.96-.432-.96-.96ZM14.401,17.838c0-.528.432-.961.96-.961s.96.433.96.961-.433.96-.96.96-.96-.433-.96-.96ZM14.401,20.237c0-.527.432-.96.96-.96s.96.433.96.96-.433.96-.96.96-.96-.432-.96-.96ZM14.401,22.638c0-.528.432-.96.96-.96s.96.432.96.96-.433.96-.96.96-.96-.432-.96-.96ZM14.401,25.038c0-.528.432-.96.96-.96s.96.432.96.96-.433.96-.96.96-.96-.432-.96-.96ZM14.401,27.438c0-.528.432-.96.96-.96s.96.432.96.96-.433.96-.96.96-.96-.432-.96-.96ZM14.401,39.439c0-.528.432-.96.96-.96s.96.432.96.96-.433.96-.96.96-.96-.432-.96-.96ZM14.401,41.84c0-.528.432-.96.96-.96s.96.432.96.96-.433.96-.96.96-.96-.433-.96-.96ZM14.401,44.239c0-.527.432-.96.96-.96s.96.433.96.96-.433.961-.96.961-.96-.433-.96-.961ZM14.401,46.64c0-.527.432-.96.96-.96s.96.433.96.96-.433.96-.96.96-.96-.432-.96-.96ZM14.401,49.04c0-.528.432-.96.96-.96s.96.432.96.96-.433.96-.96.96-.96-.432-.96-.96Z"/><path class="cls-1" d="M20.64,1.036c0-.528.432-.96.96-.96s.96.432.96.96-.432.96-.96.96-.96-.432-.96-.96ZM20.64,3.437c0-.528.432-.96.96-.96s.96.432.96.96-.432.96-.96.96-.96-.433-.96-.96ZM20.64,5.836c0-.527.432-.96.96-.96s.96.433.96.96-.432.961-.96.961-.96-.433-.96-.961ZM20.64,8.236c0-.527.432-.96.96-.96s.96.433.96.96-.432.96-.96.96-.96-.432-.96-.96ZM20.64,10.637c0-.528.432-.96.96-.96s.96.432.96.96-.432.96-.96.96-.96-.432-.96-.96ZM20.64,39.439c0-.528.432-.96.96-.96s.96.432.96.96-.432.96-.96.96-.96-.432-.96-.96ZM20.64,41.84c0-.528.432-.96.96-.96s.96.432.96.96-.432.96-.96.96-.96-.433-.96-.96ZM20.64,44.239c0-.527.432-.96.96-.96s.96.433.96.96-.432.961-.96.961-.96-.433-.96-.961ZM20.64,46.64c0-.527.432-.96.96-.96s.96.433.96.96-.432.96-.96.96-.96-.432-.96-.96ZM20.64,49.04c0-.528.432-.96.96-.96s.96.432.96.96-.432.96-.96.96-.96-.432-.96-.96ZM23.04,1.036c0-.528.432-.96.96-.96s.96.432.96.96-.433.96-.96.96-.96-.432-.96-.96ZM23.04,3.437c0-.528.432-.96.96-.96s.96.432.96.96-.433.96-.96.96-.96-.433-.96-.96ZM23.04,5.836c0-.527.432-.96.96-.96s.96.433.96.96-.433.961-.96.961-.96-.433-.96-.961ZM23.04,8.236c0-.527.432-.96.96-.96s.96.433.96.96-.433.96-.96.96-.96-.432-.96-.96ZM23.04,41.84c0-.528.432-.96.96-.96s.96.432.96.96-.433.96-.96.96-.96-.433-.96-.96ZM23.04,44.239c0-.527.432-.96.96-.96s.96.433.96.96-.433.961-.96.961-.96-.433-.96-.961ZM23.04,46.64c0-.527.432-.96.96-.96s.96.433.96.96-.433.96-.96.96-.96-.432-.96-.96ZM23.04,49.04c0-.528.432-.96.96-.96s.96.432.96.96-.433.96-.96.96-.96-.432-.96-.96ZM25.439,1.036c0-.528.433-.96.961-.96s.96.432.96.96-.433.96-.96.96-.961-.432-.961-.96ZM25.439,3.437c0-.528.433-.96.961-.96s.96.432.96.96-.433.96-.96.96-.961-.433-.961-.96ZM25.439,5.836c0-.527.433-.96.961-.96s.96.433.96.96-.433.961-.96.961-.961-.433-.961-.961ZM25.439,8.236c0-.527.433-.96.961-.96s.96.433.96.96-.433.96-.96.96-.961-.432-.961-.96ZM25.439,15.438c0-.528.433-.96.961-.96s.96.432.96.96-.433.96-.96.96-.961-.433-.961-.96ZM25.439,17.838c0-.528.433-.961.961-.961s.96.433.96.961-.433.96-.96.96-.961-.433-.961-.96ZM25.439,20.237c0-.527.433-.96.961-.96s.96.433.96.96-.433.96-.96.96-.961-.432-.961-.96ZM25.439,27.438c0-.528.433-.96.961-.96s.96.432.96.96-.433.96-.96.96-.961-.432-.961-.96ZM25.439,29.839c0-.528.433-.961.961-.961s.96.433.96.961-.433.96-.96.96-.961-.433-.961-.96ZM25.439,32.238c0-.527.433-.96.961-.96s.96.433.96.96-.433.961-.96.961-.961-.433-.961-.961ZM25.439,34.639c0-.527.433-.96.961-.96s.96.433.96.96-.433.96-.96.96-.961-.432-.961-.96ZM25.439,41.84c0-.528.433-.96.961-.96s.96.432.96.96-.433.96-.96.96-.961-.433-.961-.96ZM25.439,44.239c0-.527.433-.96.961-.96s.96.433.96.96-.433.961-.96.961-.961-.433-.961-.961ZM25.439,46.64c0-.527.433-.96.961-.96s.96.433.96.96-.433.96-.96.96-.961-.432-.961-.96ZM25.439,49.04c0-.528.433-.96.961-.96s.96.432.96.96-.433.96-.96.96-.961-.432-.961-.96ZM27.84,1.036c0-.528.433-.96.96-.96s.96.432.96.96-.432.96-.96.96-.96-.432-.96-.96ZM27.84,3.437c0-.528.433-.96.96-.96s.96.432.96.96-.432.96-.96.96-.96-.433-.96-.96ZM27.84,5.836c0-.527.433-.96.96-.96s.96.433.96.96-.432.961-.96.961-.96-.433-.96-.961ZM27.84,8.236c0-.527.433-.96.96-.96s.96.433.96.96-.432.96-.96.96-.96-.432-.96-.96ZM27.84,15.438c0-.528.433-.96.96-.96s.96.432.96.96-.432.96-.96.96-.96-.433-.96-.96ZM27.84,17.838c0-.528.433-.961.96-.961s.96.433.96.961-.432.96-.96.96-.96-.433-.96-.96ZM27.84,20.237c0-.527.433-.96.96-.96s.96.433.96.96-.432.96-.96.96-.96-.432-.96-.96ZM27.84,27.438c0-.528.433-.96.96-.96s.96.432.96.96-.432.96-.96.96-.96-.432-.96-.96ZM27.84,29.839c0-.528.433-.961.96-.961s.96.433.96.961-.432.96-.96.96-.96-.433-.96-.96ZM27.84,32.238c0-.527.433-.96.96-.96s.96.433.96.96-.432.961-.96.961-.96-.433-.96-.961ZM27.84,34.639c0-.527.433-.96.96-.96s.96.433.96.96-.432.96-.96.96-.96-.432-.96-.96ZM27.84,41.84c0-.528.433-.96.96-.96s.96.432.96.96-.432.96-.96.96-.96-.433-.96-.96ZM27.84,44.239c0-.527.433-.96.96-.96s.96.433.96.96-.432.961-.96.961-.96-.433-.96-.961ZM27.84,46.64c0-.527.433-.96.96-.96s.96.433.96.96-.432.96-.96.96-.96-.432-.96-.96ZM27.84,49.04c0-.528.433-.96.96-.96s.96.432.96.96-.432.96-.96.96-.96-.432-.96-.96ZM30.24,1.036c0-.528.432-.96.96-.96s.96.432.96.96-.432.96-.96.96-.96-.432-.96-.96ZM30.24,3.437c0-.528.432-.96.96-.96s.96.432.96.96-.432.96-.96.96-.96-.433-.96-.96ZM30.24,5.836c0-.527.432-.96.96-.96s.96.433.96.96-.432.961-.96.961-.96-.433-.96-.961ZM30.24,8.236c0-.527.432-.96.96-.96s.96.433.96.96-.432.96-.96.96-.96-.432-.96-.96ZM30.24,15.438c0-.528.432-.96.96-.96s.96.432.96.96-.432.96-.96.96-.96-.433-.96-.96ZM30.24,17.838c0-.528.432-.961.96-.961s.96.433.96.961-.432.96-.96.96-.96-.433-.96-.96ZM30.24,20.237c0-.527.432-.96.96-.96s.96.433.96.96-.432.96-.96.96-.96-.432-.96-.96ZM30.24,27.438c0-.528.432-.96.96-.96s.96.432.96.96-.432.96-.96.96-.96-.432-.96-.96ZM30.24,29.839c0-.528.432-.961.96-.961s.96.433.96.961-.432.96-.96.96-.96-.433-.96-.96ZM30.24,32.238c0-.527.432-.96.96-.96s.96.433.96.96-.432.961-.96.961-.96-.433-.96-.961ZM30.24,34.639c0-.527.432-.96.96-.96s.96.433.96.96-.432.96-.96.96-.96-.432-.96-.96ZM30.24,41.84c0-.528.432-.96.96-.96s.96.432.96.96-.432.96-.96.96-.96-.433-.96-.96ZM30.24,44.239c0-.527.432-.96.96-.96s.96.433.96.96-.432.961-.96.961-.96-.433-.96-.961ZM30.24,46.64c0-.527.432-.96.96-.96s.96.433.96.96-.432.96-.96.96-.96-.432-.96-.96ZM30.24,49.04c0-.528.432-.96.96-.96s.96.432.96.96-.432.96-.96.96-.96-.432-.96-.96ZM32.641,1.036c0-.528.432-.96.96-.96s.96.432.96.96-.432.96-.96.96-.96-.432-.96-.96ZM32.641,3.437c0-.528.432-.96.96-.96s.96.432.96.96-.432.96-.96.96-.96-.433-.96-.96ZM32.641,5.836c0-.527.432-.96.96-.96s.96.433.96.96-.432.961-.96.961-.96-.433-.96-.961ZM32.641,8.236c0-.527.432-.96.96-.96s.96.433.96.96-.432.96-.96.96-.96-.432-.96-.96ZM32.641,17.838c0-.528.432-.961.96-.961s.96.433.96.961-.432.96-.96.96-.96-.433-.96-.96ZM32.641,20.237c0-.527.432-.96.96-.96s.96.433.96.96-.432.96-.96.96-.96-.432-.96-.96ZM32.641,41.84c0-.528.432-.96.96-.96s.96.432.96.96-.432.96-.96.96-.96-.433-.96-.96ZM32.641,44.239c0-.527.432-.96.96-.96s.96.433.96.96-.432.961-.96.961-.96-.433-.96-.961ZM32.641,46.64c0-.527.432-.96.96-.96s.96.433.96.96-.432.96-.96.96-.96-.432-.96-.96ZM32.641,49.04c0-.528.432-.96.96-.96s.96.432.96.96-.432.96-.96.96-.96-.432-.96-.96ZM35.041,1.036c0-.528.432-.96.96-.96s.96.432.96.96-.432.96-.96.96-.96-.432-.96-.96ZM35.041,3.437c0-.528.432-.96.96-.96s.96.432.96.96-.432.96-.96.96-.96-.433-.96-.96ZM35.041,5.836c0-.527.432-.96.96-.96s.96.433.96.96-.432.961-.96.961-.96-.433-.96-.961ZM35.041,8.236c0-.527.432-.96.96-.96s.96.433.96.96-.432.96-.96.96-.96-.432-.96-.96ZM35.041,10.637c0-.528.432-.96.96-.96s.96.432.96.96-.432.96-.96.96-.96-.432-.96-.96ZM35.041,17.838c0-.528.432-.961.96-.961s.96.433.96.961-.432.96-.96.96-.96-.433-.96-.96ZM35.041,20.237c0-.527.432-.96.96-.96s.96.433.96.96-.432.96-.96.96-.96-.432-.96-.96ZM35.041,22.638c0-.528.432-.96.96-.96s.96.432.96.96-.432.96-.96.96-.96-.432-.96-.96ZM35.041,39.439c0-.528.432-.96.96-.96s.96.432.96.96-.432.96-.96.96-.96-.432-.96-.96ZM35.041,41.84c0-.528.432-.96.96-.96s.96.432.96.96-.432.96-.96.96-.96-.433-.96-.96ZM35.041,44.239c0-.527.432-.96.96-.96s.96.433.96.96-.432.961-.96.961-.96-.433-.96-.961ZM35.041,46.64c0-.527.432-.96.96-.96s.96.433.96.96-.432.96-.96.96-.96-.432-.96-.96ZM35.041,49.04c0-.528.432-.96.96-.96s.96.432.96.96-.432.96-.96.96-.96-.432-.96-.96Z"/><path class="cls-2" d="M47.039,10.637c0-.528.432-.96.96-.96s.96.432.96.96-.432.96-.96.96-.96-.432-.96-.96ZM47.039,13.037c0-.528.432-.96.96-.96s.96.432.96.96-.432.96-.96.96-.96-.432-.96-.96ZM47.039,15.438c0-.528.432-.96.96-.96s.96.432.96.96-.432.96-.96.96-.96-.433-.96-.96ZM47.039,29.839c0-.528.432-.961.96-.961s.96.433.96.961-.432.96-.96.96-.96-.433-.96-.96ZM47.039,32.238c0-.527.432-.96.96-.96s.96.433.96.96-.432.961-.96.961-.96-.433-.96-.961ZM47.039,34.639c0-.527.432-.96.96-.96s.96.433.96.96-.432.96-.96.96-.96-.432-.96-.96ZM47.039,37.039c0-.528.432-.96.96-.96s.96.432.96.96-.432.96-.96.96-.96-.432-.96-.96ZM47.039,39.439c0-.528.432-.96.96-.96s.96.432.96.96-.432.96-.96.96-.96-.432-.96-.96ZM49.439,10.637c0-.528.432-.96.96-.96s.96.432.96.96-.433.96-.96.96-.96-.432-.96-.96ZM49.439,13.037c0-.528.432-.96.96-.96s.96.432.96.96-.433.96-.96.96-.96-.432-.96-.96ZM49.439,15.438c0-.528.432-.96.96-.96s.96.432.96.96-.433.96-.96.96-.96-.433-.96-.96ZM49.439,27.438c0-.528.432-.96.96-.96s.96.432.96.96-.433.96-.96.96-.96-.432-.96-.96ZM49.439,29.839c0-.528.432-.961.96-.961s.96.433.96.961-.433.96-.96.96-.96-.433-.96-.96ZM49.439,32.238c0-.527.432-.96.96-.96s.96.433.96.96-.433.961-.96.961-.96-.433-.96-.961ZM49.439,34.639c0-.527.432-.96.96-.96s.96.433.96.96-.433.96-.96.96-.96-.432-.96-.96ZM49.439,37.039c0-.528.432-.96.96-.96s.96.432.96.96-.433.96-.96.96-.96-.432-.96-.96ZM49.439,39.439c0-.528.432-.96.96-.96s.96.432.96.96-.433.96-.96.96-.96-.432-.96-.96ZM51.839,10.637c0-.528.433-.96.961-.96s.96.432.96.96-.433.96-.96.96-.961-.432-.961-.96ZM51.839,13.037c0-.528.433-.96.961-.96s.96.432.96.96-.433.96-.96.96-.961-.432-.961-.96ZM51.839,25.038c0-.528.433-.96.961-.96s.96.432.96.96-.433.96-.96.96-.961-.432-.961-.96ZM51.839,27.438c0-.528.433-.96.961-.96s.96.432.96.96-.433.96-.96.96-.961-.432-.961-.96ZM51.839,29.839c0-.528.433-.961.961-.961s.96.433.96.961-.433.96-.96.96-.961-.433-.961-.96ZM51.839,37.039c0-.528.433-.96.961-.96s.96.432.96.96-.433.96-.96.96-.961-.432-.961-.96ZM51.839,39.439c0-.528.433-.96.961-.96s.96.432.96.96-.433.96-.96.96-.961-.432-.961-.96ZM54.239,10.637c0-.528.433-.96.96-.96s.96.432.96.96-.432.96-.96.96-.96-.432-.96-.96ZM54.239,13.037c0-.528.433-.96.96-.96s.96.432.96.96-.432.96-.96.96-.96-.432-.96-.96ZM54.239,22.638c0-.528.433-.96.96-.96s.96.432.96.96-.432.96-.96.96-.96-.432-.96-.96ZM54.239,25.038c0-.528.433-.96.96-.96s.96.432.96.96-.432.96-.96.96-.96-.432-.96-.96ZM54.239,27.438c0-.528.433-.96.96-.96s.96.432.96.96-.432.96-.96.96-.96-.432-.96-.96ZM54.239,37.039c0-.528.433-.96.96-.96s.96.432.96.96-.432.96-.96.96-.96-.432-.96-.96ZM54.239,39.439c0-.528.433-.96.96-.96s.96.432.96.96-.432.96-.96.96-.96-.432-.96-.96ZM56.64,10.637c0-.528.432-.96.96-.96s.96.432.96.96-.432.96-.96.96-.96-.432-.96-.96ZM56.64,13.037c0-.528.432-.96.96-.96s.96.432.96.96-.432.96-.96.96-.96-.432-.96-.96ZM56.64,20.237c0-.527.432-.96.96-.96s.96.433.96.96-.432.96-.96.96-.96-.432-.96-.96ZM56.64,22.638c0-.528.432-.96.96-.96s.96.432.96.96-.432.96-.96.96-.96-.432-.96-.96ZM56.64,25.038c0-.528.432-.96.96-.96s.96.432.96.96-.432.96-.96.96-.96-.432-.96-.96ZM56.64,37.039c0-.528.432-.96.96-.96s.96.432.96.96-.432.96-.96.96-.96-.432-.96-.96ZM56.64,39.439c0-.528.432-.96.96-.96s.96.432.96.96-.432.96-.96.96-.96-.432-.96-.96ZM59.04,10.637c0-.528.432-.96.96-.96s.96.432.96.96-.432.96-.96.96-.96-.432-.96-.96ZM59.04,13.037c0-.528.432-.96.96-.96s.96.432.96.96-.432.96-.96.96-.96-.432-.96-.96ZM59.04,15.438c0-.528.432-.96.96-.96s.96.432.96.96-.432.96-.96.96-.96-.433-.96-.96ZM59.04,17.838c0-.528.432-.961.96-.961s.96.433.96.961-.432.96-.96.96-.96-.433-.96-.96ZM59.04,20.237c0-.527.432-.96.96-.96s.96.433.96.96-.432.96-.96.96-.96-.432-.96-.96ZM59.04,22.638c0-.528.432-.96.96-.96s.96.432.96.96-.432.96-.96.96-.96-.432-.96-.96ZM59.04,34.639c0-.527.432-.96.96-.96s.96.433.96.96-.432.96-.96.96-.96-.432-.96-.96ZM59.04,37.039c0-.528.432-.96.96-.96s.96.432.96.96-.432.96-.96.96-.96-.432-.96-.96ZM59.04,39.439c0-.528.432-.96.96-.96s.96.432.96.96-.432.96-.96.96-.96-.432-.96-.96ZM61.44,10.637c0-.528.432-.96.96-.96s.96.432.96.96-.433.96-.96.96-.96-.432-.96-.96ZM61.44,13.037c0-.528.432-.96.96-.96s.96.432.96.96-.433.96-.96.96-.96-.432-.96-.96ZM61.44,15.438c0-.528.432-.96.96-.96s.96.432.96.96-.433.96-.96.96-.96-.433-.96-.96ZM61.44,17.838c0-.528.432-.961.96-.961s.96.433.96.961-.433.96-.96.96-.96-.433-.96-.96ZM61.44,20.237c0-.527.432-.96.96-.96s.96.433.96.96-.433.96-.96.96-.96-.432-.96-.96ZM61.44,34.639c0-.527.432-.96.96-.96s.96.433.96.96-.433.96-.96.96-.96-.432-.96-.96ZM61.44,37.039c0-.528.432-.96.96-.96s.96.432.96.96-.433.96-.96.96-.96-.432-.96-.96ZM61.44,39.439c0-.528.432-.96.96-.96s.96.432.96.96-.433.96-.96.96-.96-.432-.96-.96Z"/><path class="cls-2" d="M66.238,20.237c0-.527.432-.96.96-.96s.96.433.96.96-.432.96-.96.96-.96-.432-.96-.96ZM66.238,22.638c0-.528.432-.96.96-.96s.96.432.96.96-.432.96-.96.96-.96-.432-.96-.96ZM66.238,25.038c0-.528.432-.96.96-.96s.96.432.96.96-.432.96-.96.96-.96-.432-.96-.96ZM66.238,27.438c0-.528.432-.96.96-.96s.96.432.96.96-.432.96-.96.96-.96-.432-.96-.96ZM66.238,29.839c0-.528.432-.961.96-.961s.96.433.96.961-.432.96-.96.96-.96-.433-.96-.96ZM66.238,32.238c0-.527.432-.96.96-.96s.96.433.96.96-.432.961-.96.961-.96-.433-.96-.961ZM66.238,34.639c0-.527.432-.96.96-.96s.96.433.96.96-.432.96-.96.96-.96-.432-.96-.96ZM66.238,37.039c0-.528.432-.96.96-.96s.96.432.96.96-.432.96-.96.96-.96-.432-.96-.96ZM68.639,20.237c0-.527.432-.96.96-.96s.96.433.96.96-.433.96-.96.96-.96-.432-.96-.96ZM68.639,22.638c0-.528.432-.96.96-.96s.96.432.96.96-.433.96-.96.96-.96-.432-.96-.96ZM68.639,25.038c0-.528.432-.96.96-.96s.96.432.96.96-.433.96-.96.96-.96-.432-.96-.96ZM68.639,27.438c0-.528.432-.96.96-.96s.96.432.96.96-.433.96-.96.96-.96-.432-.96-.96ZM68.639,29.839c0-.528.432-.961.96-.961s.96.433.96.961-.433.96-.96.96-.96-.433-.96-.96ZM68.639,32.238c0-.527.432-.96.96-.96s.96.433.96.96-.433.961-.96.961-.96-.433-.96-.961ZM68.639,34.639c0-.527.432-.96.96-.96s.96.433.96.96-.433.96-.96.96-.96-.432-.96-.96ZM68.639,37.039c0-.528.432-.96.96-.96s.96.432.96.96-.433.96-.96.96-.96-.432-.96-.96ZM68.639,39.439c0-.528.432-.96.96-.96s.96.432.96.96-.433.96-.96.96-.96-.432-.96-.96ZM71.038,37.039c0-.528.433-.96.961-.96s.96.432.96.96-.433.96-.96.96-.961-.432-.961-.96ZM71.038,39.439c0-.528.433-.96.961-.96s.96.432.96.96-.433.96-.96.96-.961-.432-.961-.96ZM73.438,37.039c0-.528.433-.96.96-.96s.96.432.96.96-.432.96-.96.96-.96-.432-.96-.96ZM75.839,20.237c0-.527.432-.96.96-.96s.96.433.96.96-.432.96-.96.96-.96-.432-.96-.96ZM75.839,22.638c0-.528.432-.96.96-.96s.96.432.96.96-.432.96-.96.96-.96-.432-.96-.96ZM75.839,25.038c0-.528.432-.96.96-.96s.96.432.96.96-.432.96-.96.96-.96-.432-.96-.96ZM75.839,27.438c0-.528.432-.96.96-.96s.96.432.96.96-.432.96-.96.96-.96-.432-.96-.96ZM75.839,29.839c0-.528.432-.961.96-.961s.96.433.96.961-.432.96-.96.96-.96-.433-.96-.96ZM75.839,32.238c0-.527.432-.96.96-.96s.96.433.96.96-.432.961-.96.961-.96-.433-.96-.961ZM75.839,34.639c0-.527.432-.96.96-.96s.96.433.96.96-.432.96-.96.96-.96-.432-.96-.96ZM75.839,37.039c0-.528.432-.96.96-.96s.96.432.96.96-.432.96-.96.96-.96-.432-.96-.96ZM75.839,39.439c0-.528.432-.96.96-.96s.96.432.96.96-.432.96-.96.96-.96-.432-.96-.96ZM78.239,20.237c0-.527.432-.96.96-.96s.96.433.96.96-.432.96-.96.96-.96-.432-.96-.96ZM78.239,22.638c0-.528.432-.96.96-.96s.96.432.96.96-.432.96-.96.96-.96-.432-.96-.96ZM78.239,25.038c0-.528.432-.96.96-.96s.96.432.96.96-.432.96-.96.96-.96-.432-.96-.96ZM78.239,27.438c0-.528.432-.96.96-.96s.96.432.96.96-.432.96-.96.96-.96-.432-.96-.96ZM78.239,29.839c0-.528.432-.961.96-.961s.96.433.96.961-.432.96-.96.96-.96-.433-.96-.96ZM78.239,32.238c0-.527.432-.96.96-.96s.96.433.96.96-.432.961-.96.961-.96-.433-.96-.961ZM78.239,34.639c0-.527.432-.96.96-.96s.96.433.96.96-.432.96-.96.96-.96-.432-.96-.96ZM78.239,37.039c0-.528.432-.96.96-.96s.96.432.96.96-.432.96-.96.96-.96-.432-.96-.96ZM78.239,39.439c0-.528.432-.96.96-.96s.96.432.96.96-.432.96-.96.96-.96-.432-.96-.96Z"/><path class="cls-2" d="M83.038,22.638c0-.528.432-.96.96-.96s.96.432.96.96-.432.96-.96.96-.96-.432-.96-.96ZM83.038,25.038c0-.528.432-.96.96-.96s.96.432.96.96-.432.96-.96.96-.96-.432-.96-.96ZM83.038,27.438c0-.528.432-.96.96-.96s.96.432.96.96-.432.96-.96.96-.96-.432-.96-.96ZM83.038,29.839c0-.528.432-.961.96-.961s.96.433.96.961-.432.96-.96.96-.96-.433-.96-.96ZM83.038,32.238c0-.527.432-.96.96-.96s.96.433.96.96-.432.961-.96.961-.96-.433-.96-.961ZM83.038,34.639c0-.527.432-.96.96-.96s.96.433.96.96-.432.96-.96.96-.96-.432-.96-.96ZM83.038,41.84c0-.528.432-.96.96-.96s.96.432.96.96-.432.96-.96.96-.96-.433-.96-.96ZM83.038,44.239c0-.527.432-.96.96-.96s.96.433.96.96-.432.961-.96.961-.96-.433-.96-.961ZM85.438,20.237c0-.527.432-.96.96-.96s.96.433.96.96-.433.96-.96.96-.96-.432-.96-.96ZM85.438,22.638c0-.528.432-.96.96-.96s.96.432.96.96-.433.96-.96.96-.96-.432-.96-.96ZM85.438,25.038c0-.528.432-.96.96-.96s.96.432.96.96-.433.96-.96.96-.96-.432-.96-.96ZM85.438,27.438c0-.528.432-.96.96-.96s.96.432.96.96-.433.96-.96.96-.96-.432-.96-.96ZM85.438,29.839c0-.528.432-.961.96-.961s.96.433.96.961-.433.96-.96.96-.96-.433-.96-.96ZM85.438,32.238c0-.527.432-.96.96-.96s.96.433.96.96-.433.961-.96.961-.96-.433-.96-.961ZM85.438,34.639c0-.527.432-.96.96-.96s.96.433.96.96-.433.96-.96.96-.96-.432-.96-.96ZM85.438,37.039c0-.528.432-.96.96-.96s.96.432.96.96-.433.96-.96.96-.96-.432-.96-.96ZM85.438,44.239c0-.527.432-.96.96-.96s.96.433.96.96-.433.961-.96.961-.96-.433-.96-.961ZM85.438,46.64c0-.527.432-.96.96-.96s.96.433.96.96-.433.96-.96.96-.96-.432-.96-.96ZM87.838,20.237c0-.527.433-.96.961-.96s.96.433.96.96-.433.96-.96.96-.961-.432-.961-.96ZM87.838,22.638c0-.528.433-.96.961-.96s.96.432.96.96-.433.96-.96.96-.961-.432-.961-.96ZM87.838,34.639c0-.527.433-.96.961-.96s.96.433.96.96-.433.96-.96.96-.961-.432-.961-.96ZM87.838,37.039c0-.528.433-.96.961-.96s.96.432.96.96-.433.96-.96.96-.961-.432-.961-.96ZM87.838,44.239c0-.527.433-.96.961-.96s.96.433.96.96-.433.961-.96.961-.961-.433-.961-.961ZM87.838,46.64c0-.527.433-.96.961-.96s.96.433.96.96-.433.96-.96.96-.961-.432-.961-.96ZM90.238,20.237c0-.527.433-.96.96-.96s.96.433.96.96-.432.96-.96.96-.96-.432-.96-.96ZM90.238,22.638c0-.528.433-.96.96-.96s.96.432.96.96-.432.96-.96.96-.96-.432-.96-.96ZM90.238,34.639c0-.527.433-.96.96-.96s.96.433.96.96-.432.96-.96.96-.96-.432-.96-.96ZM90.238,37.039c0-.528.433-.96.96-.96s.96.432.96.96-.432.96-.96.96-.96-.432-.96-.96ZM90.238,44.239c0-.527.433-.96.96-.96s.96.433.96.96-.432.961-.96.961-.96-.433-.96-.961ZM90.238,46.64c0-.527.433-.96.96-.96s.96.433.96.96-.432.96-.96.96-.96-.432-.96-.96ZM92.639,22.638c0-.528.432-.96.96-.96s.96.432.96.96-.432.96-.96.96-.96-.432-.96-.96ZM92.639,25.038c0-.528.432-.96.96-.96s.96.432.96.96-.432.96-.96.96-.96-.432-.96-.96ZM92.639,27.438c0-.528.432-.96.96-.96s.96.432.96.96-.432.96-.96.96-.96-.432-.96-.96ZM92.639,29.839c0-.528.432-.961.96-.961s.96.433.96.961-.432.96-.96.96-.96-.433-.96-.96ZM92.639,32.238c0-.527.432-.96.96-.96s.96.433.96.96-.432.961-.96.961-.96-.433-.96-.961ZM92.639,34.639c0-.527.432-.96.96-.96s.96.433.96.96-.432.96-.96.96-.96-.432-.96-.96ZM92.639,37.039c0-.528.432-.96.96-.96s.96.432.96.96-.432.96-.96.96-.96-.432-.96-.96ZM92.639,39.439c0-.528.432-.96.96-.96s.96.432.96.96-.432.96-.96.96-.96-.432-.96-.96ZM92.639,41.84c0-.528.432-.96.96-.96s.96.432.96.96-.432.96-.96.96-.96-.433-.96-.96ZM92.639,44.239c0-.527.432-.96.96-.96s.96.433.96.96-.432.961-.96.961-.96-.433-.96-.961ZM92.639,46.64c0-.527.432-.96.96-.96s.96.433.96.96-.432.96-.96.96-.96-.432-.96-.96ZM95.039,20.237c0-.527.432-.96.96-.96s.96.433.96.96-.432.96-.96.96-.96-.432-.96-.96ZM95.039,22.638c0-.528.432-.96.96-.96s.96.432.96.96-.432.96-.96.96-.96-.432-.96-.96ZM95.039,25.038c0-.528.432-.96.96-.96s.96.432.96.96-.432.96-.96.96-.96-.432-.96-.96ZM95.039,27.438c0-.528.432-.96.96-.96s.96.432.96.96-.432.96-.96.96-.96-.432-.96-.96ZM95.039,29.839c0-.528.432-.961.96-.961s.96.433.96.961-.432.96-.96.96-.96-.433-.96-.96ZM95.039,32.238c0-.527.432-.96.96-.96s.96.433.96.96-.432.961-.96.961-.96-.433-.96-.961ZM95.039,34.639c0-.527.432-.96.96-.96s.96.433.96.96-.432.96-.96.96-.96-.432-.96-.96ZM95.039,37.039c0-.528.432-.96.96-.96s.96.432.96.96-.432.96-.96.96-.96-.432-.96-.96ZM95.039,39.439c0-.528.432-.96.96-.96s.96.432.96.96-.432.96-.96.96-.96-.432-.96-.96ZM95.039,41.84c0-.528.432-.96.96-.96s.96.432.96.96-.432.96-.96.96-.96-.433-.96-.96ZM95.039,44.239c0-.527.432-.96.96-.96s.96.433.96.96-.432.961-.96.961-.96-.433-.96-.961Z"/></svg>