<?xml version="1.0" encoding="UTF-8"?><svg id="Ebene_1" xmlns="http://www.w3.org/2000/svg" viewBox="0 0 100 50"><defs><style>.cls-1{fill:#fe0;}.cls-2{fill:#fff;}</style></defs><path class="cls-1" d="M10.617,18.109v10.618H-.001v-10.618h10.618ZM10.617,31.382v10.618H-.001v-10.618h10.618ZM23.89,18.109v10.618h-10.618v-10.618h10.618ZM23.89,31.382v10.618h-10.618v-10.618h10.618Z"/><path class="cls-2" d="M39.816,23.418c0-2.92,2.389-5.309,5.309-5.309s5.309,2.389,5.309,5.309-2.389,5.309-5.309,5.309-5.309-2.389-5.309-5.309ZM39.816,36.691c0-2.92,2.389-5.309,5.309-5.309s5.309,2.389,5.309,5.309-2.389,5.309-5.309,5.309-5.309-2.389-5.309-5.309ZM53.089,23.418c0-2.92,2.389-5.309,5.309-5.309s5.309,2.389,5.309,5.309-2.389,5.309-5.309,5.309-5.309-2.389-5.309-5.309ZM53.089,36.691c0-2.92,2.389-5.309,5.309-5.309s5.309,2.389,5.309,5.309-2.389,5.309-5.309,5.309-5.309-2.389-5.309-5.309Z"/></svg>