<?xml version="1.0" encoding="UTF-8"?><svg id="Ebene_1" xmlns="http://www.w3.org/2000/svg" viewBox="0 0 210 19"><defs><style>.cls-1{fill:#fe0;}.cls-2{fill:#5a5a5a;}</style></defs><path class="cls-1" d="M0,4.071h2.79v1.488h.062c.744-1.219,2.025-1.777,3.265-1.777,3.12,0,3.905,1.756,3.905,4.401v6.571h-2.934v-6.034c0-1.756-.496-2.624-1.881-2.624-1.591,0-2.273.889-2.273,3.058v5.6H0V4.071Z"/><path class="cls-1" d="M16.119,12.832c2.004,0,2.604-1.695,2.604-3.41s-.6-3.43-2.604-3.43c-1.984,0-2.583,1.715-2.583,3.43s.599,3.41,2.583,3.41M16.119,3.781c3.368,0,5.538,2.232,5.538,5.641,0,3.389-2.17,5.621-5.538,5.621-3.347,0-5.517-2.232-5.517-5.621,0-3.409,2.17-5.641,5.517-5.641"/><path class="cls-1" d="M24.797,11.282c0,1.261,1.116,1.798,2.252,1.798.827,0,1.922-.331,1.922-1.364,0-.889-1.24-1.219-3.327-1.653-1.715-.393-3.389-.951-3.389-2.852,0-2.727,2.356-3.43,4.65-3.43,2.314,0,4.484.785,4.711,3.41h-2.79c-.082-1.137-.95-1.447-2.004-1.447-.661,0-1.632.103-1.632.992,0,1.054,1.673,1.198,3.326,1.591,1.716.393,3.389,1.013,3.389,2.996,0,2.811-2.459,3.72-4.877,3.72-2.479,0-4.918-.93-5.021-3.761h2.79Z"/><path class="cls-1" d="M39.982,8.265c-.268-1.488-.909-2.273-2.335-2.273-1.901,0-2.376,1.447-2.438,2.273h4.773ZM35.209,10.125c.083,1.88.971,2.707,2.625,2.707,1.177,0,2.128-.723,2.314-1.384h2.583c-.827,2.541-2.583,3.595-5.001,3.595-3.368,0-5.455-2.314-5.455-5.621,0-3.203,2.211-5.641,5.455-5.641,3.637,0,5.414,3.058,5.187,6.344h-7.708Z"/><path class="cls-2" d="M52.899,5.992c-1.921,0-2.582,1.674-2.582,3.41,0,1.674.764,3.43,2.582,3.43,1.922,0,2.522-1.694,2.522-3.451,0-1.736-.62-3.389-2.522-3.389M55.462,13.39h-.041c-.682,1.157-1.86,1.653-3.245,1.653-3.223,0-4.794-2.748-4.794-5.724,0-2.872,1.591-5.538,4.732-5.538,1.261,0,2.501.537,3.162,1.591h.041V0h2.935v14.754h-2.79v-1.364Z"/><path class="cls-2" d="M66.619,8.265c-.268-1.488-.909-2.273-2.335-2.273-1.901,0-2.376,1.447-2.438,2.273h4.773ZM61.846,10.125c.083,1.88.971,2.707,2.625,2.707,1.177,0,2.128-.723,2.314-1.384h2.583c-.827,2.541-2.583,3.595-5.001,3.595-3.368,0-5.455-2.314-5.455-5.621,0-3.203,2.211-5.641,5.455-5.641,3.637,0,5.414,3.058,5.187,6.344h-7.708Z"/><path class="cls-2" d="M72.528,11.282c0,1.261,1.116,1.798,2.252,1.798.827,0,1.922-.331,1.922-1.364,0-.889-1.24-1.219-3.327-1.653-1.715-.393-3.389-.951-3.389-2.852,0-2.727,2.356-3.43,4.65-3.43,2.314,0,4.484.785,4.711,3.41h-2.789c-.083-1.137-.951-1.447-2.005-1.447-.661,0-1.632.103-1.632.992,0,1.054,1.673,1.198,3.326,1.591,1.716.393,3.389,1.013,3.389,2.996,0,2.811-2.459,3.72-4.876,3.72-2.48,0-4.918-.93-5.022-3.761h2.79Z"/><path class="cls-2" d="M80.4,14.754h2.935V4.07h-2.935v10.684ZM80.4,2.418h2.935V0h-2.935v2.418Z"/><path class="cls-2" d="M91.808,9.278c0-1.736-.599-3.286-2.5-3.286-1.653,0-2.377,1.447-2.377,3.038,0,1.529.559,3.203,2.377,3.203,1.674,0,2.5-1.426,2.5-2.955M94.598,14.072c0,1.756-.641,4.732-5.538,4.732-2.108,0-4.546-1.013-4.711-3.43h2.913c.269,1.095,1.137,1.467,2.191,1.467,1.632,0,2.376-1.095,2.355-2.645v-1.405h-.041c-.64,1.136-1.901,1.653-3.203,1.653-3.224,0-4.567-2.438-4.567-5.373,0-2.769,1.612-5.29,4.588-5.29,1.405,0,2.459.476,3.182,1.715h.041v-1.425h2.79v10.001Z"/><path class="cls-2" d="M95.632,4.071h2.79v1.488h.062c.744-1.219,2.025-1.777,3.264-1.777,3.121,0,3.906,1.756,3.906,4.401v6.571h-2.934v-6.034c0-1.756-.496-2.624-1.881-2.624-1.591,0-2.273.889-2.273,3.058v5.6h-2.934V4.071Z"/><path class="cls-2" d="M118.466,8.265c-.268-1.488-.909-2.273-2.335-2.273-1.901,0-2.376,1.447-2.438,2.273h4.773ZM113.693,10.125c.083,1.88.971,2.707,2.625,2.707,1.177,0,2.128-.723,2.314-1.384h2.583c-.827,2.541-2.583,3.595-5.001,3.595-3.368,0-5.455-2.314-5.455-5.621,0-3.203,2.211-5.641,5.455-5.641,3.637,0,5.414,3.058,5.187,6.344h-7.708Z"/><polygon class="cls-2" points="124.256 9.133 120.743 4.07 124.091 4.07 125.971 6.86 127.831 4.07 131.075 4.07 127.562 9.071 131.509 14.754 128.162 14.754 125.93 11.386 123.698 14.754 120.412 14.754 124.256 9.133"/><path class="cls-2" d="M139.813,9.444c0-1.715-.682-3.451-2.562-3.451-1.922,0-2.542,1.715-2.542,3.451s.661,3.388,2.562,3.388c1.922,0,2.542-1.653,2.542-3.388M131.878,4.071h2.79v1.364h.041c.723-1.157,1.86-1.653,3.182-1.653,3.348,0,4.856,2.707,4.856,5.744,0,2.852-1.549,5.518-4.691,5.518-1.301,0-2.479-.558-3.202-1.612h-.042v5.083h-2.934V4.071Z"/><path class="cls-2" d="M151.234,8.265c-.268-1.488-.909-2.273-2.335-2.273-1.901,0-2.376,1.447-2.438,2.273h4.773ZM146.461,10.125c.083,1.88.971,2.707,2.624,2.707,1.178,0,2.129-.723,2.314-1.384h2.584c-.827,2.541-2.584,3.595-5.001,3.595-3.368,0-5.455-2.314-5.455-5.621,0-3.203,2.211-5.641,5.455-5.641,3.637,0,5.414,3.058,5.187,6.344h-7.708Z"/><path class="cls-2" d="M154.87,4.071h2.79v1.984h.041c.558-1.343,1.942-2.273,3.409-2.273.228,0,.435.041.641.103v2.728c-.268-.062-.703-.104-1.054-.104-2.17,0-2.893,1.53-2.893,3.431v4.814h-2.934V4.071Z"/><path class="cls-2" d="M162.244,14.754h2.934V4.07h-2.934v10.684ZM162.244,2.418h2.934V0h-2.934v2.418Z"/><path class="cls-2" d="M173.65,8.265c-.268-1.488-.909-2.273-2.335-2.273-1.901,0-2.376,1.447-2.438,2.273h4.773ZM168.877,10.125c.083,1.88.971,2.707,2.624,2.707,1.178,0,2.129-.723,2.315-1.384h2.583c-.827,2.541-2.583,3.595-5.001,3.595-3.368,0-5.455-2.314-5.455-5.621,0-3.203,2.211-5.641,5.455-5.641,3.637,0,5.414,3.058,5.187,6.344h-7.708Z"/><path class="cls-2" d="M177.286,4.071h2.79v1.488h.062c.743-1.219,2.025-1.777,3.264-1.777,3.121,0,3.906,1.756,3.906,4.401v6.571h-2.934v-6.034c0-1.756-.496-2.624-1.881-2.624-1.591,0-2.273.889-2.273,3.058v5.6h-2.934V4.071Z"/><path class="cls-2" d="M195.697,7.831c-.186-1.219-.909-1.839-2.17-1.839-1.88,0-2.5,1.901-2.5,3.471,0,1.55.599,3.369,2.438,3.369,1.385,0,2.149-.848,2.335-2.17h2.831c-.392,2.831-2.314,4.381-5.145,4.381-3.224,0-5.393-2.273-5.393-5.476,0-3.327,1.983-5.786,5.455-5.786,2.521,0,4.856,1.322,5.021,4.05h-2.872Z"/><path class="cls-2" d="M206.809,8.265c-.268-1.488-.909-2.273-2.335-2.273-1.901,0-2.376,1.447-2.438,2.273h4.773ZM202.036,10.125c.083,1.88.971,2.707,2.625,2.707,1.177,0,2.128-.723,2.314-1.384h2.583c-.827,2.541-2.583,3.595-5.001,3.595-3.368,0-5.455-2.314-5.455-5.621,0-3.203,2.211-5.641,5.455-5.641,3.637,0,5.414,3.058,5.187,6.344h-7.708Z"/></svg>