<svg xmlns="http://www.w3.org/2000/svg" width="3900" height="640" viewBox="0 0 3900 640"><g fill="none" fill-rule="evenodd"><g fill="#FFF" opacity=".2"><circle cx="3020" cy="620" r="20"/><circle cx="3070" cy="620" r="20"/><circle cx="3120" cy="620" r="20"/><circle cx="3170" cy="620" r="20"/><circle cx="3220" cy="620" r="20"/><circle cx="3270" cy="620" r="20"/><circle cx="3320" cy="620" r="20"/><circle cx="3370" cy="620" r="20"/><circle cx="3420" cy="620" r="20"/><circle cx="3470" cy="620" r="20"/><circle cx="3520" cy="620" r="20"/><circle cx="3570" cy="620" r="20"/><circle cx="3620" cy="620" r="20"/><circle cx="3670" cy="620" r="20"/><circle cx="3720" cy="620" r="20"/><circle cx="3770" cy="620" r="20"/><circle cx="3820" cy="620" r="20"/><circle cx="3870" cy="620" r="20"/><circle cx="2970" cy="620" r="20"/><circle cx="2920" cy="620" r="20"/><circle cx="2870" cy="620" r="20"/><circle cx="2820" cy="620" r="20"/><circle cx="2770" cy="620" r="20"/><circle cx="2720" cy="620" r="20"/><circle cx="2670" cy="620" r="20"/><circle cx="2620" cy="620" r="20"/><circle cx="2570" cy="620" r="20"/><circle cx="2520" cy="620" r="20"/><circle cx="2470" cy="620" r="20"/><circle cx="2420" cy="620" r="20"/><circle cx="2370" cy="620" r="20"/><circle cx="2320" cy="620" r="20"/><circle cx="2270" cy="620" r="20"/><circle cx="2220" cy="620" r="20"/><circle cx="2170" cy="620" r="20"/><circle cx="2120" cy="620" r="20"/><circle cx="2070" cy="620" r="20"/><circle cx="2020" cy="620" r="20"/><circle cx="1970" cy="620" r="20"/><circle cx="1920" cy="620" r="20"/><circle cx="1870" cy="620" r="20"/><circle cx="1820" cy="620" r="20"/><circle cx="1770" cy="620" r="20"/><circle cx="1720" cy="620" r="20"/><circle cx="1670" cy="620" r="20"/><circle cx="1620" cy="620" r="20"/><circle cx="1570" cy="620" r="20"/><circle cx="1520" cy="620" r="20"/><circle cx="1470" cy="620" r="20"/><circle cx="1420" cy="620" r="20"/><circle cx="1370" cy="620" r="20"/><circle cx="1320" cy="620" r="20"/><circle cx="1270" cy="620" r="20"/><circle cx="1220" cy="620" r="20"/><circle cx="1170" cy="620" r="20"/><circle cx="1120" cy="620" r="20"/><circle cx="1070" cy="620" r="20"/><circle cx="1020" cy="620" r="20"/><circle cx="970" cy="620" r="20"/><circle cx="920" cy="620" r="20"/><circle cx="870" cy="620" r="20"/><circle cx="820" cy="620" r="20"/><circle cx="770" cy="620" r="20"/><circle cx="720" cy="620" r="20"/><circle cx="670" cy="620" r="20"/><circle cx="620" cy="620" r="20"/><circle cx="570" cy="620" r="20"/><circle cx="520" cy="620" r="20"/><circle cx="470" cy="620" r="20"/><circle cx="420" cy="620" r="20"/><circle cx="370" cy="620" r="20"/><circle cx="320" cy="620" r="20"/><circle cx="270" cy="620" r="20"/><circle cx="220" cy="620" r="20"/><circle cx="170" cy="620" r="20"/><circle cx="120" cy="620" r="20"/><circle cx="70" cy="620" r="20"/><circle cx="20" cy="620" r="20"/><circle cx="3020" cy="570" r="20"/><circle cx="3070" cy="570" r="20"/><circle cx="3120" cy="570" r="20"/><circle cx="3170" cy="570" r="20"/><circle cx="3220" cy="570" r="20"/><circle cx="3270" cy="570" r="20"/><circle cx="3320" cy="570" r="20"/><circle cx="3370" cy="570" r="20"/><circle cx="3420" cy="570" r="20"/><circle cx="3470" cy="570" r="20"/><circle cx="3520" cy="570" r="20"/><circle cx="3570" cy="570" r="20"/><circle cx="3620" cy="570" r="20"/><circle cx="3670" cy="570" r="20"/><circle cx="3720" cy="570" r="20"/><circle cx="3770" cy="570" r="20"/><circle cx="3820" cy="570" r="20"/><circle cx="3870" cy="570" r="20"/><circle cx="2970" cy="570" r="20"/><circle cx="2920" cy="570" r="20"/><circle cx="2870" cy="570" r="20"/><circle cx="2820" cy="570" r="20"/><circle cx="2770" cy="570" r="20"/><circle cx="2720" cy="570" r="20"/><circle cx="2670" cy="570" r="20"/><circle cx="2620" cy="570" r="20"/><circle cx="2570" cy="570" r="20"/><circle cx="2520" cy="570" r="20"/><circle cx="2470" cy="570" r="20"/><circle cx="2420" cy="570" r="20"/><circle cx="2370" cy="570" r="20"/><circle cx="2320" cy="570" r="20"/><circle cx="2270" cy="570" r="20"/><circle cx="2220" cy="570" r="20"/><circle cx="2170" cy="570" r="20"/><circle cx="2120" cy="570" r="20"/><circle cx="2070" cy="570" r="20"/><circle cx="2020" cy="570" r="20"/><circle cx="1970" cy="570" r="20"/><circle cx="1920" cy="570" r="20"/><circle cx="1870" cy="570" r="20"/><circle cx="1820" cy="570" r="20"/><circle cx="1770" cy="570" r="20"/><circle cx="1720" cy="570" r="20"/><circle cx="1670" cy="570" r="20"/><circle cx="1620" cy="570" r="20"/><circle cx="1570" cy="570" r="20"/><circle cx="1520" cy="570" r="20"/><circle cx="1470" cy="570" r="20"/><circle cx="1420" cy="570" r="20"/><circle cx="1370" cy="570" r="20"/><circle cx="1320" cy="570" r="20"/><circle cx="1270" cy="570" r="20"/><circle cx="1220" cy="570" r="20"/><circle cx="1170" cy="570" r="20"/><circle cx="1120" cy="570" r="20"/><circle cx="1070" cy="570" r="20"/><circle cx="1020" cy="570" r="20"/><circle cx="970" cy="570" r="20"/><circle cx="920" cy="570" r="20"/><circle cx="870" cy="570" r="20"/><circle cx="820" cy="570" r="20"/><circle cx="770" cy="570" r="20"/><circle cx="720" cy="570" r="20"/><circle cx="670" cy="570" r="20"/><circle cx="620" cy="570" r="20"/><circle cx="570" cy="570" r="20"/><circle cx="520" cy="570" r="20"/><circle cx="470" cy="570" r="20"/><circle cx="420" cy="570" r="20"/><circle cx="370" cy="570" r="20"/><circle cx="320" cy="570" r="20"/><circle cx="270" cy="570" r="20"/><circle cx="220" cy="570" r="20"/><circle cx="170" cy="570" r="20"/><circle cx="120" cy="570" r="20"/><circle cx="70" cy="570" r="20"/><circle cx="20" cy="570" r="20"/><circle cx="3020" cy="520" r="20"/><circle cx="3070" cy="520" r="20"/><circle cx="3120" cy="520" r="20"/><circle cx="3170" cy="520" r="20"/><circle cx="3220" cy="520" r="20"/><circle cx="3270" cy="520" r="20"/><circle cx="3320" cy="520" r="20"/><circle cx="3370" cy="520" r="20"/><circle cx="3420" cy="520" r="20"/><circle cx="3470" cy="520" r="20"/><circle cx="3520" cy="520" r="20"/><circle cx="3570" cy="520" r="20"/><circle cx="3620" cy="520" r="20"/><circle cx="3670" cy="520" r="20"/><circle cx="3720" cy="520" r="20"/><circle cx="3770" cy="520" r="20"/><circle cx="3820" cy="520" r="20"/><circle cx="3870" cy="520" r="20"/><circle cx="2970" cy="520" r="20"/><circle cx="2920" cy="520" r="20"/><circle cx="2870" cy="520" r="20"/><circle cx="2820" cy="520" r="20"/><circle cx="2770" cy="520" r="20"/><circle cx="2720" cy="520" r="20"/><circle cx="2670" cy="520" r="20"/><circle cx="2620" cy="520" r="20"/><circle cx="2570" cy="520" r="20"/><circle cx="2520" cy="520" r="20"/><circle cx="2470" cy="520" r="20"/><circle cx="2420" cy="520" r="20"/><circle cx="2370" cy="520" r="20"/><circle cx="2320" cy="520" r="20"/><circle cx="2270" cy="520" r="20"/><circle cx="2220" cy="520" r="20"/><circle cx="2170" cy="520" r="20"/><circle cx="2120" cy="520" r="20"/><circle cx="2070" cy="520" r="20"/><circle cx="2020" cy="520" r="20"/><circle cx="1970" cy="520" r="20"/><circle cx="1920" cy="520" r="20"/><circle cx="1870" cy="520" r="20"/><circle cx="1820" cy="520" r="20"/><circle cx="1770" cy="520" r="20"/><circle cx="1720" cy="520" r="20"/><circle cx="1670" cy="520" r="20"/><circle cx="1620" cy="520" r="20"/><circle cx="1570" cy="520" r="20"/><circle cx="1520" cy="520" r="20"/><circle cx="1470" cy="520" r="20"/><circle cx="1420" cy="520" r="20"/><circle cx="1370" cy="520" r="20"/><circle cx="1320" cy="520" r="20"/><circle cx="1270" cy="520" r="20"/><circle cx="1220" cy="520" r="20"/><circle cx="1170" cy="520" r="20"/><circle cx="1120" cy="520" r="20"/><circle cx="1070" cy="520" r="20"/><circle cx="1020" cy="520" r="20"/><circle cx="970" cy="520" r="20"/><circle cx="920" cy="520" r="20"/><circle cx="870" cy="520" r="20"/><circle cx="820" cy="520" r="20"/><circle cx="770" cy="520" r="20"/><circle cx="720" cy="520" r="20"/><circle cx="670" cy="520" r="20"/><circle cx="620" cy="520" r="20"/><circle cx="570" cy="520" r="20"/><circle cx="520" cy="520" r="20"/><circle cx="470" cy="520" r="20"/><circle cx="420" cy="520" r="20"/><circle cx="370" cy="520" r="20"/><circle cx="320" cy="520" r="20"/><circle cx="270" cy="520" r="20"/><circle cx="220" cy="520" r="20"/><circle cx="170" cy="520" r="20"/><circle cx="120" cy="520" r="20"/><circle cx="70" cy="520" r="20"/><circle cx="20" cy="520" r="20"/><circle cx="3020" cy="470" r="20"/><circle cx="3070" cy="470" r="20"/><circle cx="3120" cy="470" r="20"/><circle cx="3170" cy="470" r="20"/><circle cx="3220" cy="470" r="20"/><circle cx="3270" cy="470" r="20"/><circle cx="3320" cy="470" r="20"/><circle cx="3370" cy="470" r="20"/><circle cx="3420" cy="470" r="20"/><circle cx="3470" cy="470" r="20"/><circle cx="3520" cy="470" r="20"/><circle cx="3570" cy="470" r="20"/><circle cx="3620" cy="470" r="20"/><circle cx="3670" cy="470" r="20"/><circle cx="3720" cy="470" r="20"/><circle cx="3770" cy="470" r="20"/><circle cx="3820" cy="470" r="20"/><circle cx="3870" cy="470" r="20"/><circle cx="2970" cy="470" r="20"/><circle cx="2920" cy="470" r="20"/><circle cx="2870" cy="470" r="20"/><circle cx="2820" cy="470" r="20"/><circle cx="2770" cy="470" r="20"/><circle cx="2720" cy="470" r="20"/><circle cx="2670" cy="470" r="20"/><circle cx="2620" cy="470" r="20"/><circle cx="2570" cy="470" r="20"/><circle cx="2520" cy="470" r="20"/><circle cx="2470" cy="470" r="20"/><circle cx="2420" cy="470" r="20"/><circle cx="2370" cy="470" r="20"/><circle cx="2320" cy="470" r="20"/><circle cx="2270" cy="470" r="20"/><circle cx="2220" cy="470" r="20"/><circle cx="2170" cy="470" r="20"/><circle cx="2120" cy="470" r="20"/><circle cx="2070" cy="470" r="20"/><circle cx="2020" cy="470" r="20"/><circle cx="1970" cy="470" r="20"/><circle cx="1920" cy="470" r="20"/><circle cx="1870" cy="470" r="20"/><circle cx="1820" cy="470" r="20"/><circle cx="1770" cy="470" r="20"/><circle cx="1720" cy="470" r="20"/><circle cx="1670" cy="470" r="20"/><circle cx="1620" cy="470" r="20"/><circle cx="1570" cy="470" r="20"/><circle cx="1520" cy="470" r="20"/><circle cx="1470" cy="470" r="20"/><circle cx="1420" cy="470" r="20"/><circle cx="1370" cy="470" r="20"/><circle cx="1320" cy="470" r="20"/><circle cx="1270" cy="470" r="20"/><circle cx="1220" cy="470" r="20"/><circle cx="1170" cy="470" r="20"/><circle cx="1120" cy="470" r="20"/><circle cx="1070" cy="470" r="20"/><circle cx="1020" cy="470" r="20"/><circle cx="970" cy="470" r="20"/><circle cx="920" cy="470" r="20"/><circle cx="870" cy="470" r="20"/><circle cx="820" cy="470" r="20"/><circle cx="770" cy="470" r="20"/><circle cx="720" cy="470" r="20"/><circle cx="670" cy="470" r="20"/><circle cx="620" cy="470" r="20"/><circle cx="570" cy="470" r="20"/><circle cx="520" cy="470" r="20"/><circle cx="470" cy="470" r="20"/><circle cx="420" cy="470" r="20"/><circle cx="370" cy="470" r="20"/><circle cx="320" cy="470" r="20"/><circle cx="270" cy="470" r="20"/><circle cx="220" cy="470" r="20"/><circle cx="170" cy="470" r="20"/><circle cx="120" cy="470" r="20"/><circle cx="70" cy="470" r="20"/><circle cx="20" cy="470" r="20"/><circle cx="3020" cy="420" r="20"/><circle cx="3070" cy="420" r="20"/><circle cx="3120" cy="420" r="20"/><circle cx="3170" cy="420" r="20"/><circle cx="3220" cy="420" r="20"/><circle cx="3270" cy="420" r="20"/><circle cx="3320" cy="420" r="20"/><circle cx="3370" cy="420" r="20"/><circle cx="3420" cy="420" r="20"/><circle cx="3470" cy="420" r="20"/><circle cx="3520" cy="420" r="20"/><circle cx="3570" cy="420" r="20"/><circle cx="3620" cy="420" r="20"/><circle cx="3670" cy="420" r="20"/><circle cx="3720" cy="420" r="20"/><circle cx="3770" cy="420" r="20"/><circle cx="3820" cy="420" r="20"/><circle cx="3870" cy="420" r="20"/><circle cx="2970" cy="420" r="20"/><circle cx="2920" cy="420" r="20"/><circle cx="2870" cy="420" r="20"/><circle cx="2820" cy="420" r="20"/><circle cx="2770" cy="420" r="20"/><circle cx="2720" cy="420" r="20"/><circle cx="2670" cy="420" r="20"/><circle cx="2620" cy="420" r="20"/><circle cx="2570" cy="420" r="20"/><circle cx="2520" cy="420" r="20"/><circle cx="2470" cy="420" r="20"/><circle cx="2420" cy="420" r="20"/><circle cx="2370" cy="420" r="20"/><circle cx="2320" cy="420" r="20"/><circle cx="2270" cy="420" r="20"/><circle cx="2220" cy="420" r="20"/><circle cx="2170" cy="420" r="20"/><circle cx="2120" cy="420" r="20"/><circle cx="2070" cy="420" r="20"/><circle cx="2020" cy="420" r="20"/><circle cx="1970" cy="420" r="20"/><circle cx="1920" cy="420" r="20"/><circle cx="1870" cy="420" r="20"/><circle cx="1820" cy="420" r="20"/><circle cx="1770" cy="420" r="20"/><circle cx="1720" cy="420" r="20"/><circle cx="1670" cy="420" r="20"/><circle cx="1620" cy="420" r="20"/><circle cx="1570" cy="420" r="20"/><circle cx="1520" cy="420" r="20"/><circle cx="1470" cy="420" r="20"/><circle cx="1420" cy="420" r="20"/><circle cx="1370" cy="420" r="20"/><circle cx="1320" cy="420" r="20"/><circle cx="1270" cy="420" r="20"/><circle cx="1220" cy="420" r="20"/><circle cx="1170" cy="420" r="20"/><circle cx="1120" cy="420" r="20"/><circle cx="1070" cy="420" r="20"/><circle cx="1020" cy="420" r="20"/><circle cx="970" cy="420" r="20"/><circle cx="920" cy="420" r="20"/><circle cx="870" cy="420" r="20"/><circle cx="820" cy="420" r="20"/><circle cx="770" cy="420" r="20"/><circle cx="720" cy="420" r="20"/><circle cx="670" cy="420" r="20"/><circle cx="620" cy="420" r="20"/><circle cx="570" cy="420" r="20"/><circle cx="520" cy="420" r="20"/><circle cx="470" cy="420" r="20"/><circle cx="420" cy="420" r="20"/><circle cx="370" cy="420" r="20"/><circle cx="320" cy="420" r="20"/><circle cx="270" cy="420" r="20"/><circle cx="220" cy="420" r="20"/><circle cx="170" cy="420" r="20"/><circle cx="120" cy="420" r="20"/><circle cx="70" cy="420" r="20"/><circle cx="20" cy="420" r="20"/><circle cx="3020" cy="370" r="20"/><circle cx="3070" cy="370" r="20"/><circle cx="3120" cy="370" r="20"/><circle cx="3170" cy="370" r="20"/><circle cx="3220" cy="370" r="20"/><circle cx="3270" cy="370" r="20"/><circle cx="3320" cy="370" r="20"/><circle cx="3370" cy="370" r="20"/><circle cx="3420" cy="370" r="20"/><circle cx="3470" cy="370" r="20"/><circle cx="3520" cy="370" r="20"/><circle cx="3570" cy="370" r="20"/><circle cx="3620" cy="370" r="20"/><circle cx="3670" cy="370" r="20"/><circle cx="3720" cy="370" r="20"/><circle cx="3770" cy="370" r="20"/><circle cx="3820" cy="370" r="20"/><circle cx="3870" cy="370" r="20"/><circle cx="2970" cy="370" r="20"/><circle cx="2920" cy="370" r="20"/><circle cx="2870" cy="370" r="20"/><circle cx="2820" cy="370" r="20"/><circle cx="2770" cy="370" r="20"/><circle cx="2720" cy="370" r="20"/><circle cx="2670" cy="370" r="20"/><circle cx="2620" cy="370" r="20"/><circle cx="2570" cy="370" r="20"/><circle cx="2520" cy="370" r="20"/><circle cx="2470" cy="370" r="20"/><circle cx="2420" cy="370" r="20"/><circle cx="2370" cy="370" r="20"/><circle cx="2320" cy="370" r="20"/><circle cx="2270" cy="370" r="20"/><circle cx="2220" cy="370" r="20"/><circle cx="2170" cy="370" r="20"/><circle cx="2120" cy="370" r="20"/><circle cx="2070" cy="370" r="20"/><circle cx="2020" cy="370" r="20"/><circle cx="1970" cy="370" r="20"/><circle cx="1920" cy="370" r="20"/><circle cx="1870" cy="370" r="20"/><circle cx="1820" cy="370" r="20"/><circle cx="1770" cy="370" r="20"/><circle cx="1720" cy="370" r="20"/><circle cx="1670" cy="370" r="20"/><circle cx="1620" cy="370" r="20"/><circle cx="1570" cy="370" r="20"/><circle cx="1520" cy="370" r="20"/><circle cx="1470" cy="370" r="20"/><circle cx="1420" cy="370" r="20"/><circle cx="1370" cy="370" r="20"/><circle cx="1320" cy="370" r="20"/><circle cx="1270" cy="370" r="20"/><circle cx="1220" cy="370" r="20"/><circle cx="1170" cy="370" r="20"/><circle cx="1120" cy="370" r="20"/><circle cx="1070" cy="370" r="20"/><circle cx="1020" cy="370" r="20"/><circle cx="970" cy="370" r="20"/><circle cx="920" cy="370" r="20"/><circle cx="870" cy="370" r="20"/><circle cx="820" cy="370" r="20"/><circle cx="770" cy="370" r="20"/><circle cx="720" cy="370" r="20"/><circle cx="670" cy="370" r="20"/><circle cx="620" cy="370" r="20"/><circle cx="570" cy="370" r="20"/><circle cx="520" cy="370" r="20"/><circle cx="470" cy="370" r="20"/><circle cx="420" cy="370" r="20"/><circle cx="370" cy="370" r="20"/><circle cx="320" cy="370" r="20"/><circle cx="270" cy="370" r="20"/><circle cx="220" cy="370" r="20"/><circle cx="170" cy="370" r="20"/><circle cx="120" cy="370" r="20"/><circle cx="70" cy="370" r="20"/><circle cx="20" cy="370" r="20"/><circle cx="3020" cy="320" r="20"/><circle cx="3070" cy="320" r="20"/><circle cx="3120" cy="320" r="20"/><circle cx="3170" cy="320" r="20"/><circle cx="3220" cy="320" r="20"/><circle cx="3270" cy="320" r="20"/><circle cx="3320" cy="320" r="20"/><circle cx="3370" cy="320" r="20"/><circle cx="3420" cy="320" r="20"/><circle cx="3470" cy="320" r="20"/><circle cx="3520" cy="320" r="20"/><circle cx="3570" cy="320" r="20"/><circle cx="3620" cy="320" r="20"/><circle cx="3670" cy="320" r="20"/><circle cx="3720" cy="320" r="20"/><circle cx="3770" cy="320" r="20"/><circle cx="3820" cy="320" r="20"/><circle cx="3870" cy="320" r="20"/><circle cx="2970" cy="320" r="20"/><circle cx="2920" cy="320" r="20"/><circle cx="2870" cy="320" r="20"/><circle cx="2820" cy="320" r="20"/><circle cx="2770" cy="320" r="20"/><circle cx="2720" cy="320" r="20"/><circle cx="2670" cy="320" r="20"/><circle cx="2620" cy="320" r="20"/><circle cx="2570" cy="320" r="20"/><circle cx="2520" cy="320" r="20"/><circle cx="2470" cy="320" r="20"/><circle cx="2420" cy="320" r="20"/><circle cx="2370" cy="320" r="20"/><circle cx="2320" cy="320" r="20"/><circle cx="2270" cy="320" r="20"/><circle cx="2220" cy="320" r="20"/><circle cx="2170" cy="320" r="20"/><circle cx="2120" cy="320" r="20"/><circle cx="2070" cy="320" r="20"/><circle cx="2020" cy="320" r="20"/><circle cx="1970" cy="320" r="20"/><circle cx="1920" cy="320" r="20"/><circle cx="1870" cy="320" r="20"/><circle cx="1820" cy="320" r="20"/><circle cx="1770" cy="320" r="20"/><circle cx="1720" cy="320" r="20"/><circle cx="1670" cy="320" r="20"/><circle cx="1620" cy="320" r="20"/><circle cx="1570" cy="320" r="20"/><circle cx="1520" cy="320" r="20"/><circle cx="1470" cy="320" r="20"/><circle cx="1420" cy="320" r="20"/><circle cx="1370" cy="320" r="20"/><circle cx="1320" cy="320" r="20"/><circle cx="1270" cy="320" r="20"/><circle cx="1220" cy="320" r="20"/><circle cx="1170" cy="320" r="20"/><circle cx="1120" cy="320" r="20"/><circle cx="1070" cy="320" r="20"/><circle cx="1020" cy="320" r="20"/><circle cx="970" cy="320" r="20"/><circle cx="920" cy="320" r="20"/><circle cx="870" cy="320" r="20"/><circle cx="820" cy="320" r="20"/><circle cx="770" cy="320" r="20"/><circle cx="720" cy="320" r="20"/><circle cx="670" cy="320" r="20"/><circle cx="620" cy="320" r="20"/><circle cx="570" cy="320" r="20"/><circle cx="520" cy="320" r="20"/><circle cx="470" cy="320" r="20"/><circle cx="420" cy="320" r="20"/><circle cx="370" cy="320" r="20"/><circle cx="320" cy="320" r="20"/><circle cx="270" cy="320" r="20"/><circle cx="220" cy="320" r="20"/><circle cx="170" cy="320" r="20"/><circle cx="120" cy="320" r="20"/><circle cx="70" cy="320" r="20"/><circle cx="20" cy="320" r="20"/><circle cx="3020" cy="270" r="20"/><circle cx="3070" cy="270" r="20"/><circle cx="3120" cy="270" r="20"/><circle cx="3170" cy="270" r="20"/><circle cx="3220" cy="270" r="20"/><circle cx="3270" cy="270" r="20"/><circle cx="3320" cy="270" r="20"/><circle cx="3370" cy="270" r="20"/><circle cx="3420" cy="270" r="20"/><circle cx="3470" cy="270" r="20"/><circle cx="3520" cy="270" r="20"/><circle cx="3570" cy="270" r="20"/><circle cx="3620" cy="270" r="20"/><circle cx="3670" cy="270" r="20"/><circle cx="3720" cy="270" r="20"/><circle cx="3770" cy="270" r="20"/><circle cx="3820" cy="270" r="20"/><circle cx="3870" cy="270" r="20"/><circle cx="2970" cy="270" r="20"/><circle cx="2920" cy="270" r="20"/><circle cx="2870" cy="270" r="20"/><circle cx="2820" cy="270" r="20"/><circle cx="2770" cy="270" r="20"/><circle cx="2720" cy="270" r="20"/><circle cx="2670" cy="270" r="20"/><circle cx="2620" cy="270" r="20"/><circle cx="2570" cy="270" r="20"/><circle cx="2520" cy="270" r="20"/><circle cx="2470" cy="270" r="20"/><circle cx="2420" cy="270" r="20"/><circle cx="2370" cy="270" r="20"/><circle cx="2320" cy="270" r="20"/><circle cx="2270" cy="270" r="20"/><circle cx="2220" cy="270" r="20"/><circle cx="2170" cy="270" r="20"/><circle cx="2120" cy="270" r="20"/><circle cx="2070" cy="270" r="20"/><circle cx="2020" cy="270" r="20"/><circle cx="1970" cy="270" r="20"/><circle cx="1920" cy="270" r="20"/><circle cx="1870" cy="270" r="20"/><circle cx="1820" cy="270" r="20"/><circle cx="1770" cy="270" r="20"/><circle cx="1720" cy="270" r="20"/><circle cx="1670" cy="270" r="20"/><circle cx="1620" cy="270" r="20"/><circle cx="1570" cy="270" r="20"/><circle cx="1520" cy="270" r="20"/><circle cx="1470" cy="270" r="20"/><circle cx="1420" cy="270" r="20"/><circle cx="1370" cy="270" r="20"/><circle cx="1320" cy="270" r="20"/><circle cx="1270" cy="270" r="20"/><circle cx="1220" cy="270" r="20"/><circle cx="1170" cy="270" r="20"/><circle cx="1120" cy="270" r="20"/><circle cx="1070" cy="270" r="20"/><circle cx="1020" cy="270" r="20"/><circle cx="970" cy="270" r="20"/><circle cx="920" cy="270" r="20"/><circle cx="870" cy="270" r="20"/><circle cx="820" cy="270" r="20"/><circle cx="770" cy="270" r="20"/><circle cx="720" cy="270" r="20"/><circle cx="670" cy="270" r="20"/><circle cx="620" cy="270" r="20"/><circle cx="570" cy="270" r="20"/><circle cx="520" cy="270" r="20"/><circle cx="470" cy="270" r="20"/><circle cx="420" cy="270" r="20"/><circle cx="370" cy="270" r="20"/><circle cx="320" cy="270" r="20"/><circle cx="270" cy="270" r="20"/><circle cx="220" cy="270" r="20"/><circle cx="170" cy="270" r="20"/><circle cx="120" cy="270" r="20"/><circle cx="70" cy="270" r="20"/><circle cx="20" cy="270" r="20"/><circle cx="3020" cy="220" r="20"/><circle cx="3070" cy="220" r="20"/><circle cx="3120" cy="220" r="20"/><circle cx="3170" cy="220" r="20"/><circle cx="3220" cy="220" r="20"/><circle cx="3270" cy="220" r="20"/><circle cx="3320" cy="220" r="20"/><circle cx="3370" cy="220" r="20"/><circle cx="3420" cy="220" r="20"/><circle cx="3470" cy="220" r="20"/><circle cx="3520" cy="220" r="20"/><circle cx="3570" cy="220" r="20"/><circle cx="3620" cy="220" r="20"/><circle cx="3670" cy="220" r="20"/><circle cx="3720" cy="220" r="20"/><circle cx="3770" cy="220" r="20"/><circle cx="3820" cy="220" r="20"/><circle cx="3870" cy="220" r="20"/><circle cx="2970" cy="220" r="20"/><circle cx="2920" cy="220" r="20"/><circle cx="2870" cy="220" r="20"/><circle cx="2820" cy="220" r="20"/><circle cx="2770" cy="220" r="20"/><circle cx="2720" cy="220" r="20"/><circle cx="2670" cy="220" r="20"/><circle cx="2620" cy="220" r="20"/><circle cx="2570" cy="220" r="20"/><circle cx="2520" cy="220" r="20"/><circle cx="2470" cy="220" r="20"/><circle cx="2420" cy="220" r="20"/><circle cx="2370" cy="220" r="20"/><circle cx="2320" cy="220" r="20"/><circle cx="2270" cy="220" r="20"/><circle cx="2220" cy="220" r="20"/><circle cx="2170" cy="220" r="20"/><circle cx="2120" cy="220" r="20"/><circle cx="2070" cy="220" r="20"/><circle cx="2020" cy="220" r="20"/><circle cx="1970" cy="220" r="20"/><circle cx="1920" cy="220" r="20"/><circle cx="1870" cy="220" r="20"/><circle cx="1820" cy="220" r="20"/><circle cx="1770" cy="220" r="20"/><circle cx="1720" cy="220" r="20"/><circle cx="1670" cy="220" r="20"/><circle cx="1620" cy="220" r="20"/><circle cx="1570" cy="220" r="20"/><circle cx="1520" cy="220" r="20"/><circle cx="1470" cy="220" r="20"/><circle cx="1420" cy="220" r="20"/><circle cx="1370" cy="220" r="20"/><circle cx="1320" cy="220" r="20"/><circle cx="1270" cy="220" r="20"/><circle cx="1220" cy="220" r="20"/><circle cx="1170" cy="220" r="20"/><circle cx="1120" cy="220" r="20"/><circle cx="1070" cy="220" r="20"/><circle cx="1020" cy="220" r="20"/><circle cx="970" cy="220" r="20"/><circle cx="920" cy="220" r="20"/><circle cx="870" cy="220" r="20"/><circle cx="820" cy="220" r="20"/><circle cx="770" cy="220" r="20"/><circle cx="720" cy="220" r="20"/><circle cx="670" cy="220" r="20"/><circle cx="620" cy="220" r="20"/><circle cx="570" cy="220" r="20"/><circle cx="520" cy="220" r="20"/><circle cx="470" cy="220" r="20"/><circle cx="420" cy="220" r="20"/><circle cx="370" cy="220" r="20"/><circle cx="320" cy="220" r="20"/><circle cx="270" cy="220" r="20"/><circle cx="220" cy="220" r="20"/><circle cx="170" cy="220" r="20"/><circle cx="120" cy="220" r="20"/><circle cx="70" cy="220" r="20"/><circle cx="20" cy="220" r="20"/><circle cx="3020" cy="170" r="20"/><circle cx="3070" cy="170" r="20"/><circle cx="3120" cy="170" r="20"/><circle cx="3170" cy="170" r="20"/><circle cx="3220" cy="170" r="20"/><circle cx="3270" cy="170" r="20"/><circle cx="3320" cy="170" r="20"/><circle cx="3370" cy="170" r="20"/><circle cx="3420" cy="170" r="20"/><circle cx="3470" cy="170" r="20"/><circle cx="3520" cy="170" r="20"/><circle cx="3570" cy="170" r="20"/><circle cx="3620" cy="170" r="20"/><circle cx="3670" cy="170" r="20"/><circle cx="3720" cy="170" r="20"/><circle cx="3770" cy="170" r="20"/><circle cx="3820" cy="170" r="20"/><circle cx="3870" cy="170" r="20"/><circle cx="2970" cy="170" r="20"/><circle cx="2920" cy="170" r="20"/><circle cx="2870" cy="170" r="20"/><circle cx="2820" cy="170" r="20"/><circle cx="2770" cy="170" r="20"/><circle cx="2720" cy="170" r="20"/><circle cx="2670" cy="170" r="20"/><circle cx="2620" cy="170" r="20"/><circle cx="2570" cy="170" r="20"/><circle cx="2520" cy="170" r="20"/><circle cx="2470" cy="170" r="20"/><circle cx="2420" cy="170" r="20"/><circle cx="2370" cy="170" r="20"/><circle cx="2320" cy="170" r="20"/><circle cx="2270" cy="170" r="20"/><circle cx="2220" cy="170" r="20"/><circle cx="2170" cy="170" r="20"/><circle cx="2120" cy="170" r="20"/><circle cx="2070" cy="170" r="20"/><circle cx="2020" cy="170" r="20"/><circle cx="1970" cy="170" r="20"/><circle cx="1920" cy="170" r="20"/><circle cx="1870" cy="170" r="20"/><circle cx="1820" cy="170" r="20"/><circle cx="1770" cy="170" r="20"/><circle cx="1720" cy="170" r="20"/><circle cx="1670" cy="170" r="20"/><circle cx="1620" cy="170" r="20"/><circle cx="1570" cy="170" r="20"/><circle cx="1520" cy="170" r="20"/><circle cx="1470" cy="170" r="20"/><circle cx="1420" cy="170" r="20"/><circle cx="1370" cy="170" r="20"/><circle cx="1320" cy="170" r="20"/><circle cx="1270" cy="170" r="20"/><circle cx="1220" cy="170" r="20"/><circle cx="1170" cy="170" r="20"/><circle cx="1120" cy="170" r="20"/><circle cx="1070" cy="170" r="20"/><circle cx="1020" cy="170" r="20"/><circle cx="970" cy="170" r="20"/><circle cx="920" cy="170" r="20"/><circle cx="870" cy="170" r="20"/><circle cx="820" cy="170" r="20"/><circle cx="770" cy="170" r="20"/><circle cx="720" cy="170" r="20"/><circle cx="670" cy="170" r="20"/><circle cx="620" cy="170" r="20"/><circle cx="570" cy="170" r="20"/><circle cx="520" cy="170" r="20"/><circle cx="470" cy="170" r="20"/><circle cx="420" cy="170" r="20"/><circle cx="370" cy="170" r="20"/><circle cx="320" cy="170" r="20"/><circle cx="270" cy="170" r="20"/><circle cx="220" cy="170" r="20"/><circle cx="170" cy="170" r="20"/><circle cx="120" cy="170" r="20"/><circle cx="70" cy="170" r="20"/><circle cx="20" cy="170" r="20"/><circle cx="3020" cy="120" r="20"/><circle cx="3070" cy="120" r="20"/><circle cx="3120" cy="120" r="20"/><circle cx="3170" cy="120" r="20"/><circle cx="3220" cy="120" r="20"/><circle cx="3270" cy="120" r="20"/><circle cx="3320" cy="120" r="20"/><circle cx="3370" cy="120" r="20"/><circle cx="3420" cy="120" r="20"/><circle cx="3470" cy="120" r="20"/><circle cx="3520" cy="120" r="20"/><circle cx="3570" cy="120" r="20"/><circle cx="3620" cy="120" r="20"/><circle cx="3670" cy="120" r="20"/><circle cx="3720" cy="120" r="20"/><circle cx="3770" cy="120" r="20"/><circle cx="3820" cy="120" r="20"/><circle cx="3870" cy="120" r="20"/><circle cx="2970" cy="120" r="20"/><circle cx="2920" cy="120" r="20"/><circle cx="2870" cy="120" r="20"/><circle cx="2820" cy="120" r="20"/><circle cx="2770" cy="120" r="20"/><circle cx="2720" cy="120" r="20"/><circle cx="2670" cy="120" r="20"/><circle cx="2620" cy="120" r="20"/><circle cx="2570" cy="120" r="20"/><circle cx="2520" cy="120" r="20"/><circle cx="2470" cy="120" r="20"/><circle cx="2420" cy="120" r="20"/><circle cx="2370" cy="120" r="20"/><circle cx="2320" cy="120" r="20"/><circle cx="2270" cy="120" r="20"/><circle cx="2220" cy="120" r="20"/><circle cx="2170" cy="120" r="20"/><circle cx="2120" cy="120" r="20"/><circle cx="2070" cy="120" r="20"/><circle cx="2020" cy="120" r="20"/><circle cx="1970" cy="120" r="20"/><circle cx="1920" cy="120" r="20"/><circle cx="1870" cy="120" r="20"/><circle cx="1820" cy="120" r="20"/><circle cx="1770" cy="120" r="20"/><circle cx="1720" cy="120" r="20"/><circle cx="1670" cy="120" r="20"/><circle cx="1620" cy="120" r="20"/><circle cx="1570" cy="120" r="20"/><circle cx="1520" cy="120" r="20"/><circle cx="1470" cy="120" r="20"/><circle cx="1420" cy="120" r="20"/><circle cx="1370" cy="120" r="20"/><circle cx="1320" cy="120" r="20"/><circle cx="1270" cy="120" r="20"/><circle cx="1220" cy="120" r="20"/><circle cx="1170" cy="120" r="20"/><circle cx="1120" cy="120" r="20"/><circle cx="1070" cy="120" r="20"/><circle cx="1020" cy="120" r="20"/><circle cx="970" cy="120" r="20"/><circle cx="920" cy="120" r="20"/><circle cx="870" cy="120" r="20"/><circle cx="820" cy="120" r="20"/><circle cx="770" cy="120" r="20"/><circle cx="720" cy="120" r="20"/><circle cx="670" cy="120" r="20"/><circle cx="620" cy="120" r="20"/><circle cx="570" cy="120" r="20"/><circle cx="520" cy="120" r="20"/><circle cx="470" cy="120" r="20"/><circle cx="420" cy="120" r="20"/><circle cx="370" cy="120" r="20"/><circle cx="320" cy="120" r="20"/><circle cx="270" cy="120" r="20"/><circle cx="220" cy="120" r="20"/><circle cx="170" cy="120" r="20"/><circle cx="120" cy="120" r="20"/><circle cx="70" cy="120" r="20"/><circle cx="20" cy="120" r="20"/><circle cx="3020" cy="70" r="20"/><circle cx="3070" cy="70" r="20"/><circle cx="3120" cy="70" r="20"/><circle cx="3170" cy="70" r="20"/><circle cx="3220" cy="70" r="20"/><circle cx="3270" cy="70" r="20"/><circle cx="3320" cy="70" r="20"/><circle cx="3370" cy="70" r="20"/><circle cx="3420" cy="70" r="20"/><circle cx="3470" cy="70" r="20"/><circle cx="3520" cy="70" r="20"/><circle cx="3570" cy="70" r="20"/><circle cx="3620" cy="70" r="20"/><circle cx="3670" cy="70" r="20"/><circle cx="3720" cy="70" r="20"/><circle cx="3770" cy="70" r="20"/><circle cx="3820" cy="70" r="20"/><circle cx="3870" cy="70" r="20"/><circle cx="2970" cy="70" r="20"/><circle cx="2920" cy="70" r="20"/><circle cx="2870" cy="70" r="20"/><circle cx="2820" cy="70" r="20"/><circle cx="2770" cy="70" r="20"/><circle cx="2720" cy="70" r="20"/><circle cx="2670" cy="70" r="20"/><circle cx="2620" cy="70" r="20"/><circle cx="2570" cy="70" r="20"/><circle cx="2520" cy="70" r="20"/><circle cx="2470" cy="70" r="20"/><circle cx="2420" cy="70" r="20"/><circle cx="2370" cy="70" r="20"/><circle cx="2320" cy="70" r="20"/><circle cx="2270" cy="70" r="20"/><circle cx="2220" cy="70" r="20"/><circle cx="2170" cy="70" r="20"/><circle cx="2120" cy="70" r="20"/><circle cx="2070" cy="70" r="20"/><circle cx="2020" cy="70" r="20"/><circle cx="1970" cy="70" r="20"/><circle cx="1920" cy="70" r="20"/><circle cx="1870" cy="70" r="20"/><circle cx="1820" cy="70" r="20"/><circle cx="1770" cy="70" r="20"/><circle cx="1720" cy="70" r="20"/><circle cx="1670" cy="70" r="20"/><circle cx="1620" cy="70" r="20"/><circle cx="1570" cy="70" r="20"/><circle cx="1520" cy="70" r="20"/><circle cx="1470" cy="70" r="20"/><circle cx="1420" cy="70" r="20"/><circle cx="1370" cy="70" r="20"/><circle cx="1320" cy="70" r="20"/><circle cx="1270" cy="70" r="20"/><circle cx="1220" cy="70" r="20"/><circle cx="1170" cy="70" r="20"/><circle cx="1120" cy="70" r="20"/><circle cx="1070" cy="70" r="20"/><circle cx="1020" cy="70" r="20"/><circle cx="970" cy="70" r="20"/><circle cx="920" cy="70" r="20"/><circle cx="870" cy="70" r="20"/><circle cx="820" cy="70" r="20"/><circle cx="770" cy="70" r="20"/><circle cx="720" cy="70" r="20"/><circle cx="670" cy="70" r="20"/><circle cx="620" cy="70" r="20"/><circle cx="570" cy="70" r="20"/><circle cx="520" cy="70" r="20"/><circle cx="470" cy="70" r="20"/><circle cx="420" cy="70" r="20"/><circle cx="370" cy="70" r="20"/><circle cx="320" cy="70" r="20"/><circle cx="270" cy="70" r="20"/><circle cx="220" cy="70" r="20"/><circle cx="170" cy="70" r="20"/><circle cx="120" cy="70" r="20"/><circle cx="70" cy="70" r="20"/><circle cx="20" cy="70" r="20"/><circle cx="3020" cy="20" r="20"/><circle cx="3070" cy="20" r="20"/><circle cx="3120" cy="20" r="20"/><circle cx="3170" cy="20" r="20"/><circle cx="3220" cy="20" r="20"/><circle cx="3270" cy="20" r="20"/><circle cx="3320" cy="20" r="20"/><circle cx="3370" cy="20" r="20"/><circle cx="3420" cy="20" r="20"/><circle cx="3470" cy="20" r="20"/><circle cx="3520" cy="20" r="20"/><circle cx="3570" cy="20" r="20"/><circle cx="3620" cy="20" r="20"/><circle cx="3670" cy="20" r="20"/><circle cx="3720" cy="20" r="20"/><circle cx="3770" cy="20" r="20"/><circle cx="3820" cy="20" r="20"/><circle cx="3870" cy="20" r="20"/><circle cx="2970" cy="20" r="20"/><circle cx="2920" cy="20" r="20"/><circle cx="2870" cy="20" r="20"/><circle cx="2820" cy="20" r="20"/><circle cx="2770" cy="20" r="20"/><circle cx="2720" cy="20" r="20"/><circle cx="2670" cy="20" r="20"/><circle cx="2620" cy="20" r="20"/><circle cx="2570" cy="20" r="20"/><circle cx="2520" cy="20" r="20"/><circle cx="2470" cy="20" r="20"/><circle cx="2420" cy="20" r="20"/><circle cx="2370" cy="20" r="20"/><circle cx="2320" cy="20" r="20"/><circle cx="2270" cy="20" r="20"/><circle cx="2220" cy="20" r="20"/><circle cx="2170" cy="20" r="20"/><circle cx="2120" cy="20" r="20"/><circle cx="2070" cy="20" r="20"/><circle cx="2020" cy="20" r="20"/><circle cx="1970" cy="20" r="20"/><circle cx="1920" cy="20" r="20"/><circle cx="1870" cy="20" r="20"/><circle cx="1820" cy="20" r="20"/><circle cx="1770" cy="20" r="20"/><circle cx="1720" cy="20" r="20"/><circle cx="1670" cy="20" r="20"/><circle cx="1620" cy="20" r="20"/><circle cx="1570" cy="20" r="20"/><circle cx="1520" cy="20" r="20"/><circle cx="1470" cy="20" r="20"/><circle cx="1420" cy="20" r="20"/><circle cx="1370" cy="20" r="20"/><circle cx="1320" cy="20" r="20"/><circle cx="1270" cy="20" r="20"/><circle cx="1220" cy="20" r="20"/><circle cx="1170" cy="20" r="20"/><circle cx="1120" cy="20" r="20"/><circle cx="1070" cy="20" r="20"/><circle cx="1020" cy="20" r="20"/><circle cx="970" cy="20" r="20"/><circle cx="920" cy="20" r="20"/><circle cx="870" cy="20" r="20"/><circle cx="820" cy="20" r="20"/><circle cx="770" cy="20" r="20"/><circle cx="720" cy="20" r="20"/><circle cx="670" cy="20" r="20"/><circle cx="620" cy="20" r="20"/><circle cx="570" cy="20" r="20"/><circle cx="520" cy="20" r="20"/><circle cx="470" cy="20" r="20"/><circle cx="420" cy="20" r="20"/><circle cx="370" cy="20" r="20"/><circle cx="320" cy="20" r="20"/><circle cx="270" cy="20" r="20"/><circle cx="220" cy="20" r="20"/><circle cx="170" cy="20" r="20"/><circle cx="120" cy="20" r="20"/><circle cx="70" cy="20" r="20"/><circle cx="20" cy="20" r="20"/></g><path fill="#FE0" fill-rule="nonzero" d="M20 40C31 40 40 31 40 20 40 9 31 0 20 0 9 0 0 9 0 20 0 31 9 40 20 40ZM20 90C31 90 40 81 40 70 40 59 31 50 20 50 9 50 0 59 0 70 0 81 9 90 20 90ZM70 90C81 90 90 81 90 70 90 59 81 50 70 50 59 50 50 59 50 70 50 81 59 90 70 90ZM70 40C81 40 90 31 90 20 90 9 81 0 70 0 59 0 50 9 50 20 50 31 59 40 70 40ZM120 40C131 40 140 31 140 20 140 9 131 0 120 0 109 0 100 9 100 20 100 31 109 40 120 40ZM120 90C131 90 140 81 140 70 140 59 131 50 120 50 109 50 100 59 100 70 100 81 109 90 120 90ZM120 140C131 140 140 131 140 120 140 109 131 100 120 100 109 100 100 109 100 120 100 131 109 140 120 140ZM120 190C131 190 140 181 140 170 140 159 131 150 120 150 109 150 100 159 100 170 100 181 109 190 120 190ZM120 240C131 240 140 231 140 220 140 209 131 200 120 200 109 200 100 209 100 220 100 231 109 240 120 240ZM120 290C131 290 140 281 140 270 140 259 131 250 120 250 109 250 100 259 100 270 100 281 109 290 120 290ZM120 340C131 340 140 331 140 320 140 309 131 300 120 300 109 300 100 309 100 320 100 331 109 340 120 340ZM120 390C131 390 140 381 140 370 140 359 131 350 120 350 109 350 100 359 100 370 100 381 109 390 120 390ZM120 440C131 440 140 431 140 420 140 409 131 400 120 400 109 400 100 409 100 420 100 431 109 440 120 440ZM120 490C131 490 140 481 140 470 140 459 131 450 120 450 109 450 100 459 100 470 100 481 109 490 120 490ZM120 540C131 540 140 531 140 520 140 509 131 500 120 500 109 500 100 509 100 520 100 531 109 540 120 540ZM120 590C131 590 140 581 140 570 140 559 131 550 120 550 109 550 100 559 100 570 100 581 109 590 120 590ZM120 640C131 640 140 631 140 620 140 609 131 600 120 600 109 600 100 609 100 620 100 631 109 640 120 640ZM170 640C181 640 190 631 190 620 190 609 181 600 170 600 159 600 150 609 150 620 150 631 159 640 170 640ZM170 590C181 590 190 581 190 570 190 559 181 550 170 550 159 550 150 559 150 570 150 581 159 590 170 590ZM170 540C181 540 190 531 190 520 190 509 181 500 170 500 159 500 150 509 150 520 150 531 159 540 170 540ZM170 490C181 490 190 481 190 470 190 459 181 450 170 450 159 450 150 459 150 470 150 481 159 490 170 490ZM170 440C181 440 190 431 190 420 190 409 181 400 170 400 159 400 150 409 150 420 150 431 159 440 170 440ZM170 390C181 390 190 381 190 370 190 359 181 350 170 350 159 350 150 359 150 370 150 381 159 390 170 390ZM170 340C181 340 190 331 190 320 190 309 181 300 170 300 159 300 150 309 150 320 150 331 159 340 170 340ZM170 290C181 290 190 281 190 270 190 259 181 250 170 250 159 250 150 259 150 270 150 281 159 290 170 290ZM170 240C181 240 190 231 190 220 190 209 181 200 170 200 159 200 150 209 150 220 150 231 159 240 170 240ZM170 190C181 190 190 181 190 170 190 159 181 150 170 150 159 150 150 159 150 170 150 181 159 190 170 190ZM170 140C181 140 190 131 190 120 190 109 181 100 170 100 159 100 150 109 150 120 150 131 159 140 170 140ZM170 90C181 90 190 81 190 70 190 59 181 50 170 50 159 50 150 59 150 70 150 81 159 90 170 90ZM170 40C181 40 190 31 190 20 190 9 181 0 170 0 159 0 150 9 150 20 150 31 159 40 170 40ZM220 40C231 40 240 31 240 20 240 9 231 0 220 0 209 0 200 9 200 20 200 31 209 40 220 40ZM220 90C231 90 240 81 240 70 240 59 231 50 220 50 209 50 200 59 200 70 200 81 209 90 220 90ZM270 90C281 90 290 81 290 70 290 59 281 50 270 50 259 50 250 59 250 70 250 81 259 90 270 90ZM270 40C281 40 290 31 290 20 290 9 281 0 270 0 259 0 250 9 250 20 250 31 259 40 270 40ZM370 40C381 40 390 31 390 20 390 9 381 0 370 0 359 0 350 9 350 20 350 31 359 40 370 40ZM370 90C381 90 390 81 390 70 390 59 381 50 370 50 359 50 350 59 350 70 350 81 359 90 370 90ZM370 140C381 140 390 131 390 120 390 109 381 100 370 100 359 100 350 109 350 120 350 131 359 140 370 140ZM370 190C381 190 390 181 390 170 390 159 381 150 370 150 359 150 350 159 350 170 350 181 359 190 370 190ZM370 240C381 240 390 231 390 220 390 209 381 200 370 200 359 200 350 209 350 220 350 231 359 240 370 240ZM370 290C381 290 390 281 390 270 390 259 381 250 370 250 359 250 350 259 350 270 350 281 359 290 370 290ZM370 340C381 340 390 331 390 320 390 309 381 300 370 300 359 300 350 309 350 320 350 331 359 340 370 340ZM370 390C381 390 390 381 390 370 390 359 381 350 370 350 359 350 350 359 350 370 350 381 359 390 370 390ZM370 440C381 440 390 431 390 420 390 409 381 400 370 400 359 400 350 409 350 420 350 431 359 440 370 440ZM370 490C381 490 390 481 390 470 390 459 381 450 370 450 359 450 350 459 350 470 350 481 359 490 370 490ZM370 540C381 540 390 531 390 520 390 509 381 500 370 500 359 500 350 509 350 520 350 531 359 540 370 540ZM370 590C381 590 390 581 390 570 390 559 381 550 370 550 359 550 350 559 350 570 350 581 359 590 370 590ZM370 640C381 640 390 631 390 620 390 609 381 600 370 600 359 600 350 609 350 620 350 631 359 640 370 640ZM420 640C431 640 440 631 440 620 440 609 431 600 420 600 409 600 400 609 400 620 400 631 409 640 420 640ZM420 590C431 590 440 581 440 570 440 559 431 550 420 550 409 550 400 559 400 570 400 581 409 590 420 590ZM420 540C431 540 440 531 440 520 440 509 431 500 420 500 409 500 400 509 400 520 400 531 409 540 420 540ZM420 490C431 490 440 481 440 470 440 459 431 450 420 450 409 450 400 459 400 470 400 481 409 490 420 490ZM420 440C431 440 440 431 440 420 440 409 431 400 420 400 409 400 400 409 400 420 400 431 409 440 420 440ZM420 390C431 390 440 381 440 370 440 359 431 350 420 350 409 350 400 359 400 370 400 381 409 390 420 390ZM420 340C431 340 440 331 440 320 440 309 431 300 420 300 409 300 400 309 400 320 400 331 409 340 420 340ZM420 290C431 290 440 281 440 270 440 259 431 250 420 250 409 250 400 259 400 270 400 281 409 290 420 290ZM420 240C431 240 440 231 440 220 440 209 431 200 420 200 409 200 400 209 400 220 400 231 409 240 420 240ZM420 190C431 190 440 181 440 170 440 159 431 150 420 150 409 150 400 159 400 170 400 181 409 190 420 190ZM420 140C431 140 440 131 440 120 440 109 431 100 420 100 409 100 400 109 400 120 400 131 409 140 420 140ZM420 90C431 90 440 81 440 70 440 59 431 50 420 50 409 50 400 59 400 70 400 81 409 90 420 90ZM420 40C431 40 440 31 440 20 440 9 431 0 420 0 409 0 400 9 400 20 400 31 409 40 420 40ZM470 40C481 40 490 31 490 20 490 9 481 0 470 0 459 0 450 9 450 20 450 31 459 40 470 40ZM470 90C481 90 490 81 490 70 490 59 481 50 470 50 459 50 450 59 450 70 450 81 459 90 470 90ZM520 90C531 90 540 81 540 70 540 59 531 50 520 50 509 50 500 59 500 70 500 81 509 90 520 90ZM570 90C581 90 590 81 590 70 590 59 581 50 570 50 559 50 550 59 550 70 550 81 559 90 570 90ZM570 40C581 40 590 31 590 20 590 9 581 0 570 0 559 0 550 9 550 20 550 31 559 40 570 40ZM520 40C531 40 540 31 540 20 540 9 531 0 520 0 509 0 500 9 500 20 500 31 509 40 520 40ZM470 340C481 340 490 331 490 320 490 309 481 300 470 300 459 300 450 309 450 320 450 331 459 340 470 340ZM470 390C481 390 490 381 490 370 490 359 481 350 470 350 459 350 450 359 450 370 450 381 459 390 470 390ZM520 390C531 390 540 381 540 370 540 359 531 350 520 350 509 350 500 359 500 370 500 381 509 390 520 390ZM520 340C531 340 540 331 540 320 540 309 531 300 520 300 509 300 500 309 500 320 500 331 509 340 520 340ZM570 340C581 340 590 331 590 320 590 309 581 300 570 300 559 300 550 309 550 320 550 331 559 340 570 340ZM570 390C581 390 590 381 590 370 590 359 581 350 570 350 559 350 550 359 550 370 550 381 559 390 570 390ZM620 40C631 40 640 31 640 20 640 9 631 0 620 0 609 0 600 9 600 20 600 31 609 40 620 40ZM620 90C631 90 640 81 640 70 640 59 631 50 620 50 609 50 600 59 600 70 600 81 609 90 620 90ZM620 140C631 140 640 131 640 120 640 109 631 100 620 100 609 100 600 109 600 120 600 131 609 140 620 140ZM620 190C631 190 640 181 640 170 640 159 631 150 620 150 609 150 600 159 600 170 600 181 609 190 620 190ZM620 240C631 240 640 231 640 220 640 209 631 200 620 200 609 200 600 209 600 220 600 231 609 240 620 240ZM620 290C631 290 640 281 640 270 640 259 631 250 620 250 609 250 600 259 600 270 600 281 609 290 620 290ZM620 340C631 340 640 331 640 320 640 309 631 300 620 300 609 300 600 309 600 320 600 331 609 340 620 340ZM670 90C681 90 690 81 690 70 690 59 681 50 670 50 659 50 650 59 650 70 650 81 659 90 670 90ZM670 140C681 140 690 131 690 120 690 109 681 100 670 100 659 100 650 109 650 120 650 131 659 140 670 140ZM670 190C681 190 690 181 690 170 690 159 681 150 670 150 659 150 650 159 650 170 650 181 659 190 670 190ZM670 240C681 240 690 231 690 220 690 209 681 200 670 200 659 200 650 209 650 220 650 231 659 240 670 240ZM670 290C681 290 690 281 690 270 690 259 681 250 670 250 659 250 650 259 650 270 650 281 659 290 670 290ZM570 440C581 440 590 431 590 420 590 409 581 400 570 400 559 400 550 409 550 420 550 431 559 440 570 440ZM570 490C581 490 590 481 590 470 590 459 581 450 570 450 559 450 550 459 550 470 550 481 559 490 570 490ZM620 490C631 490 640 481 640 470 640 459 631 450 620 450 609 450 600 459 600 470 600 481 609 490 620 490ZM620 540C631 540 640 531 640 520 640 509 631 500 620 500 609 500 600 509 600 520 600 531 609 540 620 540ZM670 540C681 540 690 531 690 520 690 509 681 500 670 500 659 500 650 509 650 520 650 531 659 540 670 540ZM670 590C681 590 690 581 690 570 690 559 681 550 670 550 659 550 650 559 650 570 650 581 659 590 670 590ZM670 640C681 640 690 631 690 620 690 609 681 600 670 600 659 600 650 609 650 620 650 631 659 640 670 640ZM620 640C631 640 640 631 640 620 640 609 631 600 620 600 609 600 600 609 600 620 600 631 609 640 620 640ZM620 590C631 590 640 581 640 570 640 559 631 550 620 550 609 550 600 559 600 570 600 581 609 590 620 590ZM620 440C631 440 640 431 640 420 640 409 631 400 620 400 609 400 600 409 600 420 600 431 609 440 620 440ZM770 90C781 90 790 81 790 70 790 59 781 50 770 50 759 50 750 59 750 70 750 81 759 90 770 90ZM770 140C781 140 790 131 790 120 790 109 781 100 770 100 759 100 750 109 750 120 750 131 759 140 770 140ZM770 190C781 190 790 181 790 170 790 159 781 150 770 150 759 150 750 159 750 170 750 181 759 190 770 190ZM770 240C781 240 790 231 790 220 790 209 781 200 770 200 759 200 750 209 750 220 750 231 759 240 770 240ZM770 290C781 290 790 281 790 270 790 259 781 250 770 250 759 250 750 259 750 270 750 281 759 290 770 290ZM770 340C781 340 790 331 790 320 790 309 781 300 770 300 759 300 750 309 750 320 750 331 759 340 770 340ZM770 390C781 390 790 381 790 370 790 359 781 350 770 350 759 350 750 359 750 370 750 381 759 390 770 390ZM770 440C781 440 790 431 790 420 790 409 781 400 770 400 759 400 750 409 750 420 750 431 759 440 770 440ZM770 490C781 490 790 481 790 470 790 459 781 450 770 450 759 450 750 459 750 470 750 481 759 490 770 490ZM770 540C781 540 790 531 790 520 790 509 781 500 770 500 759 500 750 509 750 520 750 531 759 540 770 540ZM770 590C781 590 790 581 790 570 790 559 781 550 770 550 759 550 750 559 750 570 750 581 759 590 770 590ZM770 640C781 640 790 631 790 620 790 609 781 600 770 600 759 600 750 609 750 620 750 631 759 640 770 640ZM820 40C831 40 840 31 840 20 840 9 831 0 820 0 809 0 800 9 800 20 800 31 809 40 820 40ZM820 90C831 90 840 81 840 70 840 59 831 50 820 50 809 50 800 59 800 70 800 81 809 90 820 90ZM820 140C831 140 840 131 840 120 840 109 831 100 820 100 809 100 800 109 800 120 800 131 809 140 820 140ZM820 190C831 190 840 181 840 170 840 159 831 150 820 150 809 150 800 159 800 170 800 181 809 190 820 190ZM820 240C831 240 840 231 840 220 840 209 831 200 820 200 809 200 800 209 800 220 800 231 809 240 820 240ZM820 290C831 290 840 281 840 270 840 259 831 250 820 250 809 250 800 259 800 270 800 281 809 290 820 290ZM820 340C831 340 840 331 840 320 840 309 831 300 820 300 809 300 800 309 800 320 800 331 809 340 820 340ZM820 390C831 390 840 381 840 370 840 359 831 350 820 350 809 350 800 359 800 370 800 381 809 390 820 390ZM820 440C831 440 840 431 840 420 840 409 831 400 820 400 809 400 800 409 800 420 800 431 809 440 820 440ZM820 490C831 490 840 481 840 470 840 459 831 450 820 450 809 450 800 459 800 470 800 481 809 490 820 490ZM820 540C831 540 840 531 840 520 840 509 831 500 820 500 809 500 800 509 800 520 800 531 809 540 820 540ZM820 590C831 590 840 581 840 570 840 559 831 550 820 550 809 550 800 559 800 570 800 581 809 590 820 590ZM820 640C831 640 840 631 840 620 840 609 831 600 820 600 809 600 800 609 800 620 800 631 809 640 820 640ZM870 40C881 40 890 31 890 20 890 9 881 0 870 0 859 0 850 9 850 20 850 31 859 40 870 40ZM920 40C931 40 940 31 940 20 940 9 931 0 920 0 909 0 900 9 900 20 900 31 909 40 920 40ZM970 40C981 40 990 31 990 20 990 9 981 0 970 0 959 0 950 9 950 20 950 31 959 40 970 40ZM1020 40C1031 40 1040 31 1040 20 1040 9 1031 0 1020 0 1009 0 1000 9 1000 20 1000 31 1009 40 1020 40ZM1020 90C1031 90 1040 81 1040 70 1040 59 1031 50 1020 50 1009 50 1000 59 1000 70 1000 81 1009 90 1020 90ZM1020 140C1031 140 1040 131 1040 120 1040 109 1031 100 1020 100 1009 100 1000 109 1000 120 1000 131 1009 140 1020 140ZM1020 190C1031 190 1040 181 1040 170 1040 159 1031 150 1020 150 1009 150 1000 159 1000 170 1000 181 1009 190 1020 190ZM1020 240C1031 240 1040 231 1040 220 1040 209 1031 200 1020 200 1009 200 1000 209 1000 220 1000 231 1009 240 1020 240ZM1020 290C1031 290 1040 281 1040 270 1040 259 1031 250 1020 250 1009 250 1000 259 1000 270 1000 281 1009 290 1020 290ZM1020 340C1031 340 1040 331 1040 320 1040 309 1031 300 1020 300 1009 300 1000 309 1000 320 1000 331 1009 340 1020 340ZM1020 390C1031 390 1040 381 1040 370 1040 359 1031 350 1020 350 1009 350 1000 359 1000 370 1000 381 1009 390 1020 390ZM1020 440C1031 440 1040 431 1040 420 1040 409 1031 400 1020 400 1009 400 1000 409 1000 420 1000 431 1009 440 1020 440ZM1020 490C1031 490 1040 481 1040 470 1040 459 1031 450 1020 450 1009 450 1000 459 1000 470 1000 481 1009 490 1020 490ZM1020 540C1031 540 1040 531 1040 520 1040 509 1031 500 1020 500 1009 500 1000 509 1000 520 1000 531 1009 540 1020 540ZM1020 590C1031 590 1040 581 1040 570 1040 559 1031 550 1020 550 1009 550 1000 559 1000 570 1000 581 1009 590 1020 590ZM1020 640C1031 640 1040 631 1040 620 1040 609 1031 600 1020 600 1009 600 1000 609 1000 620 1000 631 1009 640 1020 640ZM1070 640C1081 640 1090 631 1090 620 1090 609 1081 600 1070 600 1059 600 1050 609 1050 620 1050 631 1059 640 1070 640ZM1070 590C1081 590 1090 581 1090 570 1090 559 1081 550 1070 550 1059 550 1050 559 1050 570 1050 581 1059 590 1070 590ZM1070 540C1081 540 1090 531 1090 520 1090 509 1081 500 1070 500 1059 500 1050 509 1050 520 1050 531 1059 540 1070 540ZM1070 490C1081 490 1090 481 1090 470 1090 459 1081 450 1070 450 1059 450 1050 459 1050 470 1050 481 1059 490 1070 490ZM1070 440C1081 440 1090 431 1090 420 1090 409 1081 400 1070 400 1059 400 1050 409 1050 420 1050 431 1059 440 1070 440ZM1070 390C1081 390 1090 381 1090 370 1090 359 1081 350 1070 350 1059 350 1050 359 1050 370 1050 381 1059 390 1070 390ZM1070 340C1081 340 1090 331 1090 320 1090 309 1081 300 1070 300 1059 300 1050 309 1050 320 1050 331 1059 340 1070 340ZM1070 290C1081 290 1090 281 1090 270 1090 259 1081 250 1070 250 1059 250 1050 259 1050 270 1050 281 1059 290 1070 290ZM1070 240C1081 240 1090 231 1090 220 1090 209 1081 200 1070 200 1059 200 1050 209 1050 220 1050 231 1059 240 1070 240ZM1070 190C1081 190 1090 181 1090 170 1090 159 1081 150 1070 150 1059 150 1050 159 1050 170 1050 181 1059 190 1070 190ZM1070 140C1081 140 1090 131 1090 120 1090 109 1081 100 1070 100 1059 100 1050 109 1050 120 1050 131 1059 140 1070 140ZM1070 90C1081 90 1090 81 1090 70 1090 59 1081 50 1070 50 1059 50 1050 59 1050 70 1050 81 1059 90 1070 90ZM870 390C881 390 890 381 890 370 890 359 881 350 870 350 859 350 850 359 850 370 850 381 859 390 870 390ZM920 390C931 390 940 381 940 370 940 359 931 350 920 350 909 350 900 359 900 370 900 381 909 390 920 390ZM970 390C981 390 990 381 990 370 990 359 981 350 970 350 959 350 950 359 950 370 950 381 959 390 970 390ZM970 340C981 340 990 331 990 320 990 309 981 300 970 300 959 300 950 309 950 320 950 331 959 340 970 340ZM920 340C931 340 940 331 940 320 940 309 931 300 920 300 909 300 900 309 900 320 900 331 909 340 920 340ZM870 340C881 340 890 331 890 320 890 309 881 300 870 300 859 300 850 309 850 320 850 331 859 340 870 340ZM870 90C881 90 890 81 890 70 890 59 881 50 870 50 859 50 850 59 850 70 850 81 859 90 870 90ZM920 90C931 90 940 81 940 70 940 59 931 50 920 50 909 50 900 59 900 70 900 81 909 90 920 90ZM970 90C981 90 990 81 990 70 990 59 981 50 970 50 959 50 950 59 950 70 950 81 959 90 970 90ZM1170 40C1181 40 1190 31 1190 20 1190 9 1181 0 1170 0 1159 0 1150 9 1150 20 1150 31 1159 40 1170 40ZM1170 90C1181 90 1190 81 1190 70 1190 59 1181 50 1170 50 1159 50 1150 59 1150 70 1150 81 1159 90 1170 90ZM1170 140C1181 140 1190 131 1190 120 1190 109 1181 100 1170 100 1159 100 1150 109 1150 120 1150 131 1159 140 1170 140ZM1170 190C1181 190 1190 181 1190 170 1190 159 1181 150 1170 150 1159 150 1150 159 1150 170 1150 181 1159 190 1170 190ZM1170 240C1181 240 1190 231 1190 220 1190 209 1181 200 1170 200 1159 200 1150 209 1150 220 1150 231 1159 240 1170 240ZM1170 290C1181 290 1190 281 1190 270 1190 259 1181 250 1170 250 1159 250 1150 259 1150 270 1150 281 1159 290 1170 290ZM1170 340C1181 340 1190 331 1190 320 1190 309 1181 300 1170 300 1159 300 1150 309 1150 320 1150 331 1159 340 1170 340ZM1170 390C1181 390 1190 381 1190 370 1190 359 1181 350 1170 350 1159 350 1150 359 1150 370 1150 381 1159 390 1170 390ZM1170 440C1181 440 1190 431 1190 420 1190 409 1181 400 1170 400 1159 400 1150 409 1150 420 1150 431 1159 440 1170 440ZM1170 540C1181 540 1190 531 1190 520 1190 509 1181 500 1170 500 1159 500 1150 509 1150 520 1150 531 1159 540 1170 540ZM1170 590C1181 590 1190 581 1190 570 1190 559 1181 550 1170 550 1159 550 1150 559 1150 570 1150 581 1159 590 1170 590ZM1170 640C1181 640 1190 631 1190 620 1190 609 1181 600 1170 600 1159 600 1150 609 1150 620 1150 631 1159 640 1170 640ZM1170 490C1181 490 1190 481 1190 470 1190 459 1181 450 1170 450 1159 450 1150 459 1150 470 1150 481 1159 490 1170 490ZM1220 40C1231 40 1240 31 1240 20 1240 9 1231 0 1220 0 1209 0 1200 9 1200 20 1200 31 1209 40 1220 40ZM1220 90C1231 90 1240 81 1240 70 1240 59 1231 50 1220 50 1209 50 1200 59 1200 70 1200 81 1209 90 1220 90ZM1220 140C1231 140 1240 131 1240 120 1240 109 1231 100 1220 100 1209 100 1200 109 1200 120 1200 131 1209 140 1220 140ZM1220 190C1231 190 1240 181 1240 170 1240 159 1231 150 1220 150 1209 150 1200 159 1200 170 1200 181 1209 190 1220 190ZM1220 240C1231 240 1240 231 1240 220 1240 209 1231 200 1220 200 1209 200 1200 209 1200 220 1200 231 1209 240 1220 240ZM1220 290C1231 290 1240 281 1240 270 1240 259 1231 250 1220 250 1209 250 1200 259 1200 270 1200 281 1209 290 1220 290ZM1220 340C1231 340 1240 331 1240 320 1240 309 1231 300 1220 300 1209 300 1200 309 1200 320 1200 331 1209 340 1220 340ZM1220 390C1231 390 1240 381 1240 370 1240 359 1231 350 1220 350 1209 350 1200 359 1200 370 1200 381 1209 390 1220 390ZM1220 440C1231 440 1240 431 1240 420 1240 409 1231 400 1220 400 1209 400 1200 409 1200 420 1200 431 1209 440 1220 440ZM1220 490C1231 490 1240 481 1240 470 1240 459 1231 450 1220 450 1209 450 1200 459 1200 470 1200 481 1209 490 1220 490ZM1220 540C1231 540 1240 531 1240 520 1240 509 1231 500 1220 500 1209 500 1200 509 1200 520 1200 531 1209 540 1220 540ZM1220 590C1231 590 1240 581 1240 570 1240 559 1231 550 1220 550 1209 550 1200 559 1200 570 1200 581 1209 590 1220 590ZM1220 640C1231 640 1240 631 1240 620 1240 609 1231 600 1220 600 1209 600 1200 609 1200 620 1200 631 1209 640 1220 640ZM1270 140C1281 140 1290 131 1290 120 1290 109 1281 100 1270 100 1259 100 1250 109 1250 120 1250 131 1259 140 1270 140ZM1270 190C1281 190 1290 181 1290 170 1290 159 1281 150 1270 150 1259 150 1250 159 1250 170 1250 181 1259 190 1270 190ZM1270 240C1281 240 1290 231 1290 220 1290 209 1281 200 1270 200 1259 200 1250 209 1250 220 1250 231 1259 240 1270 240ZM1270 290C1281 290 1290 281 1290 270 1290 259 1281 250 1270 250 1259 250 1250 259 1250 270 1250 281 1259 290 1270 290ZM1320 240C1331 240 1340 231 1340 220 1340 209 1331 200 1320 200 1309 200 1300 209 1300 220 1300 231 1309 240 1320 240ZM1320 290C1331 290 1340 281 1340 270 1340 259 1331 250 1320 250 1309 250 1300 259 1300 270 1300 281 1309 290 1320 290ZM1320 340C1331 340 1340 331 1340 320 1340 309 1331 300 1320 300 1309 300 1300 309 1300 320 1300 331 1309 340 1320 340ZM1320 390C1331 390 1340 381 1340 370 1340 359 1331 350 1320 350 1309 350 1300 359 1300 370 1300 381 1309 390 1320 390ZM1370 340C1381 340 1390 331 1390 320 1390 309 1381 300 1370 300 1359 300 1350 309 1350 320 1350 331 1359 340 1370 340ZM1370 390C1381 390 1390 381 1390 370 1390 359 1381 350 1370 350 1359 350 1350 359 1350 370 1350 381 1359 390 1370 390ZM1370 440C1381 440 1390 431 1390 420 1390 409 1381 400 1370 400 1359 400 1350 409 1350 420 1350 431 1359 440 1370 440ZM1370 490C1381 490 1390 481 1390 470 1390 459 1381 450 1370 450 1359 450 1350 459 1350 470 1350 481 1359 490 1370 490ZM1420 40C1431 40 1440 31 1440 20 1440 9 1431 0 1420 0 1409 0 1400 9 1400 20 1400 31 1409 40 1420 40ZM1420 90C1431 90 1440 81 1440 70 1440 59 1431 50 1420 50 1409 50 1400 59 1400 70 1400 81 1409 90 1420 90ZM1420 140C1431 140 1440 131 1440 120 1440 109 1431 100 1420 100 1409 100 1400 109 1400 120 1400 131 1409 140 1420 140ZM1420 190C1431 190 1440 181 1440 170 1440 159 1431 150 1420 150 1409 150 1400 159 1400 170 1400 181 1409 190 1420 190ZM1420 240C1431 240 1440 231 1440 220 1440 209 1431 200 1420 200 1409 200 1400 209 1400 220 1400 231 1409 240 1420 240ZM1420 290C1431 290 1440 281 1440 270 1440 259 1431 250 1420 250 1409 250 1400 259 1400 270 1400 281 1409 290 1420 290ZM1420 340C1431 340 1440 331 1440 320 1440 309 1431 300 1420 300 1409 300 1400 309 1400 320 1400 331 1409 340 1420 340ZM1420 390C1431 390 1440 381 1440 370 1440 359 1431 350 1420 350 1409 350 1400 359 1400 370 1400 381 1409 390 1420 390ZM1420 440C1431 440 1440 431 1440 420 1440 409 1431 400 1420 400 1409 400 1400 409 1400 420 1400 431 1409 440 1420 440ZM1420 490C1431 490 1440 481 1440 470 1440 459 1431 450 1420 450 1409 450 1400 459 1400 470 1400 481 1409 490 1420 490ZM1420 540C1431 540 1440 531 1440 520 1440 509 1431 500 1420 500 1409 500 1400 509 1400 520 1400 531 1409 540 1420 540ZM1420 590C1431 590 1440 581 1440 570 1440 559 1431 550 1420 550 1409 550 1400 559 1400 570 1400 581 1409 590 1420 590ZM1420 640C1431 640 1440 631 1440 620 1440 609 1431 600 1420 600 1409 600 1400 609 1400 620 1400 631 1409 640 1420 640ZM1470 40C1481 40 1490 31 1490 20 1490 9 1481 0 1470 0 1459 0 1450 9 1450 20 1450 31 1459 40 1470 40ZM1470 90C1481 90 1490 81 1490 70 1490 59 1481 50 1470 50 1459 50 1450 59 1450 70 1450 81 1459 90 1470 90ZM1470 140C1481 140 1490 131 1490 120 1490 109 1481 100 1470 100 1459 100 1450 109 1450 120 1450 131 1459 140 1470 140ZM1470 190C1481 190 1490 181 1490 170 1490 159 1481 150 1470 150 1459 150 1450 159 1450 170 1450 181 1459 190 1470 190ZM1470 240C1481 240 1490 231 1490 220 1490 209 1481 200 1470 200 1459 200 1450 209 1450 220 1450 231 1459 240 1470 240ZM1470 290C1481 290 1490 281 1490 270 1490 259 1481 250 1470 250 1459 250 1450 259 1450 270 1450 281 1459 290 1470 290ZM1470 340C1481 340 1490 331 1490 320 1490 309 1481 300 1470 300 1459 300 1450 309 1450 320 1450 331 1459 340 1470 340ZM1470 390C1481 390 1490 381 1490 370 1490 359 1481 350 1470 350 1459 350 1450 359 1450 370 1450 381 1459 390 1470 390ZM1470 440C1481 440 1490 431 1490 420 1490 409 1481 400 1470 400 1459 400 1450 409 1450 420 1450 431 1459 440 1470 440ZM1470 490C1481 490 1490 481 1490 470 1490 459 1481 450 1470 450 1459 450 1450 459 1450 470 1450 481 1459 490 1470 490ZM1470 540C1481 540 1490 531 1490 520 1490 509 1481 500 1470 500 1459 500 1450 509 1450 520 1450 531 1459 540 1470 540ZM1470 590C1481 590 1490 581 1490 570 1490 559 1481 550 1470 550 1459 550 1450 559 1450 570 1450 581 1459 590 1470 590ZM1470 640C1481 640 1490 631 1490 620 1490 609 1481 600 1470 600 1459 600 1450 609 1450 620 1450 631 1459 640 1470 640ZM1570 540C1581 540 1590 531 1590 520 1590 509 1581 500 1570 500 1559 500 1550 509 1550 520 1550 531 1559 540 1570 540ZM1570 590C1581 590 1590 581 1590 570 1590 559 1581 550 1570 550 1559 550 1550 559 1550 570 1550 581 1559 590 1570 590ZM1620 540C1631 540 1640 531 1640 520 1640 509 1631 500 1620 500 1609 500 1600 509 1600 520 1600 531 1609 540 1620 540ZM1620 590C1631 590 1640 581 1640 570 1640 559 1631 550 1620 550 1609 550 1600 559 1600 570 1600 581 1609 590 1620 590ZM1620 640C1631 640 1640 631 1640 620 1640 609 1631 600 1620 600 1609 600 1600 609 1600 620 1600 631 1609 640 1620 640ZM1670 590C1681 590 1690 581 1690 570 1690 559 1681 550 1670 550 1659 550 1650 559 1650 570 1650 581 1659 590 1670 590ZM1720 590C1731 590 1740 581 1740 570 1740 559 1731 550 1720 550 1709 550 1700 559 1700 570 1700 581 1709 590 1720 590ZM1770 590C1781 590 1790 581 1790 570 1790 559 1781 550 1770 550 1759 550 1750 559 1750 570 1750 581 1759 590 1770 590ZM1820 590C1831 590 1840 581 1840 570 1840 559 1831 550 1820 550 1809 550 1800 559 1800 570 1800 581 1809 590 1820 590ZM1870 590C1881 590 1890 581 1890 570 1890 559 1881 550 1870 550 1859 550 1850 559 1850 570 1850 581 1859 590 1870 590ZM1820 640C1831 640 1840 631 1840 620 1840 609 1831 600 1820 600 1809 600 1800 609 1800 620 1800 631 1809 640 1820 640ZM1770 640C1781 640 1790 631 1790 620 1790 609 1781 600 1770 600 1759 600 1750 609 1750 620 1750 631 1759 640 1770 640ZM1720 640C1731 640 1740 631 1740 620 1740 609 1731 600 1720 600 1709 600 1700 609 1700 620 1700 631 1709 640 1720 640ZM1670 640C1681 640 1690 631 1690 620 1690 609 1681 600 1670 600 1659 600 1650 609 1650 620 1650 631 1659 640 1670 640ZM1820 440C1831 440 1840 431 1840 420 1840 409 1831 400 1820 400 1809 400 1800 409 1800 420 1800 431 1809 440 1820 440ZM1820 490C1831 490 1840 481 1840 470 1840 459 1831 450 1820 450 1809 450 1800 459 1800 470 1800 481 1809 490 1820 490ZM1820 540C1831 540 1840 531 1840 520 1840 509 1831 500 1820 500 1809 500 1800 509 1800 520 1800 531 1809 540 1820 540ZM1870 540C1881 540 1890 531 1890 520 1890 509 1881 500 1870 500 1859 500 1850 509 1850 520 1850 531 1859 540 1870 540ZM1870 490C1881 490 1890 481 1890 470 1890 459 1881 450 1870 450 1859 450 1850 459 1850 470 1850 481 1859 490 1870 490ZM1870 440C1881 440 1890 431 1890 420 1890 409 1881 400 1870 400 1859 400 1850 409 1850 420 1850 431 1859 440 1870 440ZM1820 390C1831 390 1840 381 1840 370 1840 359 1831 350 1820 350 1809 350 1800 359 1800 370 1800 381 1809 390 1820 390ZM1770 390C1781 390 1790 381 1790 370 1790 359 1781 350 1770 350 1759 350 1750 359 1750 370 1750 381 1759 390 1770 390ZM1770 440C1781 440 1790 431 1790 420 1790 409 1781 400 1770 400 1759 400 1750 409 1750 420 1750 431 1759 440 1770 440ZM1770 340C1781 340 1790 331 1790 320 1790 309 1781 300 1770 300 1759 300 1750 309 1750 320 1750 331 1759 340 1770 340ZM1720 340C1731 340 1740 331 1740 320 1740 309 1731 300 1720 300 1709 300 1700 309 1700 320 1700 331 1709 340 1720 340ZM1720 390C1731 390 1740 381 1740 370 1740 359 1731 350 1720 350 1709 350 1700 359 1700 370 1700 381 1709 390 1720 390ZM1720 290C1731 290 1740 281 1740 270 1740 259 1731 250 1720 250 1709 250 1700 259 1700 270 1700 281 1709 290 1720 290ZM1670 290C1681 290 1690 281 1690 270 1690 259 1681 250 1670 250 1659 250 1650 259 1650 270 1650 281 1659 290 1670 290ZM1670 340C1681 340 1690 331 1690 320 1690 309 1681 300 1670 300 1659 300 1650 309 1650 320 1650 331 1659 340 1670 340ZM1670 240C1681 240 1690 231 1690 220 1690 209 1681 200 1670 200 1659 200 1650 209 1650 220 1650 231 1659 240 1670 240ZM1620 240C1631 240 1640 231 1640 220 1640 209 1631 200 1620 200 1609 200 1600 209 1600 220 1600 231 1609 240 1620 240ZM1620 290C1631 290 1640 281 1640 270 1640 259 1631 250 1620 250 1609 250 1600 259 1600 270 1600 281 1609 290 1620 290ZM1570 240C1581 240 1590 231 1590 220 1590 209 1581 200 1570 200 1559 200 1550 209 1550 220 1550 231 1559 240 1570 240ZM1570 190C1581 190 1590 181 1590 170 1590 159 1581 150 1570 150 1559 150 1550 159 1550 170 1550 181 1559 190 1570 190ZM1570 140C1581 140 1590 131 1590 120 1590 109 1581 100 1570 100 1559 100 1550 109 1550 120 1550 131 1559 140 1570 140ZM1570 90C1581 90 1590 81 1590 70 1590 59 1581 50 1570 50 1559 50 1550 59 1550 70 1550 81 1559 90 1570 90ZM1620 40C1631 40 1640 31 1640 20 1640 9 1631 0 1620 0 1609 0 1600 9 1600 20 1600 31 1609 40 1620 40ZM1620 90C1631 90 1640 81 1640 70 1640 59 1631 50 1620 50 1609 50 1600 59 1600 70 1600 81 1609 90 1620 90ZM1620 140C1631 140 1640 131 1640 120 1640 109 1631 100 1620 100 1609 100 1600 109 1600 120 1600 131 1609 140 1620 140ZM1620 190C1631 190 1640 181 1640 170 1640 159 1631 150 1620 150 1609 150 1600 159 1600 170 1600 181 1609 190 1620 190ZM1670 40C1681 40 1690 31 1690 20 1690 9 1681 0 1670 0 1659 0 1650 9 1650 20 1650 31 1659 40 1670 40ZM1720 40C1731 40 1740 31 1740 20 1740 9 1731 0 1720 0 1709 0 1700 9 1700 20 1700 31 1709 40 1720 40ZM1770 40C1781 40 1790 31 1790 20 1790 9 1781 0 1770 0 1759 0 1750 9 1750 20 1750 31 1759 40 1770 40ZM1820 40C1831 40 1840 31 1840 20 1840 9 1831 0 1820 0 1809 0 1800 9 1800 20 1800 31 1809 40 1820 40ZM1670 90C1681 90 1690 81 1690 70 1690 59 1681 50 1670 50 1659 50 1650 59 1650 70 1650 81 1659 90 1670 90ZM1720 90C1731 90 1740 81 1740 70 1740 59 1731 50 1720 50 1709 50 1700 59 1700 70 1700 81 1709 90 1720 90ZM1770 90C1781 90 1790 81 1790 70 1790 59 1781 50 1770 50 1759 50 1750 59 1750 70 1750 81 1759 90 1770 90ZM1820 90C1831 90 1840 81 1840 70 1840 59 1831 50 1820 50 1809 50 1800 59 1800 70 1800 81 1809 90 1820 90ZM1870 90C1881 90 1890 81 1890 70 1890 59 1881 50 1870 50 1859 50 1850 59 1850 70 1850 81 1859 90 1870 90ZM1870 140C1881 140 1890 131 1890 120 1890 109 1881 100 1870 100 1859 100 1850 109 1850 120 1850 131 1859 140 1870 140ZM1820 140C1831 140 1840 131 1840 120 1840 109 1831 100 1820 100 1809 100 1800 109 1800 120 1800 131 1809 140 1820 140ZM1970 40C1981 40 1990 31 1990 20 1990 9 1981 0 1970 0 1959 0 1950 9 1950 20 1950 31 1959 40 1970 40ZM1970 90C1981 90 1990 81 1990 70 1990 59 1981 50 1970 50 1959 50 1950 59 1950 70 1950 81 1959 90 1970 90ZM1970 140C1981 140 1990 131 1990 120 1990 109 1981 100 1970 100 1959 100 1950 109 1950 120 1950 131 1959 140 1970 140ZM1970 190C1981 190 1990 181 1990 170 1990 159 1981 150 1970 150 1959 150 1950 159 1950 170 1950 181 1959 190 1970 190ZM1970 240C1981 240 1990 231 1990 220 1990 209 1981 200 1970 200 1959 200 1950 209 1950 220 1950 231 1959 240 1970 240ZM1970 290C1981 290 1990 281 1990 270 1990 259 1981 250 1970 250 1959 250 1950 259 1950 270 1950 281 1959 290 1970 290ZM1970 340C1981 340 1990 331 1990 320 1990 309 1981 300 1970 300 1959 300 1950 309 1950 320 1950 331 1959 340 1970 340ZM1970 390C1981 390 1990 381 1990 370 1990 359 1981 350 1970 350 1959 350 1950 359 1950 370 1950 381 1959 390 1970 390ZM1970 440C1981 440 1990 431 1990 420 1990 409 1981 400 1970 400 1959 400 1950 409 1950 420 1950 431 1959 440 1970 440ZM1970 490C1981 490 1990 481 1990 470 1990 459 1981 450 1970 450 1959 450 1950 459 1950 470 1950 481 1959 490 1970 490ZM1970 540C1981 540 1990 531 1990 520 1990 509 1981 500 1970 500 1959 500 1950 509 1950 520 1950 531 1959 540 1970 540ZM1970 590C1981 590 1990 581 1990 570 1990 559 1981 550 1970 550 1959 550 1950 559 1950 570 1950 581 1959 590 1970 590ZM1970 640C1981 640 1990 631 1990 620 1990 609 1981 600 1970 600 1959 600 1950 609 1950 620 1950 631 1959 640 1970 640ZM2020 640C2031 640 2040 631 2040 620 2040 609 2031 600 2020 600 2009 600 2000 609 2000 620 2000 631 2009 640 2020 640ZM2020 590C2031 590 2040 581 2040 570 2040 559 2031 550 2020 550 2009 550 2000 559 2000 570 2000 581 2009 590 2020 590ZM2020 540C2031 540 2040 531 2040 520 2040 509 2031 500 2020 500 2009 500 2000 509 2000 520 2000 531 2009 540 2020 540ZM2020 490C2031 490 2040 481 2040 470 2040 459 2031 450 2020 450 2009 450 2000 459 2000 470 2000 481 2009 490 2020 490ZM2020 440C2031 440 2040 431 2040 420 2040 409 2031 400 2020 400 2009 400 2000 409 2000 420 2000 431 2009 440 2020 440ZM2020 390C2031 390 2040 381 2040 370 2040 359 2031 350 2020 350 2009 350 2000 359 2000 370 2000 381 2009 390 2020 390ZM2020 340C2031 340 2040 331 2040 320 2040 309 2031 300 2020 300 2009 300 2000 309 2000 320 2000 331 2009 340 2020 340ZM2020 290C2031 290 2040 281 2040 270 2040 259 2031 250 2020 250 2009 250 2000 259 2000 270 2000 281 2009 290 2020 290ZM2020 240C2031 240 2040 231 2040 220 2040 209 2031 200 2020 200 2009 200 2000 209 2000 220 2000 231 2009 240 2020 240ZM2020 190C2031 190 2040 181 2040 170 2040 159 2031 150 2020 150 2009 150 2000 159 2000 170 2000 181 2009 190 2020 190ZM2020 140C2031 140 2040 131 2040 120 2040 109 2031 100 2020 100 2009 100 2000 109 2000 120 2000 131 2009 140 2020 140ZM2020 90C2031 90 2040 81 2040 70 2040 59 2031 50 2020 50 2009 50 2000 59 2000 70 2000 81 2009 90 2020 90ZM2020 40C2031 40 2040 31 2040 20 2040 9 2031 0 2020 0 2009 0 2000 9 2000 20 2000 31 2009 40 2020 40ZM2070 40C2081 40 2090 31 2090 20 2090 9 2081 0 2070 0 2059 0 2050 9 2050 20 2050 31 2059 40 2070 40ZM2070 90C2081 90 2090 81 2090 70 2090 59 2081 50 2070 50 2059 50 2050 59 2050 70 2050 81 2059 90 2070 90ZM2120 90C2131 90 2140 81 2140 70 2140 59 2131 50 2120 50 2109 50 2100 59 2100 70 2100 81 2109 90 2120 90ZM2170 90C2181 90 2190 81 2190 70 2190 59 2181 50 2170 50 2159 50 2150 59 2150 70 2150 81 2159 90 2170 90ZM2170 40C2181 40 2190 31 2190 20 2190 9 2181 0 2170 0 2159 0 2150 9 2150 20 2150 31 2159 40 2170 40ZM2120 40C2131 40 2140 31 2140 20 2140 9 2131 0 2120 0 2109 0 2100 9 2100 20 2100 31 2109 40 2120 40ZM2070 340C2081 340 2090 331 2090 320 2090 309 2081 300 2070 300 2059 300 2050 309 2050 320 2050 331 2059 340 2070 340ZM2070 390C2081 390 2090 381 2090 370 2090 359 2081 350 2070 350 2059 350 2050 359 2050 370 2050 381 2059 390 2070 390ZM2120 390C2131 390 2140 381 2140 370 2140 359 2131 350 2120 350 2109 350 2100 359 2100 370 2100 381 2109 390 2120 390ZM2120 340C2131 340 2140 331 2140 320 2140 309 2131 300 2120 300 2109 300 2100 309 2100 320 2100 331 2109 340 2120 340ZM2170 340C2181 340 2190 331 2190 320 2190 309 2181 300 2170 300 2159 300 2150 309 2150 320 2150 331 2159 340 2170 340ZM2170 390C2181 390 2190 381 2190 370 2190 359 2181 350 2170 350 2159 350 2150 359 2150 370 2150 381 2159 390 2170 390ZM2220 40C2231 40 2240 31 2240 20 2240 9 2231 0 2220 0 2209 0 2200 9 2200 20 2200 31 2209 40 2220 40ZM2220 90C2231 90 2240 81 2240 70 2240 59 2231 50 2220 50 2209 50 2200 59 2200 70 2200 81 2209 90 2220 90ZM2220 140C2231 140 2240 131 2240 120 2240 109 2231 100 2220 100 2209 100 2200 109 2200 120 2200 131 2209 140 2220 140ZM2220 190C2231 190 2240 181 2240 170 2240 159 2231 150 2220 150 2209 150 2200 159 2200 170 2200 181 2209 190 2220 190ZM2220 240C2231 240 2240 231 2240 220 2240 209 2231 200 2220 200 2209 200 2200 209 2200 220 2200 231 2209 240 2220 240ZM2220 290C2231 290 2240 281 2240 270 2240 259 2231 250 2220 250 2209 250 2200 259 2200 270 2200 281 2209 290 2220 290ZM2220 340C2231 340 2240 331 2240 320 2240 309 2231 300 2220 300 2209 300 2200 309 2200 320 2200 331 2209 340 2220 340ZM2220 390C2231 390 2240 381 2240 370 2240 359 2231 350 2220 350 2209 350 2200 359 2200 370 2200 381 2209 390 2220 390ZM2270 90C2281 90 2290 81 2290 70 2290 59 2281 50 2270 50 2259 50 2250 59 2250 70 2250 81 2259 90 2270 90ZM2270 140C2281 140 2290 131 2290 120 2290 109 2281 100 2270 100 2259 100 2250 109 2250 120 2250 131 2259 140 2270 140ZM2270 190C2281 190 2290 181 2290 170 2290 159 2281 150 2270 150 2259 150 2250 159 2250 170 2250 181 2259 190 2270 190ZM2270 240C2281 240 2290 231 2290 220 2290 209 2281 200 2270 200 2259 200 2250 209 2250 220 2250 231 2259 240 2270 240ZM2270 290C2281 290 2290 281 2290 270 2290 259 2281 250 2270 250 2259 250 2250 259 2250 270 2250 281 2259 290 2270 290ZM2270 340C2281 340 2290 331 2290 320 2290 309 2281 300 2270 300 2259 300 2250 309 2250 320 2250 331 2259 340 2270 340ZM2370 90C2381 90 2390 81 2390 70 2390 59 2381 50 2370 50 2359 50 2350 59 2350 70 2350 81 2359 90 2370 90ZM2370 140C2381 140 2390 131 2390 120 2390 109 2381 100 2370 100 2359 100 2350 109 2350 120 2350 131 2359 140 2370 140ZM2370 190C2381 190 2390 181 2390 170 2390 159 2381 150 2370 150 2359 150 2350 159 2350 170 2350 181 2359 190 2370 190ZM2370 240C2381 240 2390 231 2390 220 2390 209 2381 200 2370 200 2359 200 2350 209 2350 220 2350 231 2359 240 2370 240ZM2370 290C2381 290 2390 281 2390 270 2390 259 2381 250 2370 250 2359 250 2350 259 2350 270 2350 281 2359 290 2370 290ZM2370 340C2381 340 2390 331 2390 320 2390 309 2381 300 2370 300 2359 300 2350 309 2350 320 2350 331 2359 340 2370 340ZM2370 390C2381 390 2390 381 2390 370 2390 359 2381 350 2370 350 2359 350 2350 359 2350 370 2350 381 2359 390 2370 390ZM2370 440C2381 440 2390 431 2390 420 2390 409 2381 400 2370 400 2359 400 2350 409 2350 420 2350 431 2359 440 2370 440ZM2370 490C2381 490 2390 481 2390 470 2390 459 2381 450 2370 450 2359 450 2350 459 2350 470 2350 481 2359 490 2370 490ZM2370 540C2381 540 2390 531 2390 520 2390 509 2381 500 2370 500 2359 500 2350 509 2350 520 2350 531 2359 540 2370 540ZM2370 590C2381 590 2390 581 2390 570 2390 559 2381 550 2370 550 2359 550 2350 559 2350 570 2350 581 2359 590 2370 590ZM2420 640C2431 640 2440 631 2440 620 2440 609 2431 600 2420 600 2409 600 2400 609 2400 620 2400 631 2409 640 2420 640ZM2420 590C2431 590 2440 581 2440 570 2440 559 2431 550 2420 550 2409 550 2400 559 2400 570 2400 581 2409 590 2420 590ZM2420 540C2431 540 2440 531 2440 520 2440 509 2431 500 2420 500 2409 500 2400 509 2400 520 2400 531 2409 540 2420 540ZM2420 490C2431 490 2440 481 2440 470 2440 459 2431 450 2420 450 2409 450 2400 459 2400 470 2400 481 2409 490 2420 490ZM2420 440C2431 440 2440 431 2440 420 2440 409 2431 400 2420 400 2409 400 2400 409 2400 420 2400 431 2409 440 2420 440ZM2420 390C2431 390 2440 381 2440 370 2440 359 2431 350 2420 350 2409 350 2400 359 2400 370 2400 381 2409 390 2420 390ZM2420 340C2431 340 2440 331 2440 320 2440 309 2431 300 2420 300 2409 300 2400 309 2400 320 2400 331 2409 340 2420 340ZM2420 290C2431 290 2440 281 2440 270 2440 259 2431 250 2420 250 2409 250 2400 259 2400 270 2400 281 2409 290 2420 290ZM2420 240C2431 240 2440 231 2440 220 2440 209 2431 200 2420 200 2409 200 2400 209 2400 220 2400 231 2409 240 2420 240ZM2420 190C2431 190 2440 181 2440 170 2440 159 2431 150 2420 150 2409 150 2400 159 2400 170 2400 181 2409 190 2420 190ZM2420 140C2431 140 2440 131 2440 120 2440 109 2431 100 2420 100 2409 100 2400 109 2400 120 2400 131 2409 140 2420 140ZM2420 90C2431 90 2440 81 2440 70 2440 59 2431 50 2420 50 2409 50 2400 59 2400 70 2400 81 2409 90 2420 90ZM2420 40C2431 40 2440 31 2440 20 2440 9 2431 0 2420 0 2409 0 2400 9 2400 20 2400 31 2409 40 2420 40ZM2470 90C2481 90 2490 81 2490 70 2490 59 2481 50 2470 50 2459 50 2450 59 2450 70 2450 81 2459 90 2470 90ZM2520 90C2531 90 2540 81 2540 70 2540 59 2531 50 2520 50 2509 50 2500 59 2500 70 2500 81 2509 90 2520 90ZM2570 90C2581 90 2590 81 2590 70 2590 59 2581 50 2570 50 2559 50 2550 59 2550 70 2550 81 2559 90 2570 90ZM2570 40C2581 40 2590 31 2590 20 2590 9 2581 0 2570 0 2559 0 2550 9 2550 20 2550 31 2559 40 2570 40ZM2520 40C2531 40 2540 31 2540 20 2540 9 2531 0 2520 0 2509 0 2500 9 2500 20 2500 31 2509 40 2520 40ZM2470 40C2481 40 2490 31 2490 20 2490 9 2481 0 2470 0 2459 0 2450 9 2450 20 2450 31 2459 40 2470 40ZM2620 40C2631 40 2640 31 2640 20 2640 9 2631 0 2620 0 2609 0 2600 9 2600 20 2600 31 2609 40 2620 40ZM2620 90C2631 90 2640 81 2640 70 2640 59 2631 50 2620 50 2609 50 2600 59 2600 70 2600 81 2609 90 2620 90ZM2620 140C2631 140 2640 131 2640 120 2640 109 2631 100 2620 100 2609 100 2600 109 2600 120 2600 131 2609 140 2620 140ZM2620 190C2631 190 2640 181 2640 170 2640 159 2631 150 2620 150 2609 150 2600 159 2600 170 2600 181 2609 190 2620 190ZM2620 240C2631 240 2640 231 2640 220 2640 209 2631 200 2620 200 2609 200 2600 209 2600 220 2600 231 2609 240 2620 240ZM2620 290C2631 290 2640 281 2640 270 2640 259 2631 250 2620 250 2609 250 2600 259 2600 270 2600 281 2609 290 2620 290ZM2620 340C2631 340 2640 331 2640 320 2640 309 2631 300 2620 300 2609 300 2600 309 2600 320 2600 331 2609 340 2620 340ZM2620 390C2631 390 2640 381 2640 370 2640 359 2631 350 2620 350 2609 350 2600 359 2600 370 2600 381 2609 390 2620 390ZM2620 440C2631 440 2640 431 2640 420 2640 409 2631 400 2620 400 2609 400 2600 409 2600 420 2600 431 2609 440 2620 440ZM2620 490C2631 490 2640 481 2640 470 2640 459 2631 450 2620 450 2609 450 2600 459 2600 470 2600 481 2609 490 2620 490ZM2620 540C2631 540 2640 531 2640 520 2640 509 2631 500 2620 500 2609 500 2600 509 2600 520 2600 531 2609 540 2620 540ZM2620 590C2631 590 2640 581 2640 570 2640 559 2631 550 2620 550 2609 550 2600 559 2600 570 2600 581 2609 590 2620 590ZM2620 640C2631 640 2640 631 2640 620 2640 609 2631 600 2620 600 2609 600 2600 609 2600 620 2600 631 2609 640 2620 640ZM2670 590C2681 590 2690 581 2690 570 2690 559 2681 550 2670 550 2659 550 2650 559 2650 570 2650 581 2659 590 2670 590ZM2670 540C2681 540 2690 531 2690 520 2690 509 2681 500 2670 500 2659 500 2650 509 2650 520 2650 531 2659 540 2670 540ZM2670 490C2681 490 2690 481 2690 470 2690 459 2681 450 2670 450 2659 450 2650 459 2650 470 2650 481 2659 490 2670 490ZM2670 440C2681 440 2690 431 2690 420 2690 409 2681 400 2670 400 2659 400 2650 409 2650 420 2650 431 2659 440 2670 440ZM2670 390C2681 390 2690 381 2690 370 2690 359 2681 350 2670 350 2659 350 2650 359 2650 370 2650 381 2659 390 2670 390ZM2670 340C2681 340 2690 331 2690 320 2690 309 2681 300 2670 300 2659 300 2650 309 2650 320 2650 331 2659 340 2670 340ZM2670 290C2681 290 2690 281 2690 270 2690 259 2681 250 2670 250 2659 250 2650 259 2650 270 2650 281 2659 290 2670 290ZM2670 240C2681 240 2690 231 2690 220 2690 209 2681 200 2670 200 2659 200 2650 209 2650 220 2650 231 2659 240 2670 240ZM2670 190C2681 190 2690 181 2690 170 2690 159 2681 150 2670 150 2659 150 2650 159 2650 170 2650 181 2659 190 2670 190ZM2670 140C2681 140 2690 131 2690 120 2690 109 2681 100 2670 100 2659 100 2650 109 2650 120 2650 131 2659 140 2670 140ZM2670 90C2681 90 2690 81 2690 70 2690 59 2681 50 2670 50 2659 50 2650 59 2650 70 2650 81 2659 90 2670 90ZM2470 590C2481 590 2490 581 2490 570 2490 559 2481 550 2470 550 2459 550 2450 559 2450 570 2450 581 2459 590 2470 590ZM2520 590C2531 590 2540 581 2540 570 2540 559 2531 550 2520 550 2509 550 2500 559 2500 570 2500 581 2509 590 2520 590ZM2570 590C2581 590 2590 581 2590 570 2590 559 2581 550 2570 550 2559 550 2550 559 2550 570 2550 581 2559 590 2570 590ZM2570 640C2581 640 2590 631 2590 620 2590 609 2581 600 2570 600 2559 600 2550 609 2550 620 2550 631 2559 640 2570 640ZM2520 640C2531 640 2540 631 2540 620 2540 609 2531 600 2520 600 2509 600 2500 609 2500 620 2500 631 2509 640 2520 640ZM2470 640C2481 640 2490 631 2490 620 2490 609 2481 600 2470 600 2459 600 2450 609 2450 620 2450 631 2459 640 2470 640ZM2770 40C2781 40 2790 31 2790 20 2790 9 2781 0 2770 0 2759 0 2750 9 2750 20 2750 31 2759 40 2770 40ZM2770 90C2781 90 2790 81 2790 70 2790 59 2781 50 2770 50 2759 50 2750 59 2750 70 2750 81 2759 90 2770 90ZM2770 140C2781 140 2790 131 2790 120 2790 109 2781 100 2770 100 2759 100 2750 109 2750 120 2750 131 2759 140 2770 140ZM2770 190C2781 190 2790 181 2790 170 2790 159 2781 150 2770 150 2759 150 2750 159 2750 170 2750 181 2759 190 2770 190ZM2770 240C2781 240 2790 231 2790 220 2790 209 2781 200 2770 200 2759 200 2750 209 2750 220 2750 231 2759 240 2770 240ZM2770 290C2781 290 2790 281 2790 270 2790 259 2781 250 2770 250 2759 250 2750 259 2750 270 2750 281 2759 290 2770 290ZM2770 340C2781 340 2790 331 2790 320 2790 309 2781 300 2770 300 2759 300 2750 309 2750 320 2750 331 2759 340 2770 340ZM2770 390C2781 390 2790 381 2790 370 2790 359 2781 350 2770 350 2759 350 2750 359 2750 370 2750 381 2759 390 2770 390ZM2770 440C2781 440 2790 431 2790 420 2790 409 2781 400 2770 400 2759 400 2750 409 2750 420 2750 431 2759 440 2770 440ZM2770 490C2781 490 2790 481 2790 470 2790 459 2781 450 2770 450 2759 450 2750 459 2750 470 2750 481 2759 490 2770 490ZM2770 540C2781 540 2790 531 2790 520 2790 509 2781 500 2770 500 2759 500 2750 509 2750 520 2750 531 2759 540 2770 540ZM2770 590C2781 590 2790 581 2790 570 2790 559 2781 550 2770 550 2759 550 2750 559 2750 570 2750 581 2759 590 2770 590ZM2770 640C2781 640 2790 631 2790 620 2790 609 2781 600 2770 600 2759 600 2750 609 2750 620 2750 631 2759 640 2770 640ZM2820 640C2831 640 2840 631 2840 620 2840 609 2831 600 2820 600 2809 600 2800 609 2800 620 2800 631 2809 640 2820 640ZM2820 590C2831 590 2840 581 2840 570 2840 559 2831 550 2820 550 2809 550 2800 559 2800 570 2800 581 2809 590 2820 590ZM2820 540C2831 540 2840 531 2840 520 2840 509 2831 500 2820 500 2809 500 2800 509 2800 520 2800 531 2809 540 2820 540ZM2820 490C2831 490 2840 481 2840 470 2840 459 2831 450 2820 450 2809 450 2800 459 2800 470 2800 481 2809 490 2820 490ZM2820 440C2831 440 2840 431 2840 420 2840 409 2831 400 2820 400 2809 400 2800 409 2800 420 2800 431 2809 440 2820 440ZM2820 390C2831 390 2840 381 2840 370 2840 359 2831 350 2820 350 2809 350 2800 359 2800 370 2800 381 2809 390 2820 390ZM2820 340C2831 340 2840 331 2840 320 2840 309 2831 300 2820 300 2809 300 2800 309 2800 320 2800 331 2809 340 2820 340ZM2820 290C2831 290 2840 281 2840 270 2840 259 2831 250 2820 250 2809 250 2800 259 2800 270 2800 281 2809 290 2820 290ZM2820 240C2831 240 2840 231 2840 220 2840 209 2831 200 2820 200 2809 200 2800 209 2800 220 2800 231 2809 240 2820 240ZM2820 190C2831 190 2840 181 2840 170 2840 159 2831 150 2820 150 2809 150 2800 159 2800 170 2800 181 2809 190 2820 190ZM2820 140C2831 140 2840 131 2840 120 2840 109 2831 100 2820 100 2809 100 2800 109 2800 120 2800 131 2809 140 2820 140ZM2820 90C2831 90 2840 81 2840 70 2840 59 2831 50 2820 50 2809 50 2800 59 2800 70 2800 81 2809 90 2820 90ZM2820 40C2831 40 2840 31 2840 20 2840 9 2831 0 2820 0 2809 0 2800 9 2800 20 2800 31 2809 40 2820 40ZM2870 40C2881 40 2890 31 2890 20 2890 9 2881 0 2870 0 2859 0 2850 9 2850 20 2850 31 2859 40 2870 40ZM2870 90C2881 90 2890 81 2890 70 2890 59 2881 50 2870 50 2859 50 2850 59 2850 70 2850 81 2859 90 2870 90ZM2920 90C2931 90 2940 81 2940 70 2940 59 2931 50 2920 50 2909 50 2900 59 2900 70 2900 81 2909 90 2920 90ZM2970 90C2981 90 2990 81 2990 70 2990 59 2981 50 2970 50 2959 50 2950 59 2950 70 2950 81 2959 90 2970 90ZM2970 40C2981 40 2990 31 2990 20 2990 9 2981 0 2970 0 2959 0 2950 9 2950 20 2950 31 2959 40 2970 40ZM2920 40C2931 40 2940 31 2940 20 2940 9 2931 0 2920 0 2909 0 2900 9 2900 20 2900 31 2909 40 2920 40ZM2870 340C2881 340 2890 331 2890 320 2890 309 2881 300 2870 300 2859 300 2850 309 2850 320 2850 331 2859 340 2870 340ZM2870 390C2881 390 2890 381 2890 370 2890 359 2881 350 2870 350 2859 350 2850 359 2850 370 2850 381 2859 390 2870 390ZM2920 390C2931 390 2940 381 2940 370 2940 359 2931 350 2920 350 2909 350 2900 359 2900 370 2900 381 2909 390 2920 390ZM2920 340C2931 340 2940 331 2940 320 2940 309 2931 300 2920 300 2909 300 2900 309 2900 320 2900 331 2909 340 2920 340ZM2970 340C2981 340 2990 331 2990 320 2990 309 2981 300 2970 300 2959 300 2950 309 2950 320 2950 331 2959 340 2970 340ZM2970 390C2981 390 2990 381 2990 370 2990 359 2981 350 2970 350 2959 350 2950 359 2950 370 2950 381 2959 390 2970 390ZM3020 40C3031 40 3040 31 3040 20 3040 9 3031 0 3020 0 3009 0 3000 9 3000 20 3000 31 3009 40 3020 40ZM3020 90C3031 90 3040 81 3040 70 3040 59 3031 50 3020 50 3009 50 3000 59 3000 70 3000 81 3009 90 3020 90ZM3020 140C3031 140 3040 131 3040 120 3040 109 3031 100 3020 100 3009 100 3000 109 3000 120 3000 131 3009 140 3020 140ZM3020 190C3031 190 3040 181 3040 170 3040 159 3031 150 3020 150 3009 150 3000 159 3000 170 3000 181 3009 190 3020 190ZM3020 240C3031 240 3040 231 3040 220 3040 209 3031 200 3020 200 3009 200 3000 209 3000 220 3000 231 3009 240 3020 240ZM3020 290C3031 290 3040 281 3040 270 3040 259 3031 250 3020 250 3009 250 3000 259 3000 270 3000 281 3009 290 3020 290ZM3020 340C3031 340 3040 331 3040 320 3040 309 3031 300 3020 300 3009 300 3000 309 3000 320 3000 331 3009 340 3020 340ZM3070 90C3081 90 3090 81 3090 70 3090 59 3081 50 3070 50 3059 50 3050 59 3050 70 3050 81 3059 90 3070 90ZM3070 140C3081 140 3090 131 3090 120 3090 109 3081 100 3070 100 3059 100 3050 109 3050 120 3050 131 3059 140 3070 140ZM3070 190C3081 190 3090 181 3090 170 3090 159 3081 150 3070 150 3059 150 3050 159 3050 170 3050 181 3059 190 3070 190ZM3070 240C3081 240 3090 231 3090 220 3090 209 3081 200 3070 200 3059 200 3050 209 3050 220 3050 231 3059 240 3070 240ZM3070 290C3081 290 3090 281 3090 270 3090 259 3081 250 3070 250 3059 250 3050 259 3050 270 3050 281 3059 290 3070 290ZM2970 440C2981 440 2990 431 2990 420 2990 409 2981 400 2970 400 2959 400 2950 409 2950 420 2950 431 2959 440 2970 440ZM2970 490C2981 490 2990 481 2990 470 2990 459 2981 450 2970 450 2959 450 2950 459 2950 470 2950 481 2959 490 2970 490ZM3020 490C3031 490 3040 481 3040 470 3040 459 3031 450 3020 450 3009 450 3000 459 3000 470 3000 481 3009 490 3020 490ZM3020 540C3031 540 3040 531 3040 520 3040 509 3031 500 3020 500 3009 500 3000 509 3000 520 3000 531 3009 540 3020 540ZM3070 540C3081 540 3090 531 3090 520 3090 509 3081 500 3070 500 3059 500 3050 509 3050 520 3050 531 3059 540 3070 540ZM3070 590C3081 590 3090 581 3090 570 3090 559 3081 550 3070 550 3059 550 3050 559 3050 570 3050 581 3059 590 3070 590ZM3070 640C3081 640 3090 631 3090 620 3090 609 3081 600 3070 600 3059 600 3050 609 3050 620 3050 631 3059 640 3070 640ZM3020 640C3031 640 3040 631 3040 620 3040 609 3031 600 3020 600 3009 600 3000 609 3000 620 3000 631 3009 640 3020 640ZM3020 590C3031 590 3040 581 3040 570 3040 559 3031 550 3020 550 3009 550 3000 559 3000 570 3000 581 3009 590 3020 590ZM3020 440C3031 440 3040 431 3040 420 3040 409 3031 400 3020 400 3009 400 3000 409 3000 420 3000 431 3009 440 3020 440ZM3170 40C3181 40 3190 31 3190 20 3190 9 3181 0 3170 0 3159 0 3150 9 3150 20 3150 31 3159 40 3170 40ZM3170 90C3181 90 3190 81 3190 70 3190 59 3181 50 3170 50 3159 50 3150 59 3150 70 3150 81 3159 90 3170 90ZM3220 90C3231 90 3240 81 3240 70 3240 59 3231 50 3220 50 3209 50 3200 59 3200 70 3200 81 3209 90 3220 90ZM3220 40C3231 40 3240 31 3240 20 3240 9 3231 0 3220 0 3209 0 3200 9 3200 20 3200 31 3209 40 3220 40ZM3270 40C3281 40 3290 31 3290 20 3290 9 3281 0 3270 0 3259 0 3250 9 3250 20 3250 31 3259 40 3270 40ZM3270 90C3281 90 3290 81 3290 70 3290 59 3281 50 3270 50 3259 50 3250 59 3250 70 3250 81 3259 90 3270 90ZM3270 140C3281 140 3290 131 3290 120 3290 109 3281 100 3270 100 3259 100 3250 109 3250 120 3250 131 3259 140 3270 140ZM3270 190C3281 190 3290 181 3290 170 3290 159 3281 150 3270 150 3259 150 3250 159 3250 170 3250 181 3259 190 3270 190ZM3270 240C3281 240 3290 231 3290 220 3290 209 3281 200 3270 200 3259 200 3250 209 3250 220 3250 231 3259 240 3270 240ZM3270 290C3281 290 3290 281 3290 270 3290 259 3281 250 3270 250 3259 250 3250 259 3250 270 3250 281 3259 290 3270 290ZM3270 340C3281 340 3290 331 3290 320 3290 309 3281 300 3270 300 3259 300 3250 309 3250 320 3250 331 3259 340 3270 340ZM3270 390C3281 390 3290 381 3290 370 3290 359 3281 350 3270 350 3259 350 3250 359 3250 370 3250 381 3259 390 3270 390ZM3270 440C3281 440 3290 431 3290 420 3290 409 3281 400 3270 400 3259 400 3250 409 3250 420 3250 431 3259 440 3270 440ZM3270 490C3281 490 3290 481 3290 470 3290 459 3281 450 3270 450 3259 450 3250 459 3250 470 3250 481 3259 490 3270 490ZM3270 540C3281 540 3290 531 3290 520 3290 509 3281 500 3270 500 3259 500 3250 509 3250 520 3250 531 3259 540 3270 540ZM3270 590C3281 590 3290 581 3290 570 3290 559 3281 550 3270 550 3259 550 3250 559 3250 570 3250 581 3259 590 3270 590ZM3270 640C3281 640 3290 631 3290 620 3290 609 3281 600 3270 600 3259 600 3250 609 3250 620 3250 631 3259 640 3270 640ZM3320 640C3331 640 3340 631 3340 620 3340 609 3331 600 3320 600 3309 600 3300 609 3300 620 3300 631 3309 640 3320 640ZM3320 590C3331 590 3340 581 3340 570 3340 559 3331 550 3320 550 3309 550 3300 559 3300 570 3300 581 3309 590 3320 590ZM3320 540C3331 540 3340 531 3340 520 3340 509 3331 500 3320 500 3309 500 3300 509 3300 520 3300 531 3309 540 3320 540ZM3320 490C3331 490 3340 481 3340 470 3340 459 3331 450 3320 450 3309 450 3300 459 3300 470 3300 481 3309 490 3320 490ZM3320 440C3331 440 3340 431 3340 420 3340 409 3331 400 3320 400 3309 400 3300 409 3300 420 3300 431 3309 440 3320 440ZM3320 390C3331 390 3340 381 3340 370 3340 359 3331 350 3320 350 3309 350 3300 359 3300 370 3300 381 3309 390 3320 390ZM3320 340C3331 340 3340 331 3340 320 3340 309 3331 300 3320 300 3309 300 3300 309 3300 320 3300 331 3309 340 3320 340ZM3320 290C3331 290 3340 281 3340 270 3340 259 3331 250 3320 250 3309 250 3300 259 3300 270 3300 281 3309 290 3320 290ZM3320 240C3331 240 3340 231 3340 220 3340 209 3331 200 3320 200 3309 200 3300 209 3300 220 3300 231 3309 240 3320 240ZM3320 190C3331 190 3340 181 3340 170 3340 159 3331 150 3320 150 3309 150 3300 159 3300 170 3300 181 3309 190 3320 190ZM3320 140C3331 140 3340 131 3340 120 3340 109 3331 100 3320 100 3309 100 3300 109 3300 120 3300 131 3309 140 3320 140ZM3320 90C3331 90 3340 81 3340 70 3340 59 3331 50 3320 50 3309 50 3300 59 3300 70 3300 81 3309 90 3320 90ZM3320 40C3331 40 3340 31 3340 20 3340 9 3331 0 3320 0 3309 0 3300 9 3300 20 3300 31 3309 40 3320 40ZM3370 40C3381 40 3390 31 3390 20 3390 9 3381 0 3370 0 3359 0 3350 9 3350 20 3350 31 3359 40 3370 40ZM3370 90C3381 90 3390 81 3390 70 3390 59 3381 50 3370 50 3359 50 3350 59 3350 70 3350 81 3359 90 3370 90ZM3420 90C3431 90 3440 81 3440 70 3440 59 3431 50 3420 50 3409 50 3400 59 3400 70 3400 81 3409 90 3420 90ZM3420 40C3431 40 3440 31 3440 20 3440 9 3431 0 3420 0 3409 0 3400 9 3400 20 3400 31 3409 40 3420 40Z"/></g></svg>